<svg style="display: none;" aria-hidden="true" xmlns="http://www.w3.org/2000/svg" xmlns:xlink="http://www.w3.org/1999/xlink"><symbol fill="currentColor" viewBox="0 0 15 10" id="svg-arrow1"><path d="M7.5 9.275c-.269 0-.538-.103-.743-.307l-6.45-6.45a1.05 1.05 0 1 1 1.486-1.486L7.5 6.74l5.707-5.707a1.05 1.05 0 0 1 1.485 1.486l-6.45 6.45a1.047 1.047 0 0 1-.742.307Z"/></symbol><symbol fill="currentColor" viewBox="0 0 32 32" id="svg-author"><path d="M11.794.075h-8.79a2.933 2.933 0 0 0-2.929 2.93v8.789a2.933 2.933 0 0 0 2.93 2.93h8.789a2.933 2.933 0 0 0 2.93-2.93v-8.79a2.933 2.933 0 0 0-2.93-2.929Zm.976 11.719a.978.978 0 0 1-.976.976h-8.79a.978.978 0 0 1-.976-.976v-8.79c0-.537.438-.976.977-.976h8.789c.539 0 .976.439.976.977v8.789ZM28.395.075h-8.789a2.933 2.933 0 0 0-2.93 2.93v8.789a2.933 2.933 0 0 0 2.93 2.93h8.79a2.933 2.933 0 0 0 2.93-2.93v-8.79a2.933 2.933 0 0 0-2.93-2.929Zm.977 11.719a.978.978 0 0 1-.977.976h-8.789a.978.978 0 0 1-.976-.976v-8.79c0-.537.437-.976.976-.976h8.79c.539 0 .976.439.976.977v8.789Zm-.977 4.883h-8.789a2.933 2.933 0 0 0-2.93 2.93v8.788a2.933 2.933 0 0 0 2.93 2.93h8.79a2.933 2.933 0 0 0 2.93-2.93v-8.789a2.933 2.933 0 0 0-2.93-2.93Zm.977 11.718a.978.978 0 0 1-.977.977h-8.789a.978.978 0 0 1-.976-.977v-8.789c0-.538.437-.976.976-.976h8.79c.539 0 .976.438.976.976v8.79ZM11.794 16.677h-8.79a2.933 2.933 0 0 0-2.929 2.93v8.788a2.933 2.933 0 0 0 2.93 2.93h8.789a2.933 2.933 0 0 0 2.93-2.93v-8.789a2.933 2.933 0 0 0-2.93-2.93Zm.976 11.718a.978.978 0 0 1-.976.977h-8.79a.978.978 0 0 1-.976-.977v-8.789c0-.538.438-.976.977-.976h8.789c.539 0 .976.438.976.976v8.79Z"/></symbol><symbol fill="currentColor" viewBox="0 0 32 32" id="svg-author-active"><path d="M11.719 0h-8.79A2.933 2.933 0 0 0 0 2.93v8.789a2.933 2.933 0 0 0 2.93 2.93h8.789a2.933 2.933 0 0 0 2.93-2.93v-8.79A2.933 2.933 0 0 0 11.718 0ZM28.32 0h-8.789a2.933 2.933 0 0 0-2.93 2.93v8.789a2.933 2.933 0 0 0 2.93 2.93h8.79a2.933 2.933 0 0 0 2.929-2.93v-8.79A2.933 2.933 0 0 0 28.32 0Zm0 16.602h-8.789a2.933 2.933 0 0 0-2.93 2.93v8.788a2.933 2.933 0 0 0 2.93 2.93h8.79a2.933 2.933 0 0 0 2.929-2.93v-8.789a2.933 2.933 0 0 0-2.93-2.93Zm-16.601 0h-8.79A2.933 2.933 0 0 0 0 19.532v8.788a2.933 2.933 0 0 0 2.93 2.93h8.789a2.933 2.933 0 0 0 2.93-2.93v-8.789a2.933 2.933 0 0 0-2.93-2.93Z"/></symbol><symbol fill="currentColor" viewBox="0 0 20 19" id="svg-chat"><path d="M.5 9.997V6.5A5.75 5.75 0 0 1 6.25.75h7.501l.296.008A5.75 5.75 0 0 1 19.5 6.5V10a5.75 5.75 0 0 1-5.75 5.75h-1.445L7.2 18.669l-.09.043a.75.75 0 0 1-1.032-.694v-2.276c-3-.088-5.42-2.47-5.571-5.45L.5 9.997Zm1.5 0a4.25 4.25 0 0 0 4.23 4.25l.602.003a.75.75 0 0 1 .747.75v1.725l4.155-2.376.088-.043a.748.748 0 0 1 .284-.056h1.644A4.25 4.25 0 0 0 18 10V6.501a4.25 4.25 0 0 0-4.03-4.245l-.219-.006H6.25A4.25 4.25 0 0 0 2 6.5v3.497Z"/></symbol><symbol fill="currentColor" viewBox="0 0 16 16" id="svg-copylink"><g clip-path="url(#ea)"><path d="M11.33.711a4 4 0 0 1 2.842 6.78l-2.007 2.007a4 4 0 0 1-5.899-.263l-.134-.168-.069-.117a.667.667 0 0 1 1.046-.782l.092.1.089.112a2.667 2.667 0 0 0 3.932.176l1.992-1.992.171-.197a2.666 2.666 0 0 0-3.942-3.574l-1.14 1.134a.667.667 0 0 1-.94-.946L8.51 1.84l.007-.007.144-.133a4.002 4.002 0 0 1 2.67-.99Z"/><path d="M6.95 5.34a4 4 0 0 1 2.917 1.594.666.666 0 0 1-1.067.799 2.67 2.67 0 0 0-3.918-.387l-.104.099-2 2a2.666 2.666 0 0 0 3.779 3.762l1.132-1.131.104-.086a.668.668 0 0 1 .839 1.028l-1.14 1.14-.008.008A4 4 0 0 1 1.827 8.51l.008-.009 2-2a4.001 4.001 0 0 1 3.115-1.16Z"/></g><defs><clipPath id="ea"><path d="M0 0h16v16H0z"/></clipPath></defs></symbol><symbol fill="currentColor" viewBox="0 0 16 4" id="svg-dots"><path d="M3.313 2.063c0 .859-.704 1.562-1.563 1.562-.86 0-1.563-.703-1.563-1.563A1.569 1.569 0 0 1 1.75.5c.86 0 1.563.703 1.563 1.563ZM8 .5c-.86 0-1.563.703-1.563 1.563 0 .859.704 1.562 1.563 1.562.86 0 1.563-.703 1.563-1.563C9.563 1.204 8.858.5 8 .5Zm6.25 0c-.86 0-1.563.703-1.563 1.563 0 .859.704 1.562 1.563 1.562.86 0 1.563-.703 1.563-1.563 0-.859-.704-1.562-1.563-1.562Z"/></symbol><symbol fill="currentColor" viewBox="0 0 20 20" id="svg-exit"><path d="m19.118 10.443.009-.008c.012-.016.024-.028.032-.045.004-.004.004-.008.008-.012.008-.016.02-.033.029-.049 0-.004.004-.008.004-.008a.615.615 0 0 0 .024-.053c0-.004 0-.004.005-.008.008-.017.012-.037.02-.057 0-.005 0-.009.004-.009.004-.02.012-.036.012-.057 0-.008 0-.012.004-.02.005-.017.005-.033.009-.05.004-.024.004-.044.004-.069 0-.024 0-.045-.004-.069 0-.016-.005-.033-.009-.049 0-.008 0-.012-.004-.02l-.012-.058c0-.004 0-.008-.004-.008-.004-.02-.012-.036-.02-.057 0-.004 0-.004-.005-.008l-.024-.053c0-.004-.004-.008-.004-.008a.303.303 0 0 0-.029-.05c-.004-.003-.004-.007-.008-.012-.012-.016-.02-.032-.032-.044l-.009-.009c-.016-.016-.028-.036-.049-.053l-4.037-4.033a.702.702 0 0 0-.992.992L16.88 9.3H5.585a.701.701 0 1 0 0 1.4h11.3l-2.82 2.822a.702.702 0 0 0 .493 1.196.7.7 0 0 0 .494-.204l4.013-4.013a.758.758 0 0 1 .053-.058Z"/><path d="M4.52 1.4h5.225a.701.701 0 1 0 0-1.4H4.52A3.807 3.807 0 0 0 .719 3.8v12.4c0 2.094 1.706 3.8 3.8 3.8h5.14a.701.701 0 1 0 0-1.4H4.52a2.404 2.404 0 0 1-2.4-2.4V3.8a2.404 2.404 0 0 1 2.4-2.4Z"/></symbol><symbol fill="currentColor" viewBox="0 0 21 20" id="svg-heart"><path d="M19.5 6.558c0-1.353-.704-3.894-3.476-4.461l-.274-.05c-3-.45-4.583 2.387-5 3.327-.417-.94-2-3.777-5-3.326l-.274.049C2.704 2.664 2 5.205 2 6.558l.008.412c.075 2.03.734 3.653 2.492 5.774 1.406 1.697 4.219 3.711 5.537 4.612l.713.477c.027-.017 4.113-2.66 6.067-4.875l.183-.214c1.758-2.12 2.417-3.744 2.492-5.774l.008-.412Zm1.5 0c0 1.267-.18 2.44-.652 3.633-.41 1.031-1.016 2.021-1.831 3.06l-.363.45c-1.061 1.28-2.75 2.644-4.086 3.639a53.877 53.877 0 0 1-2.297 1.618l-.15.099-.04.026-.012.007-.004.002-.815.527-.814-.526-.001-.001-.004-.002-.011-.007-.041-.026a33.656 33.656 0 0 1-.689-.462 53.889 53.889 0 0 1-1.758-1.255c-1.252-.933-2.815-2.19-3.88-3.398l-.207-.241c-1-1.206-1.725-2.332-2.193-3.51C.68 9 .5 7.825.5 6.558c0-.921.239-2.226.98-3.407C2.253 1.918 3.556.861 5.526.564L5.91.52c1.887-.16 3.343.648 4.334 1.576.182.17.35.346.506.524.156-.178.324-.354.506-.524 1.057-.99 2.643-1.842 4.717-1.53l.362.064c1.769.364 2.96 1.366 3.685 2.522A6.605 6.605 0 0 1 21 6.559Z"/></symbol><symbol fill="currentColor" viewBox="0 0 32 33" id="svg-history"><path d="M9.675 8.367H4.467a1.041 1.041 0 0 1-1.02-1.25l1.041-5.208a1.042 1.042 0 1 1 2.042.416l-.792 3.959h3.937a1.042 1.042 0 0 1 0 2.083Zm9.375 12.5c-.276 0-.54-.11-.736-.306l-3.125-3.124a1.042 1.042 0 0 1-.305-.737v-5.208a1.042 1.042 0 0 1 2.083 0v4.777l2.82 2.82a1.042 1.042 0 0 1-.737 1.778Z"/><path d="M16.968 11.492a1.04 1.04 0 0 0-.237-.66l-.07-.077a1.043 1.043 0 0 0-.633-.3l-.102-.005c-.277 0-.542.11-.737.305l-.07.077a1.043 1.043 0 0 0-.236.66V16.7l.006.102c.024.239.13.463.3.634l3.125 3.125c.171.171.395.276.634.3l.102.006c.155 0 .307-.035.446-.1l.133-.076c.128-.086.235-.199.314-.33l.07-.138a1.04 1.04 0 0 0 .078-.449l-.019-.152a1.042 1.042 0 0 0-.185-.417l-.1-.116-2.82-2.82v-4.777ZM4.824 1.08a1.243 1.243 0 0 1 1.901 1.282l.001.001-.744 3.72h3.694v.199H5.738l.792-3.958a1.042 1.042 0 0 0-.1-.694l-.051-.088a1.043 1.043 0 0 0-.562-.421l-.1-.026a1.043 1.043 0 0 0-.783.152l-.083.06a1.044 1.044 0 0 0-.363.6L3.447 7.118a1.041 1.041 0 0 0 .905 1.243l.116.007h5.208l.103-.005c.204-.02.398-.101.557-.231l.076-.07c.17-.17.277-.394.3-.633l.005-.103a1.04 1.04 0 0 0-.236-.66l-.07-.076a1.041 1.041 0 0 0-.632-.3l-.103-.006v-.2a1.242 1.242 0 1 1 0 2.484H4.468a1.242 1.242 0 0 1-1.217-1.49l1.04-5.208h.002l.03-.12c.084-.272.26-.51.501-.668Zm12.343 15.104 2.761 2.762.12.139a1.241 1.241 0 0 1-.815 1.966l-.183.014c-.288 0-.566-.1-.787-.281l-.09-.082-3.125-3.125a1.241 1.241 0 0 1-.358-.755l-.006-.123v-5.208a1.241 1.241 0 1 1 2.483 0v4.693Z"/><path d="M15.934 32.325c-1.619 0-3.227-.252-4.769-.745a1.041 1.041 0 0 1 .634-1.979 13.542 13.542 0 1 0-3.104-24.35A1.042 1.042 0 1 1 7.582 3.49a15.625 15.625 0 1 1 8.352 28.836Z"/><path d="M16.331.881A15.825 15.825 0 0 1 31.48 19.61l-.118.573a15.826 15.826 0 0 1-14.756 12.33l-.672.014c-1.64 0-3.269-.256-4.83-.755l-.013-.004a1.243 1.243 0 0 1 .64-2.382l.116.023.014.002-.06.188.06-.186a13.342 13.342 0 1 0-2.7-24.21l-.359.22A1.242 1.242 0 0 1 7.475 3.32l.5-.304A15.825 15.825 0 0 1 16.332.88Zm-.005.2A15.61 15.61 0 0 0 7.582 3.49l-.084.06a1.042 1.042 0 0 0-.376.591l-.017.102a1.044 1.044 0 0 0 1.11 1.167l.102-.012c.1-.018.198-.05.29-.096l.09-.05a13.54 13.54 0 0 1 5.972-2.032l.426-.033a13.542 13.542 0 0 1 13.43 18.476l-.163.394a13.54 13.54 0 0 1-3.776 5.055l-.332.267a13.543 13.543 0 0 1-5.742 2.616l-.42.075a13.542 13.542 0 0 1-6.292-.468 1.042 1.042 0 0 0-.757.102l-.084.052c-.188.13-.329.32-.4.54l-.024.094a1.04 1.04 0 0 0 .631 1.19c1.35.432 2.75.679 4.162.734l.607.011a15.625 15.625 0 0 0 9.226-3.02l.526-.403a15.626 15.626 0 0 0 5.321-8.12l.16-.644a15.625 15.625 0 0 0-.46-8.502l-.199-.544a15.625 15.625 0 0 0-5.106-6.814l-.466-.342a15.627 15.627 0 0 0-8.031-2.83l-.579-.026Z"/><path d="M15.809 32.325h-.01a15.682 15.682 0 0 1-4.397-.67 1.041 1.041 0 1 1 .602-1.994c1.239.374 2.524.57 3.817.58a1.042 1.042 0 0 1-.01 2.084h-.002Zm4.113-.555a1.04 1.04 0 0 1-.285-2.044 13.558 13.558 0 0 0 3.518-1.577 1.041 1.041 0 1 1 1.114 1.76 15.625 15.625 0 0 1-4.063 1.82 1.04 1.04 0 0 1-.284.042v-.001ZM7.943 29.948c-.202 0-.4-.06-.569-.17a15.528 15.528 0 0 1-3.333-2.942 1.042 1.042 0 1 1 1.586-1.354 13.43 13.43 0 0 0 2.892 2.547 1.041 1.041 0 0 1-.57 1.915l-.006.004Zm-5.334-6.256a1.041 1.041 0 0 1-.951-.616 15.528 15.528 0 0 1-1.22-4.28 1.042 1.042 0 0 1 2.064-.277 13.487 13.487 0 0 0 1.057 3.702 1.042 1.042 0 0 1-.95 1.468v.003Zm-1.1-8.145a1.043 1.043 0 0 1-1.031-1.199 15.703 15.703 0 0 1 1.287-4.257 1.042 1.042 0 1 1 1.889.88 13.623 13.623 0 0 0-1.116 3.69 1.042 1.042 0 0 1-1.028.886Zm3.472-7.449a1.042 1.042 0 0 1-.78-1.73A15.612 15.612 0 0 1 7.58 3.49a1.042 1.042 0 1 1 1.114 1.76 13.542 13.542 0 0 0-2.932 2.492 1.042 1.042 0 0 1-.782.356Z"/><path d="M11.116 29.563a1.24 1.24 0 0 1 .827-.124l.12.03.458.13a13.4 13.4 0 0 0 3.302.443 1.241 1.241 0 1 1-.012 2.482v.001h-.015a15.889 15.889 0 0 1-3.907-.524l-.544-.155a1.242 1.242 0 0 1-.229-2.283Zm.889.097c-.265-.08-.55-.05-.794.08l-.088.053a1.042 1.042 0 0 0-.417.563l-.025.1a1.042 1.042 0 0 0 .721 1.199c1.248.377 2.537.597 3.838.655l.558.015h.013c.242 0 .475-.083.662-.234l.077-.068a1.04 1.04 0 0 0 .302-.633l.006-.102a1.042 1.042 0 0 0-.233-.662l-.069-.077a1.043 1.043 0 0 0-.632-.302l-.103-.005a13.598 13.598 0 0 1-3.816-.582ZM23.5 27.798a1.242 1.242 0 0 1 .875 2.279 15.83 15.83 0 0 1-4.113 1.845l-.001-.002c-.11.032-.223.05-.337.05l-.203.002v-.02a1.24 1.24 0 0 1-.14-2.418l.457-.14a13.36 13.36 0 0 0 3.01-1.414c.138-.09.291-.152.452-.182Zm.447.204a1.044 1.044 0 0 0-.411-.006l-.1.023c-.1.029-.194.073-.28.13a13.556 13.556 0 0 1-3.52 1.577l-.088.03c-.204.078-.38.218-.5.403l-.047.08a1.04 1.04 0 0 0 .92 1.53v.001c.097 0 .193-.014.285-.04a15.63 15.63 0 0 0 4.062-1.821c.089-.054.17-.12.238-.197l.064-.082c.061-.084.11-.176.143-.274l.028-.1c.024-.1.032-.204.025-.307l-.012-.103a1.04 1.04 0 0 0-.096-.294l-.05-.09a1.04 1.04 0 0 0-.203-.233l-.082-.063a1.04 1.04 0 0 0-.276-.138l-.1-.026ZM4.931 24.92c.329.025.634.18.848.431h.001l.315.358c.75.82 1.6 1.544 2.532 2.152a1.244 1.244 0 0 1 .064 2.037 1.24 1.24 0 0 1-.669.242l-.01.008h-.07c-.18 0-.358-.04-.52-.115l-.158-.088a15.728 15.728 0 0 1-3.376-2.98 1.244 1.244 0 0 1 1.043-2.046Zm-.015.199a1.042 1.042 0 0 0-.403.048l-.097.036a.997.997 0 0 0-.259.162l-.074.07a1.042 1.042 0 0 0-.178.25l-.042.093a1.05 1.05 0 0 0-.068.298l-.003.102a1.043 1.043 0 0 0 .249.657 15.527 15.527 0 0 0 3.333 2.943c.127.083.27.136.419.158l.15.012.005-.004c.169 0 .334-.04.482-.117l.142-.09c.135-.1.244-.23.317-.381l.06-.156c.048-.162.056-.332.024-.496l-.044-.161a1.042 1.042 0 0 0-.278-.412l-.132-.102a13.435 13.435 0 0 1-2.892-2.548 1.043 1.043 0 0 0-.609-.35l-.102-.012Zm-3.609-7.677a1.242 1.242 0 0 1 1.37.928l.023.119.001.003H2.7c.17 1.259.522 2.488 1.041 3.647l.055.145a1.242 1.242 0 0 1-.594 1.453c-.123.067-.256.11-.394.133v.021h-.2a1.242 1.242 0 0 1-1.049-.576l-.084-.157A15.731 15.731 0 0 1 .24 18.823v-.004a1.242 1.242 0 0 1 1.068-1.377Zm.027.198-.1.019a1.042 1.042 0 0 0-.585.376l-.058.083c-.127.2-.182.44-.154.678.2 1.477.61 2.92 1.22 4.28a1.043 1.043 0 0 0 .802.605l.15.011v-.004c.13 0 .259-.024.38-.071l.117-.055c.115-.062.216-.146.3-.245l.076-.105c.071-.109.12-.23.147-.357l.017-.129c.01-.13-.004-.26-.042-.384l-.046-.122a13.488 13.488 0 0 1-1.055-3.7 1.043 1.043 0 0 0-.326-.614l-.08-.066a1.041 1.041 0 0 0-.763-.2Zm1.43-8.363a1.243 1.243 0 0 1 1.07 1.776v.001a13.425 13.425 0 0 0-1.099 3.638 1.242 1.242 0 1 1-2.455-.374l.095-.558a15.903 15.903 0 0 1 1.209-3.754 1.242 1.242 0 0 1 1.18-.73Zm-.007.2a1.045 1.045 0 0 0-.406.065l-.094.04a1.044 1.044 0 0 0-.254.175l-.072.075a1.042 1.042 0 0 0-.167.258l-.226.511a15.706 15.706 0 0 0-1.06 3.747l-.011.111a1.042 1.042 0 0 0 1.647.893l.073-.058a1.03 1.03 0 0 0 .35-.632c.196-1.277.571-2.52 1.116-3.692.045-.093.076-.193.092-.295l.01-.102a1.04 1.04 0 0 0-.03-.307l-.029-.098a1.042 1.042 0 0 0-.145-.272l-.066-.08a1.044 1.044 0 0 0-.24-.194l-.09-.048a1.042 1.042 0 0 0-.296-.088l-.102-.009ZM7.926 3.14a1.245 1.245 0 0 1 1.276.557 1.243 1.243 0 0 1-.043 1.391 1.243 1.243 0 0 1-.358.33v.002a13.341 13.341 0 0 0-2.888 2.455l-.001-.001a1.24 1.24 0 0 1-.93.424H4.98a1.243 1.243 0 0 1-1.038-1.921l.109-.143c.996-1.13 2.15-2.11 3.423-2.913.137-.09.29-.15.452-.18Zm.447.202a1.042 1.042 0 0 0-.41-.006l-.1.025a1.04 1.04 0 0 0-.281.129A15.615 15.615 0 0 0 4.2 6.367a1.04 1.04 0 0 0-.249.534l-.012.148a1.042 1.042 0 0 0 .892 1.038l.15.011c.11 0 .22-.019.325-.053l.104-.04c.135-.062.255-.152.353-.263A13.542 13.542 0 0 1 8.695 5.25c.089-.054.168-.122.236-.199l.066-.08c.06-.085.108-.177.142-.275l.028-.099c.023-.1.032-.205.025-.308l-.012-.103a1.05 1.05 0 0 0-.096-.293l-.051-.09a1.042 1.042 0 0 0-.201-.234l-.082-.064a1.042 1.042 0 0 0-.277-.136l-.1-.028Z"/><path d="M9.675 8.367H4.467a1.041 1.041 0 0 1-1.02-1.25l1.041-5.208a1.042 1.042 0 1 1 2.042.416l-.792 3.959h3.937a1.042 1.042 0 0 1 0 2.083Z"/><path d="M4.823 1.082a1.243 1.243 0 0 1 1.902 1.282v.001l-.743 3.72h3.693v.199H5.738l.792-3.958a1.042 1.042 0 0 0-.1-.694l-.052-.088a1.043 1.043 0 0 0-.561-.421l-.1-.026a1.043 1.043 0 0 0-.783.152l-.083.06a1.044 1.044 0 0 0-.363.6l-1.041 5.21a1.041 1.041 0 0 0 .905 1.243l.115.007h5.208l.104-.005c.204-.02.397-.101.556-.231l.076-.07c.171-.17.277-.394.301-.633l.005-.103a1.04 1.04 0 0 0-.236-.66l-.07-.076a1.041 1.041 0 0 0-.632-.3l-.104-.006v-.2a1.242 1.242 0 1 1 0 2.484H4.467a1.243 1.243 0 0 1-1.217-1.49L4.291 1.87h.001l.03-.12c.085-.272.261-.51.501-.668Z"/></symbol><symbol fill="currentColor" viewBox="0 0 32 33" id="svg-history-active"><path d="M15.725 25.875a9.375 9.375 0 1 0 0-18.75 9.375 9.375 0 0 0 0 18.75Z"/><path d="M9.475 8.167H4.267a1.042 1.042 0 0 1-1.02-1.25l1.04-5.208a1.042 1.042 0 0 1 2.042.416l-.791 3.958h3.937a1.042 1.042 0 0 1 0 2.084Zm9.375 12.5c-.276 0-.541-.11-.736-.306l-3.125-3.125a1.041 1.041 0 0 1-.306-.736v-5.208a1.041 1.041 0 1 1 2.084 0v4.777l2.82 2.82a1.042 1.042 0 0 1-.737 1.778Z"/><path d="M16.767 11.292a1.04 1.04 0 0 0-.236-.66l-.07-.078a1.043 1.043 0 0 0-.633-.3l-.103-.004c-.276 0-.54.11-.736.304l-.07.078a1.042 1.042 0 0 0-.236.66V16.5l.006.102c.024.239.129.463.3.634l3.125 3.125c.171.171.395.276.634.3l.102.006c.155 0 .307-.035.446-.1l.133-.076c.128-.086.235-.199.314-.33l.07-.138a1.05 1.05 0 0 0 .077-.45l-.018-.151a1.042 1.042 0 0 0-.185-.417l-.1-.117-2.82-2.82v-4.776ZM4.624.88a1.243 1.243 0 0 1 1.901 1.282h.001l-.744 3.72h3.693v.2H5.538l.792-3.958a1.042 1.042 0 0 0-.1-.695l-.052-.088a1.043 1.043 0 0 0-.561-.42l-.1-.026a1.043 1.043 0 0 0-.783.152l-.083.06a1.044 1.044 0 0 0-.363.6L3.247 6.918a1.04 1.04 0 0 0 .905 1.243l.115.007h5.208l.104-.005c.204-.02.398-.102.556-.232l.077-.069c.17-.17.277-.394.3-.633l.005-.103a1.04 1.04 0 0 0-.236-.66l-.07-.077a1.041 1.041 0 0 0-.632-.3l-.104-.005v-.2a1.242 1.242 0 1 1 0 2.484H4.267a1.242 1.242 0 0 1-1.216-1.49l1.04-5.208h.002l.03-.12c.084-.272.26-.51.5-.668Zm12.343 15.104 2.761 2.762.12.139a1.241 1.241 0 0 1-.815 1.966l-.183.014c-.288 0-.566-.1-.787-.281l-.09-.082-3.126-3.125a1.241 1.241 0 0 1-.357-.755l-.006-.123v-5.208a1.241 1.241 0 1 1 2.482 0v4.693Z"/><path d="M15.734 32.125c-1.619 0-3.228-.252-4.77-.745a1.042 1.042 0 0 1 .635-1.979 13.541 13.541 0 1 0-3.104-24.35A1.042 1.042 0 1 1 7.382 3.29a15.625 15.625 0 1 1 8.352 28.836Z"/><path d="M16.131.681A15.825 15.825 0 0 1 31.28 19.408l-.119.574A15.826 15.826 0 0 1 16.406 32.31l-.672.014c-1.64 0-3.27-.255-4.83-.754l-.013-.004a1.243 1.243 0 0 1 .64-2.382l.116.022.013.003-.06.188.06-.187a13.342 13.342 0 1 0-2.7-24.209l-.358.22a1.243 1.243 0 0 1-1.327-2.102l.5-.303A15.824 15.824 0 0 1 16.132.68Zm-.005.2a15.62 15.62 0 0 0-8.745 2.408l-.084.06a1.042 1.042 0 0 0-.376.592l-.017.101a1.044 1.044 0 0 0 1.11 1.168l.102-.012c.1-.018.198-.05.29-.096l.09-.05a13.541 13.541 0 0 1 5.972-2.032l.426-.033a13.542 13.542 0 0 1 13.43 18.475l-.164.395a13.54 13.54 0 0 1-3.775 5.055l-.332.267a13.543 13.543 0 0 1-5.742 2.616l-.42.074a13.542 13.542 0 0 1-6.292-.467 1.042 1.042 0 0 0-.757.102l-.084.052c-.188.13-.329.32-.4.54l-.025.094a1.04 1.04 0 0 0 .632 1.19c1.349.432 2.749.679 4.162.734l.607.011a15.625 15.625 0 0 0 9.225-3.02l.527-.404a15.625 15.625 0 0 0 5.32-8.119l.16-.644a15.625 15.625 0 0 0-.46-8.502l-.198-.544A15.625 15.625 0 0 0 25.2 4.077l-.465-.341a15.627 15.627 0 0 0-8.032-2.83L16.126.88Z"/><path d="M15.608 32.125h-.01a15.682 15.682 0 0 1-4.396-.67 1.041 1.041 0 1 1 .602-1.995c1.238.375 2.524.57 3.817.582a1.042 1.042 0 0 1-.01 2.083h-.003Zm4.114-.555a1.041 1.041 0 0 1-.286-2.044 13.558 13.558 0 0 0 3.52-1.577 1.041 1.041 0 1 1 1.113 1.76 15.625 15.625 0 0 1-4.063 1.82 1.04 1.04 0 0 1-.284.042v-.001Zm-11.98-1.822c-.201 0-.399-.06-.568-.17a15.528 15.528 0 0 1-3.333-2.943 1.042 1.042 0 1 1 1.586-1.354A13.43 13.43 0 0 0 8.32 27.83a1.041 1.041 0 0 1-.571 1.915l-.005.004ZM2.41 23.492a1.041 1.041 0 0 1-.951-.616 15.528 15.528 0 0 1-1.22-4.28 1.042 1.042 0 0 1 2.064-.277A13.487 13.487 0 0 0 3.36 22.02a1.042 1.042 0 0 1-.95 1.468v.003Zm-1.1-8.145a1.041 1.041 0 0 1-1.032-1.199 15.703 15.703 0 0 1 1.288-4.257 1.042 1.042 0 1 1 1.888.88 13.623 13.623 0 0 0-1.115 3.69 1.041 1.041 0 0 1-1.028.886Zm3.47-7.449A1.042 1.042 0 0 1 4 6.167 15.612 15.612 0 0 1 7.381 3.29a1.042 1.042 0 1 1 1.114 1.76 13.541 13.541 0 0 0-2.932 2.492 1.042 1.042 0 0 1-.783.356Z"/><path d="M10.916 29.363a1.24 1.24 0 0 1 .827-.124l.12.03.458.13a13.4 13.4 0 0 0 3.302.442h-.001a1.242 1.242 0 0 1-.01 2.483h-.017a15.889 15.889 0 0 1-3.907-.524l-.544-.154a1.242 1.242 0 0 1-.228-2.283Zm.889.096c-.265-.08-.55-.05-.794.08l-.088.053a1.042 1.042 0 0 0-.417.564l-.026.1a1.042 1.042 0 0 0 .722 1.199c1.248.377 2.537.597 3.838.655l.558.015h.013c.242 0 .475-.083.661-.234l.077-.068c.172-.17.279-.395.303-.633l.006-.103a1.042 1.042 0 0 0-.233-.66l-.069-.078a1.043 1.043 0 0 0-.633-.302l-.102-.005a13.599 13.599 0 0 1-3.816-.583ZM23.3 27.6a1.242 1.242 0 0 1 .875 2.277v.002a15.83 15.83 0 0 1-4.114 1.843c-.11.031-.223.048-.337.05l-.203.001v-.02a1.24 1.24 0 0 1-.14-2.418l.457-.14a13.357 13.357 0 0 0 3.01-1.414c.137-.09.29-.152.452-.182Zm.447.202a1.044 1.044 0 0 0-.411-.005l-.1.023a1.04 1.04 0 0 0-.281.13 13.56 13.56 0 0 1-3.519 1.577l-.088.03c-.204.078-.38.218-.5.403l-.047.08a1.041 1.041 0 0 0 .92 1.53c.097 0 .192-.013.285-.04a15.63 15.63 0 0 0 4.062-1.82c.089-.054.169-.12.237-.198l.065-.08c.06-.085.11-.177.142-.275l.029-.1c.023-.1.032-.204.025-.307l-.012-.103a1.04 1.04 0 0 0-.096-.294l-.05-.09a1.042 1.042 0 0 0-.203-.233l-.082-.064a1.04 1.04 0 0 0-.277-.137l-.1-.027ZM4.73 24.72c.329.026.634.181.848.432l.315.358c.75.82 1.601 1.543 2.533 2.152a1.244 1.244 0 0 1 .064 2.037 1.24 1.24 0 0 1-.669.242l-.01.008h-.07c-.18 0-.358-.04-.52-.115l-.158-.088a15.728 15.728 0 0 1-3.376-2.98A1.244 1.244 0 0 1 4.73 24.72Zm-.015.2a1.042 1.042 0 0 0-.404.047l-.096.037a1.02 1.02 0 0 0-.26.162l-.073.07a1.042 1.042 0 0 0-.178.249l-.042.094c-.037.095-.06.195-.068.298l-.003.102a1.043 1.043 0 0 0 .249.657 15.527 15.527 0 0 0 3.333 2.943c.127.083.27.136.419.158l.15.012.005-.004c.169 0 .334-.04.482-.117l.142-.09c.135-.1.244-.231.316-.381l.06-.156c.049-.162.057-.332.025-.497l-.045-.16a1.042 1.042 0 0 0-.277-.412l-.132-.102a13.436 13.436 0 0 1-2.892-2.548 1.043 1.043 0 0 0-.609-.35l-.102-.012Zm-3.609-7.677a1.241 1.241 0 0 1 1.37.927l.023.12v.003a13.29 13.29 0 0 0 1.04 3.647l.056.145a1.243 1.243 0 0 1-.594 1.453c-.123.067-.257.11-.394.133v.021h-.2a1.242 1.242 0 0 1-1.049-.576l-.084-.157A15.731 15.731 0 0 1 .04 18.623v-.004a1.242 1.242 0 0 1 1.068-1.377Zm.027.198-.101.019a1.042 1.042 0 0 0-.584.375l-.059.084c-.126.2-.181.44-.153.677.2 1.478.61 2.92 1.22 4.28a1.043 1.043 0 0 0 .802.606l.149.01v-.003c.13 0 .26-.024.38-.071l.118-.055c.115-.062.216-.146.299-.245l.077-.105c.07-.11.12-.23.147-.357l.017-.129c.01-.13-.004-.26-.042-.384l-.046-.122a13.487 13.487 0 0 1-1.055-3.701 1.043 1.043 0 0 0-.327-.613l-.079-.066a1.041 1.041 0 0 0-.763-.2Zm1.43-8.363a1.243 1.243 0 0 1 1.07 1.776v.001a13.425 13.425 0 0 0-1.099 3.638 1.242 1.242 0 1 1-2.455-.374l.095-.558a15.902 15.902 0 0 1 1.209-3.754 1.242 1.242 0 0 1 1.18-.73Zm-.008.2a1.044 1.044 0 0 0-.405.064l-.095.041a1.044 1.044 0 0 0-.253.175l-.072.074a1.042 1.042 0 0 0-.167.26l-.226.51a15.704 15.704 0 0 0-1.06 3.747l-.012.111a1.042 1.042 0 0 0 1.648.893l.073-.058c.189-.162.313-.386.35-.633a13.64 13.64 0 0 1 1.116-3.69 1.07 1.07 0 0 0 .092-.296l.01-.102a1.04 1.04 0 0 0-.03-.307l-.03-.099a1.044 1.044 0 0 0-.145-.271l-.065-.08a1.043 1.043 0 0 0-.24-.195l-.091-.047a1.041 1.041 0 0 0-.295-.088l-.103-.01Zm5.17-6.337a1.245 1.245 0 0 1 1.276.557 1.243 1.243 0 0 1-.043 1.391 1.243 1.243 0 0 1-.359.33l.001.001a13.341 13.341 0 0 0-2.888 2.455h-.001a1.24 1.24 0 0 1-.93.424H4.78a1.243 1.243 0 0 1-1.038-1.922l.108-.142A15.809 15.809 0 0 1 7.274 3.12c.137-.09.29-.151.451-.181Zm.447.202a1.042 1.042 0 0 0-.41-.006l-.101.025a1.04 1.04 0 0 0-.28.129A15.615 15.615 0 0 0 4 6.167c-.133.15-.22.336-.25.534l-.01.148a1.042 1.042 0 0 0 .89 1.038l.15.011c.111 0 .221-.019.326-.054l.104-.04c.135-.061.255-.15.352-.262A13.542 13.542 0 0 1 8.495 5.05c.088-.054.168-.12.236-.198l.066-.08c.06-.085.108-.178.141-.275l.029-.099c.023-.101.032-.205.025-.309l-.012-.102a1.05 1.05 0 0 0-.096-.293l-.051-.09a1.042 1.042 0 0 0-.201-.234l-.082-.064a1.042 1.042 0 0 0-.277-.136l-.1-.028Z"/><path d="M9.475 8.167H4.267a1.042 1.042 0 0 1-1.02-1.25l1.04-5.208a1.042 1.042 0 0 1 2.042.416l-.791 3.958h3.937a1.042 1.042 0 0 1 0 2.084Z"/><path d="M4.623.882a1.243 1.243 0 0 1 1.902 1.282l-.744 3.72h3.694v.2H5.537l.792-3.958a1.042 1.042 0 0 0-.1-.695l-.051-.088a1.043 1.043 0 0 0-.562-.42l-.1-.026a1.043 1.043 0 0 0-.782.152l-.083.06a1.044 1.044 0 0 0-.364.6l-1.04 5.209a1.041 1.041 0 0 0 .905 1.243l.115.007h5.208l.103-.005a1.04 1.04 0 0 0 .557-.232l.076-.069c.171-.17.277-.394.301-.633l.005-.103c0-.242-.085-.475-.236-.66l-.07-.077a1.041 1.041 0 0 0-.633-.3l-.103-.005v-.2a1.242 1.242 0 1 1 0 2.484H4.267a1.242 1.242 0 0 1-1.217-1.49L4.091 1.67h.001l.03-.12c.085-.272.26-.51.501-.668Z"/></symbol><symbol fill="currentColor" viewBox="0 0 33 33" id="svg-home"><path d="M32.177 14.929a6.9 6.9 0 0 0-.521-2.648l-.16-.355A6.895 6.895 0 0 0 29.58 9.52l-8.75-7A6.894 6.894 0 0 0 16.795.997L16.5.991c-1.574 0-3.101.54-4.327 1.529l-8.75 7-.297.25a6.896 6.896 0 0 0-1.623 2.156l-.158.355a6.897 6.897 0 0 0-.522 2.648V25.25l.009.344a6.936 6.936 0 0 0 6.575 6.575l.343.009h17.5a6.937 6.937 0 0 0 4.647-1.795l.248-.238a6.936 6.936 0 0 0 2.024-4.551l.008-.344V14.929Zm.2 10.322a7.135 7.135 0 0 1-7.127 7.126H7.75a7.137 7.137 0 0 1-7.127-7.126V14.929a7.095 7.095 0 0 1 2.675-5.566l8.75-7 .24-.184a7.092 7.092 0 0 1 8.666.184l8.75 7h-.001a7.097 7.097 0 0 1 2.674 5.566V25.25Z"/><path d="M22.6 26.081H11.4c-.371 0-.727-.076-.99-.213-.262-.137-.41-.322-.41-.515s.148-.378.41-.515c.263-.136.619-.213.99-.213h11.2c.371 0 .727.077.99.213.262.137.41.322.41.515s-.148.378-.41.515c-.263.137-.619.213-.99.213Z"/><path d="M9.8 25.354c0-.303.228-.542.517-.693.298-.155.688-.236 1.083-.236v.2l-.274.014a2.03 2.03 0 0 0-.716.199l-.093.054c-.204.13-.317.293-.317.462l.007.07c.032.168.173.325.403.444.197.103.447.171.716.2l.274.013h11.2l.274-.014c.225-.023.435-.075.613-.151l.103-.048c.23-.12.371-.276.403-.443l.007-.072c0-.169-.113-.332-.317-.461l-.093-.054a2.03 2.03 0 0 0-.716-.2l-.274-.013v-.2c.395 0 .785.081 1.083.236.29.151.517.39.517.692 0 .303-.227.542-.517.693-.298.155-.688.235-1.083.235H11.4c-.395 0-.785-.08-1.083-.235-.29-.15-.517-.39-.517-.692Zm12.8-.93v.201H11.4v-.2h11.2Z"/><path d="M25.25 32.178H7.75A6.936 6.936 0 0 1 .823 25.25V14.93a6.892 6.892 0 0 1 2.599-5.41l8.75-7a6.895 6.895 0 0 1 8.656 0l8.75 7a6.898 6.898 0 0 1 2.599 5.41v10.32a6.936 6.936 0 0 1-6.927 6.927ZM4.79 11.228a4.723 4.723 0 0 0-1.78 3.702v10.32a4.745 4.745 0 0 0 4.74 4.74h17.5a4.746 4.746 0 0 0 4.74-4.74V14.93a4.724 4.724 0 0 0-1.78-3.703l-8.75-7a4.71 4.71 0 0 0-5.92 0l-8.75 7Z"/><path d="M.832 25.594a6.937 6.937 0 0 0 6.575 6.575l.343.009h17.5l.343-.01a6.936 6.936 0 0 0 4.304-1.785l.248-.236a6.938 6.938 0 0 0 2.024-4.553l.008-.343v-10.32a6.9 6.9 0 0 0-.521-2.647l-.16-.355A6.898 6.898 0 0 0 29.58 9.52l-8.75-7A6.896 6.896 0 0 0 16.794.999L16.5.993a6.895 6.895 0 0 0-4.329 1.528l-8.75 7a6.894 6.894 0 0 0-1.919 2.407l-.158.355a6.892 6.892 0 0 0-.521 2.647v10.32l.009.343ZM29.79 14.93a4.525 4.525 0 0 0-1.51-3.382l-.195-.164-8.75-7v-.001a4.511 4.511 0 0 0-5.67 0l-8.75 7a4.524 4.524 0 0 0-1.698 3.292l-.007.255v10.32l.006.226a4.546 4.546 0 0 0 4.535 4.314h17.498v.2H7.75l-.234-.006a4.746 4.746 0 0 1-2.944-1.221L4.4 28.6a4.746 4.746 0 0 1-1.384-3.116l-.006-.234V14.93a4.724 4.724 0 0 1 .358-1.812l.108-.243a4.723 4.723 0 0 1 1.11-1.476l.204-.171 8.75-7A4.71 4.71 0 0 1 16.5 3.18l.202.004a4.712 4.712 0 0 1 2.758 1.043l8.75 7a4.725 4.725 0 0 1 1.78 3.702V25.25l-.007.234a4.746 4.746 0 0 1-1.384 3.116l-.17.162a4.746 4.746 0 0 1-3.18 1.227v-.2a4.546 4.546 0 0 0 4.54-4.539V14.93Zm2.587 10.321a7.137 7.137 0 0 1-7.127 7.127H7.75a7.137 7.137 0 0 1-7.118-6.773l-.01-.354V14.93a7.094 7.094 0 0 1 2.675-5.566l8.75-6.999.239-.185a7.096 7.096 0 0 1 8.668.185l8.749 7 .306.258a7.099 7.099 0 0 1 2.367 5.309V25.25Z"/></symbol><symbol fill="currentColor" viewBox="0 0 32 32" id="svg-home-active"><path d="m28.755 8.528-8.75-7a6.892 6.892 0 0 0-8.655 0l-8.75 7A6.895 6.895 0 0 0 0 13.937v10.322a6.936 6.936 0 0 0 6.927 6.927h17.5a6.935 6.935 0 0 0 6.927-6.927V13.937a6.895 6.895 0 0 0-2.599-5.409Z"/><path d="M21.777 25.09h-11.2c-.371 0-.727-.077-.99-.213-.262-.137-.41-.322-.41-.515s.148-.378.41-.515c.263-.137.619-.213.99-.213h11.2c.371 0 .728.076.99.213.263.137.41.322.41.515s-.147.378-.41.515c-.262.136-.619.213-.99.213Z"/><path d="M24.427 31.186h-17.5A6.936 6.936 0 0 1 0 24.26V13.94a6.892 6.892 0 0 1 2.599-5.41l8.75-7a6.895 6.895 0 0 1 8.656 0l8.75 7a6.898 6.898 0 0 1 2.6 5.411v10.32a6.936 6.936 0 0 1-6.928 6.926Zm-20.46-20.95a4.724 4.724 0 0 0-1.78 3.703v10.32A4.746 4.746 0 0 0 6.928 29h17.5a4.745 4.745 0 0 0 4.74-4.74V13.94a4.723 4.723 0 0 0-1.78-3.703l-8.75-7a4.71 4.71 0 0 0-5.92 0l-8.75 7Z"/></symbol><symbol viewBox="0 0 56 56" fill="none" id="svg-logo"><rect width="56" height="56" rx="8" fill="#8D0000"/><path d="M12.4716 21.3636V33H10.0114V21.3636H12.4716ZM14.4503 33V24.2727H16.7571V25.8125H16.8594C17.0412 25.3011 17.3442 24.8977 17.7685 24.6023C18.1927 24.3068 18.7003 24.1591 19.2912 24.1591C19.8897 24.1591 20.3991 24.3087 20.8196 24.608C21.2401 24.9034 21.5204 25.3049 21.6605 25.8125H21.7514C21.9295 25.3125 22.2514 24.9129 22.7173 24.6136C23.187 24.3106 23.742 24.1591 24.3821 24.1591C25.1965 24.1591 25.8575 24.4186 26.3651 24.9375C26.8764 25.4527 27.1321 26.1837 27.1321 27.1307V33H24.7173V27.608C24.7173 27.1231 24.5885 26.7595 24.331 26.517C24.0734 26.2746 23.7514 26.1534 23.3651 26.1534C22.9257 26.1534 22.5829 26.2936 22.3366 26.5739C22.0904 26.8504 21.9673 27.2159 21.9673 27.6705V33H19.6207V27.5568C19.6207 27.1288 19.4976 26.7879 19.2514 26.5341C19.009 26.2803 18.6889 26.1534 18.2912 26.1534C18.0223 26.1534 17.7798 26.2216 17.5639 26.358C17.3518 26.4905 17.1832 26.678 17.0582 26.9205C16.9332 27.1591 16.8707 27.4394 16.8707 27.7614V33H14.4503ZM31.4645 27.9545V33H29.044V21.3636H31.3963V25.8125H31.4986C31.6955 25.2973 32.0137 24.8939 32.4531 24.6023C32.8925 24.3068 33.4437 24.1591 34.1065 24.1591C34.7126 24.1591 35.241 24.2917 35.6918 24.5568C36.1463 24.8182 36.4986 25.1951 36.7486 25.6875C37.0024 26.1761 37.1274 26.7614 37.1236 27.4432V33H34.7031V27.875C34.7069 27.3371 34.5705 26.9186 34.294 26.6193C34.0213 26.3201 33.6387 26.1705 33.1463 26.1705C32.8168 26.1705 32.5251 26.2405 32.2713 26.3807C32.0213 26.5208 31.8243 26.7254 31.6804 26.9943C31.5402 27.2595 31.4683 27.5795 31.4645 27.9545ZM42.9716 33.1705C42.089 33.1705 41.3258 32.983 40.6818 32.608C40.0417 32.2292 39.5473 31.7027 39.1989 31.0284C38.8504 30.3504 38.6761 29.5644 38.6761 28.6705C38.6761 27.7689 38.8504 26.9811 39.1989 26.3068C39.5473 25.6288 40.0417 25.1023 40.6818 24.7273C41.3258 24.3485 42.089 24.1591 42.9716 24.1591C43.8542 24.1591 44.6155 24.3485 45.2557 24.7273C45.8996 25.1023 46.3958 25.6288 46.7443 26.3068C47.0928 26.9811 47.267 27.7689 47.267 28.6705C47.267 29.5644 47.0928 30.3504 46.7443 31.0284C46.3958 31.7027 45.8996 32.2292 45.2557 32.608C44.6155 32.983 43.8542 33.1705 42.9716 33.1705ZM42.983 31.2955C43.3845 31.2955 43.7197 31.1818 43.9886 30.9545C44.2576 30.7235 44.4602 30.4091 44.5966 30.0114C44.7367 29.6136 44.8068 29.161 44.8068 28.6534C44.8068 28.1458 44.7367 27.6932 44.5966 27.2955C44.4602 26.8977 44.2576 26.5833 43.9886 26.3523C43.7197 26.1212 43.3845 26.0057 42.983 26.0057C42.5777 26.0057 42.2367 26.1212 41.9602 26.3523C41.6875 26.5833 41.4811 26.8977 41.3409 27.2955C41.2045 27.6932 41.1364 28.1458 41.1364 28.6534C41.1364 29.161 41.2045 29.6136 41.3409 30.0114C41.4811 30.4091 41.6875 30.7235 41.9602 30.9545C42.2367 31.1818 42.5777 31.2955 42.983 31.2955Z" fill="#F5F2EC"/></symbol><symbol fill="currentColor" viewBox="0 0 28 29" id="svg-notification"><path d="M14 .438A10.326 10.326 0 0 0 3.687 10.75v7.106a5.597 5.597 0 0 0-2.88 3.253 2.814 2.814 0 0 0 2.67 3.703h5.929a4.688 4.688 0 0 0 9.187 0h5.93a2.814 2.814 0 0 0 2.67-3.703 5.593 5.593 0 0 0-2.88-3.253V10.75A10.326 10.326 0 0 0 14 .437Zm0 26.25a2.816 2.816 0 0 1-2.652-1.875h5.303A2.816 2.816 0 0 1 14 26.688Zm11.413-4.984a.937.937 0 0 1-.89 1.233H3.476a.937.937 0 0 1-.89-1.233 3.696 3.696 0 0 1 2.332-2.329.937.937 0 0 0 .643-.89V10.75a8.437 8.437 0 0 1 16.875 0v7.736a.938.938 0 0 0 .643.89 3.695 3.695 0 0 1 2.333 2.326v.002Z"/></symbol><symbol fill="currentColor" viewBox="0 0 16 16" id="svg-pen"><g clip-path="url(#oa)"><path d="M14 3.213A1.215 1.215 0 0 0 12.789 2c-.282 0-.553.098-.769.274l-.089.08-8.898 8.9a.667.667 0 0 0-.166.277h-.001l-.698 2.301 2.304-.698.076-.029a.667.667 0 0 0 .2-.136l8.898-8.899.08-.09c.177-.215.275-.486.276-.767Zm1.334 0c0 .59-.206 1.16-.578 1.613l-.168.187-8.899 8.9a2.002 2.002 0 0 1-.83.497l-2.902.88h-.002a.998.998 0 0 1-1.246-1.244v-.002l.881-2.901v-.002l.04-.117a2 2 0 0 1 .376-.625l.084-.088 8.898-8.899.186-.169a2.546 2.546 0 0 1 4.16 1.97Z"/></g><defs><clipPath id="oa"><path d="M0 0h16v16H0z"/></clipPath></defs></symbol><symbol fill="currentColor" viewBox="0 0 20 20" id="svg-pic"><path d="M16.667 4.167a.834.834 0 0 0-.834-.834H4.167a.834.834 0 0 0-.834.834v11.666c0 .46.374.834.834.834h11.666c.46 0 .834-.374.834-.834V4.167Zm1.666 11.666a2.5 2.5 0 0 1-2.5 2.5H4.167a2.5 2.5 0 0 1-2.5-2.5V4.167a2.5 2.5 0 0 1 2.5-2.5h11.666a2.5 2.5 0 0 1 2.5 2.5v11.666Z"/><path d="M8.333 7.5a.834.834 0 1 0-1.668 0 .834.834 0 0 0 1.668 0ZM10 7.5a2.5 2.5 0 1 1-5.001-.001A2.5 2.5 0 0 1 10 7.5Zm3.75 1.107a2.5 2.5 0 0 1 1.768.732l2.57 2.572.058.063a.833.833 0 0 1-1.172 1.172l-.063-.057-2.572-2.571a.834.834 0 0 0-1.117-.055l-.06.055-7.573 7.57a.832.832 0 1 1-1.178-1.177l7.571-7.572.184-.166a2.5 2.5 0 0 1 1.584-.566Z"/></symbol><symbol fill="currentColor" viewBox="0 0 22 21" id="svg-plus"><path d="M20.333 9.562h-8.396V1.167a.938.938 0 0 0-1.875 0v8.395H1.667a.938.938 0 1 0 0 1.875h8.395v8.396a.937.937 0 1 0 1.875 0v-8.396h8.396a.937.937 0 1 0 0-1.875Z"/></symbol><symbol fill="currentColor" viewBox="0 0 32 32" id="svg-public"><path d="M25.862 0H5.452A5.451 5.451 0 0 0 0 5.451V25.8a5.451 5.451 0 0 0 5.451 5.451H25.8a5.45 5.45 0 0 0 5.451-5.451V5.388A5.383 5.383 0 0 0 25.862 0Zm2.853 25.799a2.908 2.908 0 0 1-2.916 2.916H5.45a2.908 2.908 0 0 1-2.915-2.916V5.388A2.908 2.908 0 0 1 5.45 2.472H25.8a2.908 2.908 0 0 1 2.916 2.916v20.41Z"/><g clip-path="url(#ra)"><path d="M9.774 11.553h12.562c1.433 0 1.433-2.553 0-2.553H9.774c-1.432 0-1.432 2.553 0 2.553Zm15.152 2.553H7.074c-1.432 0-1.432 2.554 0 2.554h17.797c1.487 0 1.487-2.554.055-2.554Zm0 5.107H7.129c-1.432 0-1.432 2.553 0 2.553h17.797c1.432 0 1.432-2.553 0-2.553Zm0 5.234H7.129c-1.432 0-1.432 2.553 0 2.553h17.797c1.432 0 1.432-2.553 0-2.553Z"/></g><defs><clipPath id="ra"><path d="M4 9h23v13H4z"/></clipPath></defs></symbol><symbol fill="currentColor" viewBox="0 0 32 32" id="svg-public-active"><path d="M2 2h27v27H2V2Z"/><path d="M25.862 0H5.452A5.451 5.451 0 0 0 0 5.451V25.8a5.451 5.451 0 0 0 5.451 5.451H25.8a5.45 5.45 0 0 0 5.451-5.451V5.388A5.383 5.383 0 0 0 25.862 0Zm2.853 25.799a2.908 2.908 0 0 1-2.916 2.916H5.45a2.908 2.908 0 0 1-2.915-2.916V5.388A2.908 2.908 0 0 1 5.45 2.472H25.8a2.908 2.908 0 0 1 2.916 2.916v20.41Z"/><g clip-path="url(#sa)"><path d="M9.774 11.553h12.562c1.433 0 1.433-2.553 0-2.553H9.774c-1.432 0-1.432 2.553 0 2.553Zm15.152 2.553H7.074c-1.432 0-1.432 2.554 0 2.554h17.797c1.487 0 1.487-2.554.055-2.554Zm0 5.107H7.129c-1.432 0-1.432 2.553 0 2.553h17.797c1.432 0 1.432-2.553 0-2.553Zm0 5.234H7.129c-1.432 0-1.432 2.553 0 2.553h17.797c1.432 0 1.432-2.553 0-2.553Z"/></g><defs><clipPath id="sa"><path d="M4 9h23v13H4z"/></clipPath></defs></symbol><symbol fill="currentColor" viewBox="0 0 20 21" id="svg-public2"><path d="M16.552.125H3.489A3.489 3.489 0 0 0 0 3.614v13.022a3.489 3.489 0 0 0 3.489 3.489H16.51A3.489 3.489 0 0 0 20 16.636V3.573A3.445 3.445 0 0 0 16.552.125Zm1.825 16.511a1.861 1.861 0 0 1-1.866 1.866H3.49a1.861 1.861 0 0 1-1.866-1.866V3.573A1.86 1.86 0 0 1 3.49 1.707h13.02c1.014 0 1.866.812 1.866 1.866v13.063Z"/><path d="M5.395 6.062h9.25c1.054 0 1.054-1.623 0-1.623h-9.25c-1.055 0-1.055 1.623 0 1.623Zm11.156 1.623H3.407c-1.054 0-1.054 1.623 0 1.623h13.104c1.095 0 1.095-1.623.04-1.623Zm0 3.245H3.448c-1.055 0-1.055 1.623 0 1.623H16.55c1.055 0 1.055-1.623 0-1.623Zm0 3.327H3.448c-1.055 0-1.055 1.623 0 1.623H16.55c1.055 0 1.055-1.623 0-1.623Z"/></symbol><symbol fill="currentColor" viewBox="0 0 16 16" id="svg-remove"><path d="m14 3.333.135.014a.667.667 0 0 1 0 1.306L14 4.667H2a.667.667 0 0 1 0-1.334h12Z"/><path d="M2.666 13.333V4A.667.667 0 0 1 4 4v9.333c0 .116.064.289.22.445.157.157.33.222.446.222h6.667c.117 0 .289-.065.445-.222.157-.156.222-.329.222-.445V4a.667.667 0 1 1 1.333 0v9.333c0 .55-.269 1.045-.612 1.389-.344.343-.838.611-1.388.611H4.666c-.55 0-1.044-.268-1.388-.611-.343-.344-.612-.839-.612-1.389Z"/><path d="M10 4V2.666c0-.116-.065-.289-.222-.445C9.622 2.064 9.45 2 9.333 2H6.666c-.116 0-.289.064-.445.22-.157.157-.22.33-.221.446V4a.667.667 0 0 1-1.334 0V2.666c0-.55.269-1.044.612-1.388.344-.343.838-.612 1.388-.612h2.667c.55 0 1.044.269 1.388.612.343.344.612.838.612 1.388V4A.667.667 0 0 1 10 4Zm-4 7.333v-4a.667.667 0 0 1 1.334 0v4a.667.667 0 0 1-1.334 0Zm2.666 0v-4a.667.667 0 0 1 1.334 0v4a.667.667 0 0 1-1.334 0Z"/></symbol><symbol fill="currentColor" viewBox="0 0 20 18" id="svg-reset"><path d="M2.067 9.657a.75.75 0 0 1 .649-.02l3.97 1.766a.75.75 0 1 1-.609 1.37L3.751 11.74c1.08 2.356 3.52 4.011 6.367 4.011 3.154 0 5.802-2.029 6.665-4.79a.751.751 0 0 1 1.433.448c-1.06 3.392-4.294 5.842-8.098 5.842-3.218 0-6.027-1.754-7.458-4.347l-.395 1.98a.75.75 0 0 1-1.471-.295l.882-4.411.735.146h.001l-.736-.146a.752.752 0 0 1 .391-.52Zm.867 2.11.01-.003-.06.024.05-.021Zm14.684-4.091.736.147a.751.751 0 0 1-1.04.54l-3.971-1.766a.75.75 0 1 1 .61-1.37l2.324 1.033c-1.08-2.355-3.518-4.01-6.365-4.01-3.153 0-5.803 2.029-6.666 4.79a.75.75 0 0 1-1.431-.448C2.875 3.2 6.108.75 9.912.75c3.218 0 6.026 1.752 7.457 4.345l.396-1.978a.75.75 0 0 1 1.47.295l-.881 4.411-.736-.147Zm-14.66 4.082-.074.027.05-.018.023-.01Z"/></symbol><symbol fill="currentColor" viewBox="0 0 20 21" id="svg-search"><path d="m19.756 19.077-5.688-5.687a7.878 7.878 0 0 0 1.765-4.973C15.833 4.052 12.281.5 7.917.5 3.552.5 0 4.052 0 8.417c0 4.364 3.552 7.916 7.917 7.916a7.878 7.878 0 0 0 4.973-1.765l5.687 5.688a.831.831 0 0 0 1.179 0 .832.832 0 0 0 0-1.179Zm-11.84-4.41a6.256 6.256 0 0 1-6.25-6.25 6.256 6.256 0 0 1 6.25-6.25 6.256 6.256 0 0 1 6.25 6.25 6.256 6.256 0 0 1-6.25 6.25Z"/></symbol><symbol fill="currentColor" viewBox="0 0 19 18" id="svg-share"><path d="M.75 13.16V9.991a.75.75 0 0 1 1.5 0v3.167a2.603 2.603 0 0 0 2.602 2.603h9.128a2.602 2.602 0 0 0 2.602-2.603V9.992a.75.75 0 0 1 1.5 0v3.167a4.102 4.102 0 0 1-4.102 4.103H4.852A4.103 4.103 0 0 1 .75 13.159Zm7.717-1.185V2.923L6.575 4.567a.75.75 0 0 1-.984-1.133L8.725.714l.491.566h.001L8.725.713a.75.75 0 0 1 .985.001l3.116 2.72a.75.75 0 1 1-.987 1.13L9.967 2.93v9.045a.75.75 0 0 1-1.5 0Z"/></symbol><symbol fill="currentColor" viewBox="0 0 15 16" id="svg-star"><path d="M5.88 1.723a1.684 1.684 0 0 1 3.24 0l.603 1.928c.228.73.882 1.223 1.62 1.223h1.95c1.65 0 2.337 2.194 1.002 3.202l-1.579 1.192a1.81 1.81 0 0 0-.618 1.979l.602 1.928c.51 1.63-1.286 2.987-2.62 1.979L8.5 13.962a1.652 1.652 0 0 0-2.002 0L4.92 15.154c-1.335 1.008-3.131-.348-2.621-1.979l.602-1.928a1.81 1.81 0 0 0-.618-1.98L.705 8.078C-.629 7.067.057 4.873 1.707 4.873h1.95c.738 0 1.392-.494 1.62-1.223l.603-1.928Z"/></symbol><symbol fill="currentColor" viewBox="0 0 20 20" id="svg-video"><path d="M18.077 5.318c.108.014.214.043.315.084l.148.073.136.09c.087.067.165.144.232.23l.09.138.074.146c.063.152.095.315.094.48v6.83l-.01.169a1.25 1.25 0 0 1-1.785.955l-.147-.084-4.353-2.903-.068-.05a.833.833 0 0 1 .92-1.38l.072.044 3.705 2.47V7.282L13.753 9.47a.833.833 0 1 1-.84-1.44l4.373-2.551.148-.074a1.25 1.25 0 0 1 .479-.096l.164.01Z"/><path d="M12.5 6.667a.834.834 0 0 0-.833-.834H3.334a.834.834 0 0 0-.834.834v6.666c0 .46.374.834.834.834h8.333c.46 0 .833-.374.833-.834V6.667Zm1.667 6.666a2.5 2.5 0 0 1-2.5 2.5H3.334a2.5 2.5 0 0 1-2.5-2.5V6.667a2.5 2.5 0 0 1 2.5-2.5h8.333a2.5 2.5 0 0 1 2.5 2.5v6.666Z"/></symbol></svg>