<svg width="56" height="56" viewBox="0 0 56 56" fill="none" xmlns="http://www.w3.org/2000/svg">
<rect width="56" height="56" rx="8" fill="#8D0000"/>
<path d="M12.4716 21.3636V33H10.0114V21.3636H12.4716ZM14.4503 33V24.2727H16.7571V25.8125H16.8594C17.0412 25.3011 17.3442 24.8977 17.7685 24.6023C18.1927 24.3068 18.7003 24.1591 19.2912 24.1591C19.8897 24.1591 20.3991 24.3087 20.8196 24.608C21.2401 24.9034 21.5204 25.3049 21.6605 25.8125H21.7514C21.9295 25.3125 22.2514 24.9129 22.7173 24.6136C23.187 24.3106 23.742 24.1591 24.3821 24.1591C25.1965 24.1591 25.8575 24.4186 26.3651 24.9375C26.8764 25.4527 27.1321 26.1837 27.1321 27.1307V33H24.7173V27.608C24.7173 27.1231 24.5885 26.7595 24.331 26.517C24.0734 26.2746 23.7514 26.1534 23.3651 26.1534C22.9257 26.1534 22.5829 26.2936 22.3366 26.5739C22.0904 26.8504 21.9673 27.2159 21.9673 27.6705V33H19.6207V27.5568C19.6207 27.1288 19.4976 26.7879 19.2514 26.5341C19.009 26.2803 18.6889 26.1534 18.2912 26.1534C18.0223 26.1534 17.7798 26.2216 17.5639 26.358C17.3518 26.4905 17.1832 26.678 17.0582 26.9205C16.9332 27.1591 16.8707 27.4394 16.8707 27.7614V33H14.4503ZM31.4645 27.9545V33H29.044V21.3636H31.3963V25.8125H31.4986C31.6955 25.2973 32.0137 24.8939 32.4531 24.6023C32.8925 24.3068 33.4437 24.1591 34.1065 24.1591C34.7126 24.1591 35.241 24.2917 35.6918 24.5568C36.1463 24.8182 36.4986 25.1951 36.7486 25.6875C37.0024 26.1761 37.1274 26.7614 37.1236 27.4432V33H34.7031V27.875C34.7069 27.3371 34.5705 26.9186 34.294 26.6193C34.0213 26.3201 33.6387 26.1705 33.1463 26.1705C32.8168 26.1705 32.5251 26.2405 32.2713 26.3807C32.0213 26.5208 31.8243 26.7254 31.6804 26.9943C31.5402 27.2595 31.4683 27.5795 31.4645 27.9545ZM42.9716 33.1705C42.089 33.1705 41.3258 32.983 40.6818 32.608C40.0417 32.2292 39.5473 31.7027 39.1989 31.0284C38.8504 30.3504 38.6761 29.5644 38.6761 28.6705C38.6761 27.7689 38.8504 26.9811 39.1989 26.3068C39.5473 25.6288 40.0417 25.1023 40.6818 24.7273C41.3258 24.3485 42.089 24.1591 42.9716 24.1591C43.8542 24.1591 44.6155 24.3485 45.2557 24.7273C45.8996 25.1023 46.3958 25.6288 46.7443 26.3068C47.0928 26.9811 47.267 27.7689 47.267 28.6705C47.267 29.5644 47.0928 30.3504 46.7443 31.0284C46.3958 31.7027 45.8996 32.2292 45.2557 32.608C44.6155 32.983 43.8542 33.1705 42.9716 33.1705ZM42.983 31.2955C43.3845 31.2955 43.7197 31.1818 43.9886 30.9545C44.2576 30.7235 44.4602 30.4091 44.5966 30.0114C44.7367 29.6136 44.8068 29.161 44.8068 28.6534C44.8068 28.1458 44.7367 27.6932 44.5966 27.2955C44.4602 26.8977 44.2576 26.5833 43.9886 26.3523C43.7197 26.1212 43.3845 26.0057 42.983 26.0057C42.5777 26.0057 42.2367 26.1212 41.9602 26.3523C41.6875 26.5833 41.4811 26.8977 41.3409 27.2955C41.2045 27.6932 41.1364 28.1458 41.1364 28.6534C41.1364 29.161 41.2045 29.6136 41.3409 30.0114C41.4811 30.4091 41.6875 30.7235 41.9602 30.9545C42.2367 31.1818 42.5777 31.2955 42.983 31.2955Z" fill="#F5F2EC"/>
</svg>
