<svg xmlns="http://www.w3.org/2000/svg" width="16" height="16" fill="currentColor" viewBox="0 0 16 16">
  <g clip-path="url(#a)">
    <path d="M11.33.711a4 4 0 0 1 2.842 6.78l-2.007 2.007a4 4 0 0 1-5.899-.263l-.134-.168-.069-.117a.667.667 0 0 1 1.046-.782l.092.1.089.112a2.667 2.667 0 0 0 3.932.176l1.992-1.992.171-.197a2.666 2.666 0 0 0-3.942-3.574l-1.14 1.134a.667.667 0 0 1-.94-.946L8.51 1.84l.007-.007.144-.133a4.002 4.002 0 0 1 2.67-.99Z"/>
    <path d="M6.95 5.34a4 4 0 0 1 2.917 1.594.666.666 0 0 1-1.067.799 2.67 2.67 0 0 0-3.918-.387l-.104.099-2 2a2.666 2.666 0 0 0 3.779 3.762l1.132-1.131.104-.086a.668.668 0 0 1 .839 1.028l-1.14 1.14-.008.008A4 4 0 0 1 1.827 8.51l.008-.009 2-2a4.001 4.001 0 0 1 3.115-1.16Z"/>
  </g>
  <defs>
    <clipPath id="a">
      <path d="M0 0h16v16H0z"/>
    </clipPath>
  </defs>
</svg>
