<svg xmlns="http://www.w3.org/2000/svg" width="28" height="29" fill="currentColor" viewBox="0 0 28 29">
  <path d="M14 .438A10.326 10.326 0 0 0 3.687 10.75v7.106a5.597 5.597 0 0 0-2.88 3.253 2.814 2.814 0 0 0 2.67 3.703h5.929a4.688 4.688 0 0 0 9.187 0h5.93a2.814 2.814 0 0 0 2.67-3.703 5.593 5.593 0 0 0-2.88-3.253V10.75A10.326 10.326 0 0 0 14 .437Zm0 26.25a2.816 2.816 0 0 1-2.652-1.875h5.303A2.816 2.816 0 0 1 14 26.688Zm11.413-4.984a.937.937 0 0 1-.89 1.233H3.476a.937.937 0 0 1-.89-1.233 3.696 3.696 0 0 1 2.332-2.329.937.937 0 0 0 .643-.89V10.75a8.437 8.437 0 0 1 16.875 0v7.736a.938.938 0 0 0 .643.89 3.695 3.695 0 0 1 2.333 2.326v.002Z"/>
</svg>
