<svg xmlns="http://www.w3.org/2000/svg" width="16" height="16" fill="currentColor" viewBox="0 0 16 16">
  <g clip-path="url(#a)">
    <path d="M14 3.213A1.215 1.215 0 0 0 12.789 2c-.282 0-.553.098-.769.274l-.089.08-8.898 8.9a.667.667 0 0 0-.166.277h-.001l-.698 2.301 2.304-.698.076-.029a.667.667 0 0 0 .2-.136l8.898-8.899.08-.09c.177-.215.275-.486.276-.767Zm1.334 0c0 .59-.206 1.16-.578 1.613l-.168.187-8.899 8.9a2.002 2.002 0 0 1-.83.497l-2.902.88h-.002a.998.998 0 0 1-1.246-1.244v-.002l.881-2.901v-.002l.04-.117a2 2 0 0 1 .376-.625l.084-.088 8.898-8.899.186-.169a2.546 2.546 0 0 1 4.16 1.97Z"/>
  </g>
  <defs>
    <clipPath id="a">
      <path d="M0 0h16v16H0z"/>
    </clipPath>
  </defs>
</svg>
