<svg xmlns="http://www.w3.org/2000/svg" width="20" height="21" fill="currentColor" viewBox="0 0 20 21">
  <path d="M6.913 2.314a.649.649 0 0 1 0 1.297H2.49a1.346 1.346 0 0 0-1.344 1.344v12.98l.007.137c.07.678.641 1.206 1.337 1.207h13.977l.138-.006a1.346 1.346 0 0 0 1.206-1.337v-4.423a.648.648 0 1 1 1.296 0v4.423l-.013.27a2.645 2.645 0 0 1-2.358 2.357l-.27.013H2.49a2.644 2.644 0 0 1-2.64-2.64V4.956l.014-.27A2.644 2.644 0 0 1 2.49 2.314h4.423Z"/>
  <path d="M15.665.913a2.392 2.392 0 0 1 3.201.164l.584.584.164.182c.765.94.71 2.324-.164 3.2l-8.886 8.887a.647.647 0 0 1-.207.14l-.079.027-4.218 1.169a.65.65 0 0 1-.254.018l-.084-.016a.647.647 0 0 1-.435-.381l-.027-.081a.648.648 0 0 1 .003-.338l1.168-4.219.027-.08a.65.65 0 0 1 .14-.206l8.885-8.886.182-.164ZM6.816 13.71l2.09-.58-1.51-1.509-.58 2.089ZM8 10.393l2.134 2.133 7.06-7.061-2.132-2.133L8 10.392Zm9.95-8.4a1.098 1.098 0 0 0-1.467-.075l-.083.075-.422.422 2.133 2.134.423-.422.074-.083c.35-.43.326-1.064-.074-1.466l-.585-.585Z"/>
</svg>
