<svg xmlns="http://www.w3.org/2000/svg" width="15" height="16" fill="currentColor" viewBox="0 0 15 16">
  <path d="M5.88 1.723a1.684 1.684 0 0 1 3.24 0l.603 1.928c.228.73.882 1.223 1.62 1.223h1.95c1.65 0 2.337 2.194 1.002 3.202l-1.579 1.192a1.81 1.81 0 0 0-.618 1.979l.602 1.928c.51 1.63-1.286 2.987-2.62 1.979L8.5 13.962a1.652 1.652 0 0 0-2.002 0L4.92 15.154c-1.335 1.008-3.131-.348-2.621-1.979l.602-1.928a1.81 1.81 0 0 0-.618-1.98L.705 8.078C-.629 7.067.057 4.873 1.707 4.873h1.95c.738 0 1.392-.494 1.62-1.223l.603-1.928Z"/>
</svg>
