<svg width="15" height="11" viewBox="0 0 15 11" fill="none" xmlns="http://www.w3.org/2000/svg">
<path d="M1.4354 10.2796C1.3498 10.5207 1.12166 10.6818 0.865806 10.6818C0.445561 10.6818 0.153578 10.2636 0.298431 9.86907L3.51929 1.09737C3.65106 0.738517 3.99272 0.5 4.375 0.5C4.75728 0.5 5.09894 0.738517 5.23071 1.09737L8.45157 9.86907C8.59642 10.2636 8.30444 10.6818 7.88419 10.6818C7.62834 10.6818 7.4002 10.5207 7.3146 10.2796L4.42808 2.14828C4.4201 2.12581 4.39884 2.1108 4.375 2.1108C4.35116 2.1108 4.3299 2.12581 4.32192 2.14828L1.4354 10.2796ZM1.76989 7.25142C1.76989 6.94939 2.01473 6.70455 2.31676 6.70455H6.43324C6.73527 6.70455 6.98011 6.94939 6.98011 7.25142C6.98011 7.55345 6.73527 7.7983 6.43324 7.7983H2.31676C2.01473 7.7983 1.76989 7.55345 1.76989 7.25142Z" fill="#353535"/>
<path d="M10.7635 0.5C11.0875 0.5 11.3501 0.762651 11.3501 1.08665V10.0952C11.3501 10.4192 11.0875 10.6818 10.7635 10.6818C10.4395 10.6818 10.1768 10.4192 10.1768 10.0952V1.08665C10.1768 0.762651 10.4395 0.5 10.7635 0.5Z" fill="#353535"/>
<path d="M14.0858 0.5C14.4098 0.5 14.6724 0.762651 14.6724 1.08665V10.0952C14.6724 10.4192 14.4098 10.6818 14.0858 10.6818C13.7618 10.6818 13.4991 10.4192 13.4991 10.0952V1.08665C13.4991 0.762651 13.7618 0.5 14.0858 0.5Z" fill="#353535"/>
</svg>
