<svg width="24" height="24" viewBox="0 0 24 24" fill="none" xmlns="http://www.w3.org/2000/svg">
<path d="M11.9994 12.9998V20.9998M11.9994 12.9998L7.99936 16.9998M11.9994 12.9998L15.9994 16.9998M3.99936 14.8988C3.2564 14.1397 2.69593 13.2215 2.3604 12.2137C2.02486 11.2059 1.92307 10.135 2.06272 9.08208C2.20238 8.02913 2.57982 7.02178 3.16646 6.13631C3.7531 5.25085 4.53355 4.51049 5.44869 3.97133C6.36384 3.43216 7.38969 3.10833 8.44853 3.02435C9.50737 2.94038 10.5714 3.09846 11.5601 3.48664C12.5488 3.87481 13.4362 4.48289 14.1551 5.26481C14.874 6.04674 15.4055 6.98201 15.7094 7.99978H17.4994C18.4649 7.99967 19.4048 8.3101 20.1804 8.88522C20.9559 9.46033 21.5259 10.2696 21.8061 11.1936C22.0864 12.1175 22.062 13.1071 21.7367 14.0162C21.4113 14.9252 20.8022 15.7055 19.9994 16.2418" stroke="#353535" stroke-width="1.5" stroke-linecap="round" stroke-linejoin="round"/>
</svg>
