<svg width="20" height="20" viewBox="0 0 20 20" fill="none" xmlns="http://www.w3.org/2000/svg">
<path d="M10.1328 4.47266C13.2399 4.47271 16.2756 6.12765 19.1602 9.54785L19.4385 9.88477C19.4891 9.94987 19.49 10.0393 19.4424 10.1045C19.3586 10.2179 18.3423 11.5764 16.6514 12.9072C14.9452 14.2501 12.6001 15.5273 9.86328 15.5273C6.65649 15.5273 3.52634 13.7641 0.563477 10.1133C0.511081 10.048 0.509453 9.95757 0.557617 9.8916L0.556641 9.89062C0.6307 9.78961 1.64784 8.42718 3.34473 7.0918C5.05044 5.74948 7.39594 4.47266 10.1328 4.47266ZM10.1328 4.82812C7.88231 4.82812 5.90502 5.74097 4.37793 6.78418C2.84914 7.82858 1.73614 9.02714 1.20215 9.6582L0.915039 9.99707L1.2041 10.335C3.89637 13.4857 6.80426 15.1719 9.86328 15.1719C12.1138 15.1719 14.0911 14.259 15.6182 13.2158C17.147 12.1714 18.26 10.9728 18.7939 10.3418L19.0811 10.002L18.792 9.66504C16.0998 6.51439 13.1918 4.82818 10.1328 4.82812Z" fill="#C5C5C5" stroke="#C5C5C5" stroke-width="1.04504"/>
<path d="M9.99796 6.4444C8.03851 6.4444 6.44238 8.04053 6.44238 9.99997C6.44238 11.9594 8.03851 13.5555 9.99796 13.5555C11.9574 13.5555 13.5535 11.9594 13.5535 9.99997C13.5535 8.04053 11.9574 6.4444 9.99796 6.4444ZM9.99796 12.1554C8.81004 12.1554 7.84257 11.1879 7.84257 9.99997C7.84257 8.81206 8.81004 7.84458 9.99796 7.84458C11.1859 7.84458 12.1533 8.81206 12.1533 9.99997C12.1533 11.1879 11.1859 12.1554 9.99796 12.1554Z" fill="#C5C5C5"/>
</svg>
