<svg width="20" height="20" viewBox="0 0 20 20" fill="none" xmlns="http://www.w3.org/2000/svg">
<path d="M3 11.5556H5.33333C5.74589 11.5556 6.14155 11.7194 6.43328 12.0112C6.725 12.3029 6.88889 12.6986 6.88889 13.1111V15.4444C6.88889 15.857 6.725 16.2527 6.43328 16.5444C6.14155 16.8361 5.74589 17 5.33333 17H4.55556C4.143 17 3.74733 16.8361 3.45561 16.5444C3.16389 16.2527 3 15.857 3 15.4444V10C3 8.14348 3.7375 6.36301 5.05025 5.05025C6.36301 3.7375 8.14348 3 10 3C11.8565 3 13.637 3.7375 14.9497 5.05025C16.2625 6.36301 17 8.14348 17 10V15.4444C17 15.857 16.8361 16.2527 16.5444 16.5444C16.2527 16.8361 15.857 17 15.4444 17H14.6667C14.2541 17 13.8584 16.8361 13.5667 16.5444C13.275 16.2527 13.1111 15.857 13.1111 15.4444V13.1111C13.1111 12.6986 13.275 12.3029 13.5667 12.0112C13.8584 11.7194 14.2541 11.5556 14.6667 11.5556H17" stroke="#353535" stroke-linecap="round" stroke-linejoin="round"/>
</svg>
