<svg width="21" height="20" viewBox="0 0 21 20" fill="none" xmlns="http://www.w3.org/2000/svg">
<path d="M10.5 18L10.082 18.6221L10.5 18.9033L10.918 18.6221L10.5 18ZM10.5 18L10.9189 18.6221H10.9199C10.9206 18.6216 10.9217 18.6209 10.9229 18.6201C10.9252 18.6185 10.9284 18.6161 10.9326 18.6133C10.9412 18.6075 10.9536 18.5989 10.9697 18.5879C11.0025 18.5656 11.0511 18.5324 11.1123 18.4902C11.2347 18.4058 11.4104 18.2829 11.627 18.1289C12.06 17.8209 12.6574 17.3867 13.3125 16.8789C14.6065 15.8759 16.1871 14.5429 17.1582 13.3242C19.0662 10.9298 19.75 9.05517 19.75 6.60645C19.75 5.79443 19.5449 4.62817 18.9141 3.58203C18.2673 2.50967 17.1747 1.57379 15.4727 1.30762C13.7155 1.03296 12.377 1.77583 11.4639 2.66504C11.0749 3.04383 10.7565 3.45754 10.5 3.8457C10.2435 3.45754 9.92506 3.04383 9.53613 2.66504C8.62298 1.77582 7.28451 1.03295 5.52734 1.30762C3.82533 1.57379 2.73272 2.50967 2.08594 3.58203C1.45509 4.62817 1.25 5.79443 1.25 6.60645C1.25004 9.05517 1.9338 10.9298 3.8418 13.3242C4.81293 14.543 6.39343 15.8759 7.6875 16.8789C8.34264 17.3867 8.93996 17.8209 9.37305 18.1289C9.58958 18.2829 9.76529 18.4058 9.8877 18.4902C9.94892 18.5324 9.99748 18.5656 10.0303 18.5879C10.0464 18.5989 10.0588 18.6075 10.0674 18.6133C10.0717 18.6162 10.0758 18.6185 10.0781 18.6201C10.0791 18.6207 10.0795 18.6217 10.0801 18.6221H10.0811L10.5 18Z" fill="#CD5045" stroke="#CD5045" stroke-width="1.5"/>
</svg>
