<svg width="29" height="31" viewBox="0 0 29 31" fill="none" xmlns="http://www.w3.org/2000/svg">
<path d="M15.5 24L15.082 24.6221L15.5 24.9033L15.918 24.6221L15.5 24ZM15.5 24L15.9189 24.6221H15.9199C15.9206 24.6216 15.9217 24.6209 15.9229 24.6201C15.9252 24.6185 15.9284 24.6161 15.9326 24.6133C15.9412 24.6075 15.9536 24.5989 15.9697 24.5879C16.0025 24.5656 16.0511 24.5324 16.1123 24.4902C16.2347 24.4058 16.4104 24.2829 16.627 24.1289C17.06 23.8209 17.6574 23.3867 18.3125 22.8789C19.6065 21.8759 21.1871 20.5429 22.1582 19.3242C24.0662 16.9298 24.75 15.0552 24.75 12.6064C24.75 11.7944 24.5449 10.6282 23.9141 9.58203C23.2673 8.50967 22.1747 7.57379 20.4727 7.30762C18.7155 7.03296 17.377 7.77583 16.4639 8.66504C16.0749 9.04383 15.7565 9.45754 15.5 9.8457C15.2435 9.45754 14.9251 9.04383 14.5361 8.66504C13.623 7.77582 12.2845 7.03295 10.5273 7.30762C8.82533 7.57379 7.73272 8.50967 7.08594 9.58203C6.45509 10.6282 6.25 11.7944 6.25 12.6064C6.25004 15.0552 6.9338 16.9298 8.8418 19.3242C9.81293 20.543 11.3934 21.8759 12.6875 22.8789C13.3426 23.3867 13.94 23.8209 14.373 24.1289C14.5896 24.2829 14.7653 24.4058 14.8877 24.4902C14.9489 24.5324 14.9975 24.5656 15.0303 24.5879C15.0464 24.5989 15.0588 24.6075 15.0674 24.6133C15.0717 24.6162 15.0758 24.6185 15.0781 24.6201C15.0791 24.6207 15.0795 24.6217 15.0801 24.6221H15.0811L15.5 24Z" fill="#CD5045" stroke="#CD5045" stroke-width="1.5"/>
<path d="M3.5 4.5V6.5" stroke="#CD5045" stroke-linecap="round"/>
<path d="M3.5 8.5V10.5" stroke="#CD5045" stroke-linecap="round"/>
<path d="M4.5 7.5L6.5 7.5" stroke="#CD5045" stroke-linecap="round"/>
<path d="M0.5 7.5L2.5 7.5" stroke="#CD5045" stroke-linecap="round"/>
<path d="M21 24V26" stroke="#CD5045" stroke-linecap="round"/>
<path d="M21 28V30" stroke="#CD5045" stroke-linecap="round"/>
<path d="M22 27L24 27" stroke="#CD5045" stroke-linecap="round"/>
<path d="M18 27L20 27" stroke="#CD5045" stroke-linecap="round"/>
<path d="M25 1V3" stroke="#CD5045" stroke-linecap="round"/>
<path d="M25 5V7" stroke="#CD5045" stroke-linecap="round"/>
<path d="M26 4L28 4" stroke="#CD5045" stroke-linecap="round"/>
<path d="M22 4L24 4" stroke="#CD5045" stroke-linecap="round"/>
</svg>
