<svg width="19" height="19" viewBox="0 0 19 19" fill="none" xmlns="http://www.w3.org/2000/svg">
<path d="M4.91667 7.41667V17.4167M11.5833 3.98333L10.75 7.41667H15.6083C15.8671 7.41667 16.1223 7.47691 16.3537 7.59262C16.5851 7.70833 16.7864 7.87634 16.9417 8.08333C17.0969 8.29033 17.2018 8.53062 17.2481 8.78519C17.2944 9.03976 17.2808 9.30161 17.2083 9.55L15.2667 16.2167C15.1657 16.5629 14.9552 16.867 14.6667 17.0833C14.3782 17.2997 14.0273 17.4167 13.6667 17.4167H2.41667C1.97464 17.4167 1.55072 17.2411 1.23816 16.9285C0.925595 16.6159 0.75 16.192 0.75 15.75V9.08333C0.75 8.64131 0.925595 8.21738 1.23816 7.90482C1.55072 7.59226 1.97464 7.41667 2.41667 7.41667H4.71667C5.02674 7.4165 5.33061 7.32984 5.59413 7.16643C5.85765 7.00302 6.07035 6.76934 6.20833 6.49167L9.08333 0.75C9.47631 0.754866 9.86312 0.848474 10.2148 1.02383C10.5666 1.19919 10.8741 1.45176 11.1145 1.76267C11.3549 2.07358 11.5219 2.4348 11.6031 2.81933C11.6843 3.20387 11.6775 3.60178 11.5833 3.98333Z" stroke="#9E9E9E" stroke-width="1.5" stroke-linecap="round" stroke-linejoin="round"/>
</svg>
