<svg width="22" height="22" viewBox="0 0 22 22" fill="none" xmlns="http://www.w3.org/2000/svg">
<path fill-rule="evenodd" clip-rule="evenodd" d="M19.2384 3.51862C19.2384 2.97173 19.0211 2.44722 18.6345 2.06045C18.2479 1.67368 17.7234 1.4563 17.1765 1.45612H4.80498C4.53416 1.45612 4.26599 1.50947 4.0158 1.61313C3.7656 1.71679 3.53828 1.86872 3.34681 2.06025C3.15535 2.25178 3.00349 2.47915 2.89991 2.72938C2.79634 2.97961 2.74307 3.2478 2.74316 3.51862V18.6491C2.74316 19.1961 2.96046 19.7207 3.34726 20.1075C3.73405 20.4943 4.25866 20.7116 4.80566 20.7116H17.1765C17.7235 20.7116 18.2482 20.4943 18.6349 20.1075C19.0217 19.7207 19.239 19.1961 19.239 18.6491L19.2384 3.51862ZM17.8647 3.51862V18.6491C17.8647 19.0293 17.556 19.3373 17.1765 19.3373H4.80498C4.42548 19.3373 4.11748 19.0293 4.11748 18.6491V3.51862C4.11739 3.42827 4.1351 3.3388 4.16961 3.25531C4.20412 3.17182 4.25475 3.09595 4.3186 3.03204C4.38245 2.96812 4.45827 2.91742 4.54172 2.88283C4.62518 2.84823 4.71464 2.83043 4.80498 2.83043H17.1765C17.556 2.83043 17.864 3.13843 17.864 3.51862H17.8647Z" fill="#C5C5C5"/>
<path fill-rule="evenodd" clip-rule="evenodd" d="M6.1875 7.5625H15.8125C15.9948 7.5625 16.1697 7.49007 16.2986 7.36114C16.4276 7.2322 16.5 7.05734 16.5 6.875C16.5 6.69266 16.4276 6.5178 16.2986 6.38886C16.1697 6.25993 15.9948 6.1875 15.8125 6.1875H6.1875C6.00516 6.1875 5.8303 6.25993 5.70136 6.38886C5.57243 6.5178 5.5 6.69266 5.5 6.875C5.5 7.05734 5.57243 7.2322 5.70136 7.36114C5.8303 7.49007 6.00516 7.5625 6.1875 7.5625ZM6.1875 11.6875H15.8125C15.9948 11.6875 16.1697 11.6151 16.2986 11.4861C16.4276 11.3572 16.5 11.1823 16.5 11C16.5 10.8177 16.4276 10.6428 16.2986 10.5139C16.1697 10.3849 15.9948 10.3125 15.8125 10.3125H6.1875C6.00516 10.3125 5.8303 10.3849 5.70136 10.5139C5.57243 10.6428 5.5 10.8177 5.5 11C5.5 11.1823 5.57243 11.3572 5.70136 11.4861C5.8303 11.6151 6.00516 11.6875 6.1875 11.6875ZM6.1875 15.8125H15.8125C15.9948 15.8125 16.1697 15.7401 16.2986 15.6111C16.4276 15.4822 16.5 15.3073 16.5 15.125C16.5 14.9427 16.4276 14.7678 16.2986 14.6389C16.1697 14.5099 15.9948 14.4375 15.8125 14.4375H6.1875C6.00516 14.4375 5.8303 14.5099 5.70136 14.6389C5.57243 14.7678 5.5 14.9427 5.5 15.125C5.5 15.3073 5.57243 15.4822 5.70136 15.6111C5.8303 15.7401 6.00516 15.8125 6.1875 15.8125Z" fill="#C5C5C5"/>
</svg>
