<svg width="493" height="493" viewBox="0 0 493 493" fill="none" xmlns="http://www.w3.org/2000/svg">
<path d="M0 94.808C0 42.4469 42.4469 0 94.808 0H398.192C450.553 0 493 42.4469 493 94.808V398.192C493 450.553 450.553 493 398.192 493H94.808C42.4469 493 0 450.553 0 398.192V94.808Z" fill="#7B0000"/>
<path fill-rule="evenodd" clip-rule="evenodd" d="M272.026 171C276.017 171 279.252 174.235 279.252 178.226V217.979C283.503 215.52 288.439 214.112 293.703 214.112C309.585 214.112 322.473 226.923 322.603 242.774H322.605V259.152C322.605 267.134 329.076 273.604 337.058 273.604C344.852 273.603 351.171 267.285 351.171 259.49V251.734H351.196C351.182 251.311 351.171 250.885 351.171 250.458C351.171 230.385 367.444 214.112 387.517 214.112C407.589 214.112 423.861 230.385 423.861 250.458C423.861 270.531 407.589 286.803 387.517 286.803C376.695 286.803 366.979 282.071 360.321 274.566C355.231 281.957 346.71 286.803 337.058 286.803C321.175 286.803 308.286 273.992 308.157 258.141H308.154V241.763C308.154 233.782 301.684 227.312 293.703 227.312C285.722 227.312 279.252 233.782 279.252 241.763V258.141H279.249C279.12 273.992 266.232 286.803 250.35 286.803C234.467 286.803 221.578 273.992 221.449 258.141H221.446V241.763C221.446 233.782 214.976 227.312 206.995 227.312C199.014 227.312 192.544 233.782 192.544 241.763V266.089C192.544 266.24 192.537 266.391 192.527 266.54C192.113 278.147 182.575 287.429 170.867 287.429C159.162 287.429 149.624 278.152 149.205 266.549C149.196 266.397 149.19 266.243 149.19 266.089V241.763C149.19 233.782 142.719 227.312 134.738 227.312C126.757 227.312 120.287 233.782 120.287 241.763V258.237C120.287 258.35 120.283 258.461 120.278 258.572C119.921 274.224 107.123 286.803 91.385 286.803C75.422 286.803 62.483 273.863 62.482 257.9V242.678C62.483 238.687 65.718 235.452 69.708 235.452C73.698 235.452 76.933 238.687 76.934 242.678V259.152C76.934 267.134 83.404 273.604 91.385 273.604C99.366 273.604 105.836 267.134 105.836 259.152V242.774H105.839C105.968 226.923 118.856 214.113 134.738 214.112C150.701 214.112 163.642 227.053 163.642 243.016V265.752C163.642 269.743 166.877 272.978 170.867 272.978C174.858 272.977 178.093 269.743 178.093 265.752V243.016C178.093 227.053 191.033 214.112 206.995 214.112C222.877 214.112 235.765 226.923 235.895 242.774H235.897V259.152C235.897 267.134 242.368 273.604 250.35 273.604C258.331 273.603 264.801 267.133 264.801 259.152V242.774H264.804C264.806 242.503 264.811 242.233 264.82 241.964C264.808 241.867 264.801 241.768 264.801 241.667V178.226C264.801 174.235 268.036 171 272.026 171ZM387.517 227.938C375.079 227.938 364.996 238.021 364.996 250.458C364.996 262.895 375.079 272.978 387.517 272.978C399.954 272.977 410.036 262.895 410.036 250.458C410.036 238.021 399.954 227.938 387.517 227.938ZM387.54 242.774C391.531 242.774 394.766 246.009 394.766 250C394.766 253.991 391.531 257.226 387.54 257.226C383.55 257.225 380.314 253.991 380.314 250C380.315 246.01 383.55 242.775 387.54 242.774ZM69.227 214.112C73.217 214.113 76.452 217.348 76.452 221.338C76.452 225.328 73.217 228.564 69.227 228.564C65.236 228.564 62 225.329 62 221.338C62 217.347 65.236 214.112 69.227 214.112Z" fill="#F5F2EC"/>
</svg>
