<svg width="20" height="20" viewBox="0 0 20 20" fill="none" xmlns="http://www.w3.org/2000/svg">
<path d="M10 14.9V17M10 14.9C11.3261 14.9 12.5979 14.3838 13.5355 13.4648C14.4732 12.5459 15 11.2996 15 10V8.6M10 14.9C8.67392 14.9 7.40215 14.3838 6.46447 13.4648C5.52678 12.5459 5 11.2996 5 10V8.6M10 3C11.1835 3 12.1429 3.9402 12.1429 5.1V10C12.1429 11.1598 11.1835 12.1 10 12.1C8.81653 12.1 7.85714 11.1598 7.85714 10V5.1C7.85714 3.9402 8.81653 3 10 3Z" stroke="#353535" stroke-linecap="round" stroke-linejoin="round"/>
</svg>
