<svg width="18" height="15" viewBox="0 0 18 15" fill="none" xmlns="http://www.w3.org/2000/svg">
<path d="M15.614 10.2721H1.88603M13.8635 0.75C14.3155 0.75 14.7491 0.932618 15.0687 1.25768C15.3884 1.58274 15.568 2.02362 15.568 2.48333V9.87252C15.5678 10.1424 15.6297 10.4086 15.7486 10.6499L16.6588 12.4933C16.7245 12.6259 16.7556 12.7734 16.7492 12.9218C16.7427 13.0701 16.6989 13.2142 16.6219 13.3404C16.5449 13.4665 16.4373 13.5704 16.3095 13.6422C16.1816 13.7139 16.0378 13.751 15.8918 13.75H1.6082C1.4622 13.751 1.31839 13.7139 1.19055 13.6422C1.06271 13.5704 0.955139 13.4665 0.878143 13.3404C0.801147 13.2142 0.757311 13.0701 0.750838 12.9218C0.744365 12.7734 0.775472 12.6259 0.841176 12.4933L1.75137 10.6499C1.8703 10.4086 1.93216 10.1424 1.93205 9.87252V2.48333C1.93205 2.02362 2.11163 1.58274 2.43128 1.25768C2.75093 0.932618 3.18448 0.75 3.63654 0.75H13.8635Z" stroke="#353535" stroke-width="1.5" stroke-linecap="round" stroke-linejoin="round"/>
</svg>
