<svg width="20" height="20" viewBox="0 0 20 20" fill="none" xmlns="http://www.w3.org/2000/svg">
<mask id="path-1-inside-1_7001_6379" fill="white">
<path fill-rule="evenodd" clip-rule="evenodd" d="M10.59 4.45626C10.2002 4.39432 9.80283 4.39664 9.41375 4.46313C9.2557 4.15794 9.05446 3.87713 8.81625 3.62938C8.4848 3.28342 8.08669 3.0082 7.64596 2.82033C7.20522 2.63245 6.73099 2.53582 6.25187 2.53626C5.30846 2.53675 4.40382 2.9117 3.73667 3.57873C3.06952 4.24577 2.69441 5.15034 2.69375 6.09376C2.69375 7.23813 3.23562 8.25688 4.07562 8.90813C3.22849 9.32051 2.51436 9.96274 2.01474 10.7615C1.51511 11.5603 1.25012 12.4835 1.25 13.4256V14.375C1.25 14.8723 1.44754 15.3492 1.79917 15.7008C2.15081 16.0525 2.62772 16.25 3.125 16.25H4.97625C4.97625 16.7473 5.17379 17.2242 5.52542 17.5758C5.87706 17.9275 6.35397 18.125 6.85125 18.125H13.1488C13.646 18.125 14.1229 17.9275 14.4746 17.5758C14.8262 17.2242 15.0238 16.7473 15.0238 16.25H16.875C17.3723 16.25 17.8492 16.0525 18.2008 15.7008C18.5525 15.3492 18.75 14.8723 18.75 14.375V13.4256C18.7499 12.4835 18.4849 11.5603 17.9853 10.7615C17.4856 9.96274 16.7715 9.32051 15.9244 8.90813C16.3546 8.57591 16.7028 8.14945 16.9424 7.66155C17.182 7.17364 17.3064 6.6373 17.3062 6.09376C17.3056 5.15034 16.9305 4.24577 16.2633 3.57873C15.5962 2.9117 14.6915 2.53675 13.7481 2.53626C13.269 2.53582 12.7948 2.63245 12.354 2.82033C11.9133 3.0082 11.5152 3.28342 11.1837 3.62938C10.9472 3.87508 10.7472 4.15356 10.59 4.45626ZM13.7738 15.3006V16.25C13.7738 16.4158 13.7079 16.5747 13.5907 16.6919C13.4735 16.8092 13.3145 16.875 13.1488 16.875H6.85125C6.68549 16.875 6.52652 16.8092 6.40931 16.6919C6.2921 16.5747 6.22625 16.4158 6.22625 16.25V15.3006C6.22625 14.2998 6.62384 13.3399 7.33156 12.6322C8.03927 11.9245 8.99914 11.5269 10 11.5269C11.0009 11.5269 11.9607 11.9245 12.6684 12.6322C13.3762 13.3399 13.7738 14.2998 13.7738 15.3006ZM15.015 15H16.875C17.0408 15 17.1997 14.9342 17.3169 14.8169C17.4342 14.6997 17.5 14.5408 17.5 14.375V13.4256C17.5 12.9301 17.4024 12.4393 17.2127 11.9815C17.0231 11.5236 16.7451 11.1076 16.3947 10.7572C16.0443 10.4068 15.6283 10.1288 15.1704 9.93914C14.7125 9.74949 14.2218 9.65188 13.7262 9.65188C13.5262 9.65188 13.3269 9.66751 13.1313 9.69876C12.8964 10.1193 12.579 10.4882 12.1981 10.7831C12.9995 11.1729 13.6828 11.7689 14.1779 12.5099C14.6729 13.251 14.9618 14.1104 15.015 15ZM6.91813 9.70688C6.70553 9.67004 6.49014 9.65164 6.27437 9.65188C5.27351 9.65188 4.31302 10.0495 3.60531 10.7572C2.89759 11.4649 2.5 12.4248 2.5 13.4256V14.375C2.5 14.5408 2.56585 14.6997 2.68306 14.8169C2.80027 14.9342 2.95924 15 3.125 15H4.985C5.03842 14.1052 5.33036 13.2409 5.83053 12.497C6.3307 11.7531 7.02086 11.1566 7.82938 10.7694C7.45854 10.4788 7.14884 10.1177 6.91813 9.70688ZM10.0225 5.66126C10.6344 5.66159 11.2211 5.9048 11.6538 6.33747C12.0865 6.77014 12.3297 7.35687 12.33 7.96876C12.33 9.24251 11.2962 10.2769 10.0225 10.2769C8.74875 10.2769 7.715 9.24251 7.715 7.96876C7.71533 7.35687 7.95855 6.77014 8.39122 6.33747C8.82389 5.9048 9.41061 5.66159 10.0225 5.66126ZM8.22563 4.89876C8.13716 4.75341 8.03299 4.61823 7.915 4.49563C7.70006 4.2712 7.44189 4.09263 7.15605 3.97071C6.87021 3.84879 6.56263 3.78605 6.25187 3.78626C5.63993 3.78659 5.05314 4.02978 4.62037 4.46244C4.1876 4.89509 3.94425 5.48181 3.94375 6.09376C3.94398 6.41682 4.01199 6.73623 4.14338 7.03137C4.27477 7.3265 4.46662 7.59079 4.70654 7.80714C4.94645 8.02349 5.22909 8.1871 5.53619 8.28739C5.84329 8.38769 6.16801 8.42243 6.48938 8.38938C6.40746 7.70168 6.52812 7.00503 6.83655 6.38495C7.14499 5.76486 7.62777 5.24833 8.22563 4.89876ZM13.555 8.39376C13.8732 8.42029 14.1935 8.38054 14.4956 8.27701C14.7976 8.17349 15.075 8.00844 15.31 7.7923C15.5451 7.57615 15.7328 7.31361 15.8612 7.02125C15.9896 6.7289 16.0561 6.41308 16.0563 6.09376C16.0558 5.48181 15.8124 4.89509 15.3796 4.46244C14.9469 4.02978 14.3601 3.78659 13.7481 3.78626C13.4374 3.78605 13.1298 3.84879 12.844 3.97071C12.5581 4.09263 12.2999 4.2712 12.085 4.49563C11.9725 4.61251 11.8725 4.74126 11.7863 4.87938C12.3941 5.22619 12.8862 5.74462 13.2008 6.36975C13.5154 6.99488 13.6386 7.69893 13.555 8.39376Z"/>
</mask>
<path fill-rule="evenodd" clip-rule="evenodd" d="M10.59 4.45626C10.2002 4.39432 9.80283 4.39664 9.41375 4.46313C9.2557 4.15794 9.05446 3.87713 8.81625 3.62938C8.4848 3.28342 8.08669 3.0082 7.64596 2.82033C7.20522 2.63245 6.73099 2.53582 6.25187 2.53626C5.30846 2.53675 4.40382 2.9117 3.73667 3.57873C3.06952 4.24577 2.69441 5.15034 2.69375 6.09376C2.69375 7.23813 3.23562 8.25688 4.07562 8.90813C3.22849 9.32051 2.51436 9.96274 2.01474 10.7615C1.51511 11.5603 1.25012 12.4835 1.25 13.4256V14.375C1.25 14.8723 1.44754 15.3492 1.79917 15.7008C2.15081 16.0525 2.62772 16.25 3.125 16.25H4.97625C4.97625 16.7473 5.17379 17.2242 5.52542 17.5758C5.87706 17.9275 6.35397 18.125 6.85125 18.125H13.1488C13.646 18.125 14.1229 17.9275 14.4746 17.5758C14.8262 17.2242 15.0238 16.7473 15.0238 16.25H16.875C17.3723 16.25 17.8492 16.0525 18.2008 15.7008C18.5525 15.3492 18.75 14.8723 18.75 14.375V13.4256C18.7499 12.4835 18.4849 11.5603 17.9853 10.7615C17.4856 9.96274 16.7715 9.32051 15.9244 8.90813C16.3546 8.57591 16.7028 8.14945 16.9424 7.66155C17.182 7.17364 17.3064 6.6373 17.3062 6.09376C17.3056 5.15034 16.9305 4.24577 16.2633 3.57873C15.5962 2.9117 14.6915 2.53675 13.7481 2.53626C13.269 2.53582 12.7948 2.63245 12.354 2.82033C11.9133 3.0082 11.5152 3.28342 11.1837 3.62938C10.9472 3.87508 10.7472 4.15356 10.59 4.45626ZM13.7738 15.3006V16.25C13.7738 16.4158 13.7079 16.5747 13.5907 16.6919C13.4735 16.8092 13.3145 16.875 13.1488 16.875H6.85125C6.68549 16.875 6.52652 16.8092 6.40931 16.6919C6.2921 16.5747 6.22625 16.4158 6.22625 16.25V15.3006C6.22625 14.2998 6.62384 13.3399 7.33156 12.6322C8.03927 11.9245 8.99914 11.5269 10 11.5269C11.0009 11.5269 11.9607 11.9245 12.6684 12.6322C13.3762 13.3399 13.7738 14.2998 13.7738 15.3006ZM15.015 15H16.875C17.0408 15 17.1997 14.9342 17.3169 14.8169C17.4342 14.6997 17.5 14.5408 17.5 14.375V13.4256C17.5 12.9301 17.4024 12.4393 17.2127 11.9815C17.0231 11.5236 16.7451 11.1076 16.3947 10.7572C16.0443 10.4068 15.6283 10.1288 15.1704 9.93914C14.7125 9.74949 14.2218 9.65188 13.7262 9.65188C13.5262 9.65188 13.3269 9.66751 13.1313 9.69876C12.8964 10.1193 12.579 10.4882 12.1981 10.7831C12.9995 11.1729 13.6828 11.7689 14.1779 12.5099C14.6729 13.251 14.9618 14.1104 15.015 15ZM6.91813 9.70688C6.70553 9.67004 6.49014 9.65164 6.27437 9.65188C5.27351 9.65188 4.31302 10.0495 3.60531 10.7572C2.89759 11.4649 2.5 12.4248 2.5 13.4256V14.375C2.5 14.5408 2.56585 14.6997 2.68306 14.8169C2.80027 14.9342 2.95924 15 3.125 15H4.985C5.03842 14.1052 5.33036 13.2409 5.83053 12.497C6.3307 11.7531 7.02086 11.1566 7.82938 10.7694C7.45854 10.4788 7.14884 10.1177 6.91813 9.70688ZM10.0225 5.66126C10.6344 5.66159 11.2211 5.9048 11.6538 6.33747C12.0865 6.77014 12.3297 7.35687 12.33 7.96876C12.33 9.24251 11.2962 10.2769 10.0225 10.2769C8.74875 10.2769 7.715 9.24251 7.715 7.96876C7.71533 7.35687 7.95855 6.77014 8.39122 6.33747C8.82389 5.9048 9.41061 5.66159 10.0225 5.66126ZM8.22563 4.89876C8.13716 4.75341 8.03299 4.61823 7.915 4.49563C7.70006 4.2712 7.44189 4.09263 7.15605 3.97071C6.87021 3.84879 6.56263 3.78605 6.25187 3.78626C5.63993 3.78659 5.05314 4.02978 4.62037 4.46244C4.1876 4.89509 3.94425 5.48181 3.94375 6.09376C3.94398 6.41682 4.01199 6.73623 4.14338 7.03137C4.27477 7.3265 4.46662 7.59079 4.70654 7.80714C4.94645 8.02349 5.22909 8.1871 5.53619 8.28739C5.84329 8.38769 6.16801 8.42243 6.48938 8.38938C6.40746 7.70168 6.52812 7.00503 6.83655 6.38495C7.14499 5.76486 7.62777 5.24833 8.22563 4.89876ZM13.555 8.39376C13.8732 8.42029 14.1935 8.38054 14.4956 8.27701C14.7976 8.17349 15.075 8.00844 15.31 7.7923C15.5451 7.57615 15.7328 7.31361 15.8612 7.02125C15.9896 6.7289 16.0561 6.41308 16.0563 6.09376C16.0558 5.48181 15.8124 4.89509 15.3796 4.46244C14.9469 4.02978 14.3601 3.78659 13.7481 3.78626C13.4374 3.78605 13.1298 3.84879 12.844 3.97071C12.5581 4.09263 12.2999 4.2712 12.085 4.49563C11.9725 4.61251 11.8725 4.74126 11.7863 4.87938C12.3941 5.22619 12.8862 5.74462 13.2008 6.36975C13.5154 6.99488 13.6386 7.69893 13.555 8.39376Z" fill="#C5C5C5"/>
<path d="M10.59 4.45626L7.9788 20.8901L19.8277 22.7728L25.3572 12.1255L10.59 4.45626ZM9.41375 4.46313L-5.36233 12.1154L0.230014 22.9139L12.2169 20.8653L9.41375 4.46313ZM8.81625 3.62938L-3.19922 15.141L-3.18899 15.1517L-3.17873 15.1624L8.81625 3.62938ZM6.25187 2.53626L6.26063 19.1763L6.26705 19.1762L6.25187 2.53626ZM2.69375 6.09376L-13.9462 6.08207V6.09376H2.69375ZM4.07562 8.90813L11.3587 23.8696L35.4222 12.1558L14.2713 -4.24248L4.07562 8.90813ZM1.25 13.4256L-15.39 13.4236V13.4256H1.25ZM1.25 14.375H-15.39H1.25ZM3.125 16.25V32.89V16.25ZM4.97625 16.25H21.6162V-0.389994H4.97625V16.25ZM6.85125 18.125V34.765V18.125ZM13.1488 18.125V34.765V18.125ZM15.0238 16.25V-0.389994H-1.61625V16.25H15.0238ZM16.875 16.25V32.89V16.25ZM18.75 14.375H35.39H18.75ZM18.75 13.4256H35.39V13.4236L18.75 13.4256ZM15.9244 8.90813L5.7537 -4.26179L-15.4731 12.131L8.64127 23.8696L15.9244 8.90813ZM17.3062 6.09376L33.9463 6.08803L33.9462 6.08207L17.3062 6.09376ZM13.7481 2.53626L13.733 19.1763L13.7394 19.1763L13.7481 2.53626ZM11.1837 3.62938L23.1703 15.1711L23.1848 15.1561L23.1992 15.141L11.1837 3.62938ZM13.7738 15.3006H30.4137H13.7738ZM10 11.5269V28.1669V11.5269ZM15.015 15L-1.59533 15.9932L-0.659757 31.64H15.015V15ZM17.5 13.4256H0.860001H17.5ZM13.1313 9.69876L10.5064 -6.73291L2.5377 -5.45996L-1.39686 1.58558L13.1313 9.69876ZM12.1981 10.7831L2.0095 -2.37291L-19.1711 14.0303L4.92036 25.7472L12.1981 10.7831ZM6.91813 9.70688L21.4265 1.55841L17.553 -5.33821L9.75929 -6.68877L6.91813 9.70688ZM6.27437 9.65188V26.2919H6.28373L6.29308 26.2919L6.27437 9.65188ZM2.5 13.4256H-14.14H2.5ZM4.985 15V31.64H20.6613L21.5954 15.9916L4.985 15ZM7.82938 10.7694L15.0161 25.7774L39.1874 14.2027L18.0933 -2.328L7.82938 10.7694ZM10.0225 5.66126L10.0315 -10.9787L10.0225 -10.9787L10.0135 -10.9787L10.0225 5.66126ZM12.33 7.96876H28.97L28.97 7.95975L12.33 7.96876ZM7.715 7.96876L-8.925 7.95975V7.96876H7.715ZM8.22563 4.89876L16.6247 19.2634L31.2455 10.7146L22.4397 -3.75284L8.22563 4.89876ZM7.915 4.49563L-4.1028 16.0048L-4.08848 16.0198L-4.07413 16.0347L7.915 4.49563ZM6.25187 3.78626L6.26088 20.4263L6.26315 20.4263L6.25187 3.78626ZM3.94375 6.09376L-12.6962 6.08025L-12.6963 6.09289L-12.6962 6.10553L3.94375 6.09376ZM6.48938 8.38938L8.19166 24.9421L25.0127 23.2122L23.0126 6.42114L6.48938 8.38938ZM13.555 8.39376L-2.96581 6.40564L-5.02801 23.5422L12.1725 24.9762L13.555 8.39376ZM16.0563 6.09376L32.6962 6.10377L32.6963 6.09201L32.6962 6.08025L16.0563 6.09376ZM13.7481 3.78626L13.7368 20.4263L13.7391 20.4263L13.7481 3.78626ZM12.085 4.49563L24.0735 16.0354L24.0882 16.0201L24.1028 16.0048L12.085 4.49563ZM11.7863 4.87938L-2.32803 -3.93406L-11.4986 10.7522L3.54012 19.3324L11.7863 4.87938ZM10.59 4.45626L13.2012 -11.9776C11.017 -12.3246 8.79065 -12.3116 6.61062 -11.9391L9.41375 4.46313L12.2169 20.8653C10.815 21.1049 9.38336 21.1133 7.9788 20.8901L10.59 4.45626ZM9.41375 4.46313L24.1898 -3.18913C23.2961 -4.91487 22.1582 -6.5027 20.8112 -7.90361L8.81625 3.62938L-3.17873 15.1624C-4.04927 14.257 -4.78471 13.2307 -5.36233 12.1154L9.41375 4.46313ZM8.81625 3.62938L20.8317 -7.88227C18.9453 -9.85127 16.6795 -11.4177 14.171 -12.487L7.64596 2.82033L1.12087 18.1276C-0.506096 17.4341 -1.97569 16.4181 -3.19922 15.141L8.81625 3.62938ZM7.64596 2.82033L14.171 -12.487C11.6626 -13.5562 8.96353 -14.1062 6.2367 -14.1037L6.25187 2.53626L6.26705 19.1762C4.49844 19.1779 2.74783 18.8211 1.12087 18.1276L7.64596 2.82033ZM6.25187 2.53626L6.24312 -14.1037C0.890047 -14.1009 -4.24302 -11.9734 -8.02855 -8.18855L3.73667 3.57873L15.5019 15.346C13.0507 17.7968 9.72688 19.1744 6.26063 19.1763L6.25187 2.53626ZM3.73667 3.57873L-8.02855 -8.18855C-11.8141 -4.40369 -13.9425 0.729002 -13.9462 6.08207L2.69375 6.09376L19.3337 6.10544C19.3313 9.57169 17.9531 12.8952 15.5019 15.346L3.73667 3.57873ZM2.69375 6.09376H-13.9462C-13.9462 12.6145 -10.8381 18.4008 -6.12001 22.0587L4.07562 8.90813L14.2713 -4.24248C17.3093 -1.88707 19.3337 1.86179 19.3337 6.09376L2.69375 6.09376ZM4.07562 8.90813L-3.20748 -6.05335C-6.85984 -4.27542 -9.93877 -1.50648 -12.0929 1.93743L2.01474 10.7615L16.1224 19.5856C14.9675 21.432 13.3168 22.9164 11.3587 23.8696L4.07562 8.90813ZM2.01474 10.7615L-12.0929 1.93743C-14.247 5.38134 -15.3895 9.36148 -15.39 13.4236L1.25 13.4256L17.89 13.4277C17.8897 15.6054 17.2772 17.7393 16.1224 19.5856L2.01474 10.7615ZM1.25 13.4256H-15.39V14.375H1.25H17.89V13.4256H1.25ZM1.25 14.375H-15.39C-15.39 19.2855 -13.4393 23.9949 -9.96708 27.4671L1.79917 15.7008L13.5654 3.93457C16.3344 6.70355 17.89 10.4591 17.89 14.375H1.25ZM1.79917 15.7008L-9.96708 27.4671C-6.49484 30.9393 -1.78548 32.89 3.125 32.89V16.25V-0.389994C7.04092 -0.389994 10.7965 1.1656 13.5654 3.93457L1.79917 15.7008ZM3.125 16.25V32.89H4.97625V16.25V-0.389994H3.125V16.25ZM4.97625 16.25H-11.6637C-11.6637 21.1605 -9.71306 25.8699 -6.24083 29.3421L5.52542 17.5758L17.2917 5.80957C20.0607 8.57855 21.6162 12.3341 21.6162 16.25H4.97625ZM5.52542 17.5758L-6.24083 29.3421C-2.76859 32.8143 1.94077 34.765 6.85125 34.765V18.125L6.85125 1.48501C10.7672 1.48501 14.5227 3.0406 17.2917 5.80957L5.52542 17.5758ZM6.85125 18.125V34.765H13.1488V18.125V1.48501H6.85125V18.125ZM13.1488 18.125V34.765C18.0592 34.765 22.7686 32.8143 26.2408 29.3421L14.4746 17.5758L2.70832 5.80957C5.4773 3.04059 9.23284 1.48501 13.1488 1.48501V18.125ZM14.4746 17.5758L26.2408 29.3421C29.7131 25.8698 31.6637 21.1605 31.6637 16.25H15.0238H-1.61625C-1.61625 12.3341 -0.0606608 8.57855 2.70832 5.80957L14.4746 17.5758ZM15.0238 16.25V32.89H16.875V16.25V-0.389994H15.0238V16.25ZM16.875 16.25V32.89C21.7855 32.89 26.4948 30.9393 29.9671 27.4671L18.2008 15.7008L6.43457 3.93457C9.20355 1.16559 12.9591 -0.389994 16.875 -0.389994V16.25ZM18.2008 15.7008L29.9671 27.4671C33.4393 23.9948 35.39 19.2855 35.39 14.375H18.75H2.11C2.11 10.4591 3.66559 6.70355 6.43457 3.93457L18.2008 15.7008ZM18.75 14.375H35.39V13.4256H18.75H2.11V14.375H18.75ZM18.75 13.4256L35.39 13.4236C35.3895 9.36148 34.247 5.38134 32.0929 1.93743L17.9853 10.7615L3.87764 19.5856C2.72279 17.7393 2.11027 15.6054 2.11 13.4277L18.75 13.4256ZM17.9853 10.7615L32.0929 1.93743C29.9388 -1.50648 26.8598 -4.27542 23.2075 -6.05335L15.9244 8.90813L8.64127 23.8696C6.68318 22.9164 5.0325 21.432 3.87764 19.5856L17.9853 10.7615ZM15.9244 8.90813L26.0951 22.0781C28.5392 20.1905 30.5179 17.7675 31.879 14.9955L16.9424 7.66155L2.00578 0.327578C2.88774 -1.46865 4.16991 -3.03869 5.7537 -4.26179L15.9244 8.90813ZM16.9424 7.66155L31.879 14.9955C33.2401 12.2235 33.9473 9.17622 33.9462 6.08803L17.3062 6.09376L0.666252 6.09948C0.665564 4.09838 1.12383 2.1238 2.00578 0.327578L16.9424 7.66155ZM17.3062 6.09376L33.9462 6.08207C33.9425 0.728998 31.8141 -4.4037 28.0286 -8.18855L16.2633 3.57873L4.49811 15.346C2.04689 12.8952 0.668689 9.57169 0.666255 6.10544L17.3062 6.09376ZM16.2633 3.57873L28.0286 -8.18855C24.243 -11.9734 19.11 -14.1009 13.7569 -14.1037L13.7481 2.53626L13.7394 19.1763C10.2731 19.1744 6.94933 17.7968 4.49811 15.346L16.2633 3.57873ZM13.7481 2.53626L13.7633 -14.1037C11.0365 -14.1062 8.33739 -13.5562 5.82896 -12.487L12.354 2.82033L18.8791 18.1276C17.2522 18.8211 15.5016 19.1779 13.733 19.1762L13.7481 2.53626ZM12.354 2.82033L5.82896 -12.487C3.32053 -11.4177 1.05472 -9.85127 -0.831722 -7.88227L11.1837 3.62938L23.1992 15.141C21.9757 16.4181 20.5061 17.4341 18.8791 18.1276L12.354 2.82033ZM11.1837 3.62938L-0.802847 -7.91233C-2.14738 -6.51597 -3.28384 -4.93329 -4.17725 -3.21303L10.59 4.45626L25.3572 12.1255C24.7782 13.2404 24.0417 14.2661 23.1703 15.1711L11.1837 3.62938ZM13.7738 15.3006H-2.86625V16.25H13.7738H30.4137V15.3006H13.7738ZM13.7738 16.25H-2.86625C-2.86625 12.0026 -1.17899 7.92912 1.82444 4.92569L13.5907 16.6919L25.3569 28.4582C28.5948 25.2204 30.4137 20.8289 30.4137 16.25H13.7738ZM13.5907 16.6919L1.82444 4.92569C4.82786 1.92226 8.90135 0.235006 13.1488 0.235006V16.875V33.515C17.7277 33.515 22.1191 31.6961 25.3569 28.4582L13.5907 16.6919ZM13.1488 16.875V0.235006H6.85125V16.875V33.515H13.1488V16.875ZM6.85125 16.875V0.235006C11.0987 0.235006 15.1721 1.92228 18.1756 4.92569L6.40931 16.6919L-5.35695 28.4582C-2.11911 31.696 2.27232 33.515 6.85125 33.515V16.875ZM6.40931 16.6919L18.1756 4.92569C21.179 7.92909 22.8662 12.0026 22.8662 16.25H6.22625H-10.4137C-10.4137 20.829 -8.59477 25.2204 -5.35695 28.4582L6.40931 16.6919ZM6.22625 16.25H22.8662V15.3006H6.22625H-10.4137V16.25H6.22625ZM6.22625 15.3006H22.8662C22.8662 18.713 21.5107 21.9856 19.0978 24.3984L7.33156 12.6322L-4.4347 0.86593C-8.26302 4.69425 -10.4137 9.88657 -10.4137 15.3006H6.22625ZM7.33156 12.6322L19.0978 24.3984C16.6849 26.8113 13.4123 28.1669 10 28.1669V11.5269V-5.11312C4.58595 -5.11312 -0.606369 -2.9624 -4.4347 0.86593L7.33156 12.6322ZM10 11.5269V28.1669C6.58767 28.1669 3.31509 26.8113 0.902187 24.3984L12.6684 12.6322L24.4347 0.86593C20.6064 -2.9624 15.414 -5.11312 10 -5.11312V11.5269ZM12.6684 12.6322L0.902187 24.3984C-1.5107 21.9856 -2.86625 18.713 -2.86625 15.3006H13.7738H30.4137C30.4137 9.88657 28.263 4.69425 24.4347 0.86593L12.6684 12.6322ZM15.015 15V31.64H16.875V15V-1.63999H15.015V15ZM16.875 15V31.64C21.4539 31.64 25.8454 29.8211 29.0832 26.5832L17.3169 14.8169L5.55069 3.05069C8.55411 0.0472641 12.6276 -1.63999 16.875 -1.63999V15ZM17.3169 14.8169L29.0832 26.5832C32.321 23.3454 34.14 18.9539 34.14 14.375H17.5H0.860001C0.860001 10.1276 2.54726 6.05412 5.55069 3.05069L17.3169 14.8169ZM17.5 14.375H34.14V13.4256H17.5H0.860001V14.375H17.5ZM17.5 13.4256H34.14C34.14 10.7449 33.612 8.09033 32.5861 5.61363L17.2127 11.9815L1.83939 18.3493C1.1928 16.7883 0.860001 15.1153 0.860001 13.4256H17.5ZM17.2127 11.9815L32.5861 5.61363C31.5602 3.13691 30.0565 0.886519 28.1609 -1.00907L16.3947 10.7572L4.62844 22.5234C3.4337 21.3287 2.48598 19.9103 1.83939 18.3493L17.2127 11.9815ZM16.3947 10.7572L28.1609 -1.00907C26.2654 -2.90467 24.015 -4.40833 21.5383 -5.43421L15.1704 9.93914L8.80255 25.3125C7.24155 24.6659 5.82318 23.7182 4.62844 22.5234L16.3947 10.7572ZM15.1704 9.93914L21.5383 -5.43421C19.0615 -6.4601 16.407 -6.98812 13.7262 -6.98812V9.65188V26.2919C12.0366 26.2919 10.3635 25.9591 8.80255 25.3125L15.1704 9.93914ZM13.7262 9.65188V-6.98812C12.6625 -6.98812 11.5851 -6.90523 10.5064 -6.73291L13.1313 9.69876L15.7561 26.1304C15.0686 26.2402 14.39 26.2919 13.7262 26.2919V9.65188ZM13.1313 9.69876L-1.39686 1.58558C-0.539454 0.0502412 0.619149 -1.29616 2.0095 -2.37291L12.1981 10.7831L22.3868 23.9392C24.5388 22.2725 26.3322 20.1884 27.6594 17.8119L13.1313 9.69876ZM12.1981 10.7831L4.92036 25.7472C3.06659 24.8456 1.48609 23.467 0.341062 21.7529L14.1779 12.5099L28.0146 3.26696C25.8796 0.0707445 22.9325 -2.49983 19.4759 -4.18095L12.1981 10.7831ZM14.1779 12.5099L0.341062 21.7529C-0.803967 20.0388 -1.4723 18.0509 -1.59533 15.9932L15.015 15L31.6253 14.0068C31.3959 10.1699 30.1497 6.46317 28.0146 3.26696L14.1779 12.5099ZM6.91813 9.70688L9.75929 -6.68877C8.60223 -6.88927 7.42999 -6.98943 6.25567 -6.98811L6.27437 9.65188L6.29308 26.2919C5.55029 26.2927 4.80883 26.2294 4.07696 26.1025L6.91813 9.70688ZM6.27437 9.65188V-6.98812C0.863237 -6.98812 -4.33056 -4.83946 -8.16095 -1.00907L3.60531 10.7572L15.3716 22.5234C12.9566 24.9384 9.68379 26.2919 6.27437 26.2919V9.65188ZM3.60531 10.7572L-8.16095 -1.00907C-11.9893 2.81925 -14.14 8.01157 -14.14 13.4256H2.5H19.14C19.14 16.838 17.7845 20.1106 15.3716 22.5234L3.60531 10.7572ZM2.5 13.4256H-14.14V14.375H2.5H19.14V13.4256H2.5ZM2.5 14.375H-14.14C-14.14 18.954 -12.321 23.3454 -9.0832 26.5832L2.68306 14.8169L14.4493 3.05069C17.4527 6.05409 19.14 10.1276 19.14 14.375H2.5ZM2.68306 14.8169L-9.0832 26.5832C-5.84536 29.821 -1.45393 31.64 3.125 31.64V15V-1.63999C7.37241 -1.63999 11.4459 0.047276 14.4493 3.05069L2.68306 14.8169ZM3.125 15V31.64H4.985V15V-1.63999H3.125V15ZM4.985 15L21.5954 15.9916C21.4719 18.0614 20.7966 20.0605 19.6396 21.7813L5.83053 12.497L-7.97859 3.21271C-10.1359 6.42135 -11.395 10.1489 -11.6254 14.0084L4.985 15ZM5.83053 12.497L19.6396 21.7813C18.4827 23.5021 16.8863 24.8818 15.0161 25.7774L7.82938 10.7694L0.642618 -4.23862C-2.84459 -2.56873 -5.82132 0.0040617 -7.97859 3.21271L5.83053 12.497ZM7.82938 10.7694L18.0933 -2.328C19.4498 -1.265 20.5826 0.0558255 21.4265 1.55841L6.91813 9.70688L-7.59022 17.8554C-6.28487 20.1795 -4.53269 22.2225 -2.43454 23.8668L7.82938 10.7694ZM10.0225 5.66126L10.0135 22.3013C6.2153 22.2992 2.57326 20.7895 -0.112473 18.1037L11.6538 6.33747L23.42 -5.42878C19.869 -8.97985 15.0535 -10.976 10.0315 -10.9787L10.0225 5.66126ZM11.6538 6.33747L-0.112473 18.1037C-2.7982 15.418 -4.30794 11.776 -4.31 7.97776L12.33 7.96876L28.97 7.95975C28.9673 2.93778 26.9711 -1.87772 23.42 -5.42878L11.6538 6.33747ZM12.33 7.96876H-4.31C-4.31 0.0583539 2.10037 -6.36312 10.0225 -6.36312V10.2769V26.9169C20.4921 26.9169 28.97 18.4267 28.97 7.96876H12.33ZM10.0225 10.2769V-6.36312C17.9446 -6.36312 24.355 0.0583651 24.355 7.96876H7.715H-8.925C-8.925 18.4266 -0.447144 26.9169 10.0225 26.9169V10.2769ZM7.715 7.96876L24.355 7.97776C24.3529 11.776 22.8432 15.418 20.1575 18.1037L8.39122 6.33747L-3.37504 -5.42878C-6.9261 -1.87772 -8.92228 2.93778 -8.925 7.95975L7.715 7.96876ZM8.39122 6.33747L20.1575 18.1037C17.4717 20.7895 13.8297 22.2992 10.0315 22.3013L10.0225 5.66126L10.0135 -10.9787C4.99152 -10.976 0.176022 -8.97984 -3.37504 -5.42878L8.39122 6.33747ZM8.22563 4.89876L22.4397 -3.75284C21.7175 -4.93927 20.8673 -6.04276 19.9041 -7.04345L7.915 4.49563L-4.07413 16.0347C-4.80127 15.2792 -5.44323 14.4461 -5.98844 13.5503L8.22563 4.89876ZM7.915 4.49563L19.9328 -7.01359C18.1633 -8.86131 16.0377 -10.3314 13.6845 -11.3351L7.15605 3.97071L0.627619 19.2766C-1.15398 18.5167 -2.76315 17.4037 -4.1028 16.0048L7.915 4.49563ZM7.15605 3.97071L13.6845 -11.3351C11.3312 -12.3389 8.79898 -12.8555 6.2406 -12.8537L6.25187 3.78626L6.26315 20.4263C4.32628 20.4276 2.40921 20.0365 0.627619 19.2766L7.15605 3.97071ZM6.25187 3.78626L6.24287 -12.8537C1.22163 -12.851 -3.59325 -10.8555 -7.14429 -7.30542L4.62037 4.46244L16.385 16.2303C13.6995 18.9151 10.0582 20.4242 6.26088 20.4263L6.25187 3.78626ZM4.62037 4.46244L-7.14429 -7.30542C-10.6953 -3.75534 -12.6922 1.05901 -12.6962 6.08025L3.94375 6.09376L20.5837 6.10726C20.5807 9.90462 19.0705 13.5455 16.385 16.2303L4.62037 4.46244ZM3.94375 6.09376L-12.6962 6.10553C-12.6944 8.75637 -12.1363 11.3773 -11.0582 13.799L4.14338 7.03137L19.345 0.263716C20.1603 2.09514 20.5823 4.07726 20.5837 6.08198L3.94375 6.09376ZM4.14338 7.03137L-11.0582 13.799C-9.9801 16.2207 -8.40587 18.3893 -6.43727 20.1645L4.70654 7.80714L15.8503 -4.55026C17.3391 -3.20769 18.5296 -1.5677 19.345 0.263716L4.14338 7.03137ZM4.70654 7.80714L-6.43727 20.1645C-4.46866 21.9398 -2.14949 23.2823 0.370366 24.1052L5.53619 8.28739L10.702 -7.53044C12.6077 -6.90809 14.3616 -5.89283 15.8503 -4.55026L4.70654 7.80714ZM5.53619 8.28739L0.370366 24.1052C2.89022 24.9282 5.55471 25.2133 8.19166 24.9421L6.48938 8.38938L4.78709 -8.16332C6.78131 -8.3684 8.79636 -8.15279 10.702 -7.53044L5.53619 8.28739ZM6.48938 8.38938L23.0126 6.42114C23.3139 8.95123 22.87 11.5143 21.7353 13.7956L6.83655 6.38495L-8.06215 -1.02573C-9.81377 2.49579 -10.499 6.45214 -10.0338 10.3576L6.48938 8.38938ZM6.83655 6.38495L21.7353 13.7956C20.6005 16.077 18.8243 17.9773 16.6247 19.2634L8.22563 4.89876L-0.173496 -9.46593C-3.56879 -7.48068 -6.31054 -4.54725 -8.06215 -1.02573L6.83655 6.38495ZM13.555 8.39376L12.1725 24.9762C14.7836 25.1939 17.4115 24.8677 19.8902 24.0183L14.4956 8.27701L9.10093 -7.46426C10.9755 -8.10667 12.9628 -8.35335 14.9375 -8.18871L13.555 8.39376ZM14.4956 8.27701L19.8902 24.0183C22.3689 23.1688 24.6445 21.8145 26.5732 20.041L15.31 7.7923L4.04686 -4.4564C5.50548 -5.79766 7.22641 -6.82185 9.10093 -7.46426L14.4956 8.27701ZM15.31 7.7923L26.5732 20.041C28.5019 18.2674 30.0419 16.1132 31.0958 13.7143L15.8612 7.02125L0.626604 0.32823C1.42363 -1.48595 2.58823 -3.11513 4.04686 -4.4564L15.31 7.7923ZM15.8612 7.02125L31.0958 13.7143C32.1497 11.3154 32.6947 8.72399 32.6962 6.10377L16.0563 6.09376L-0.583746 6.08374C-0.582553 4.10218 -0.170421 2.14241 0.626604 0.32823L15.8612 7.02125ZM16.0563 6.09376L32.6962 6.08025C32.6922 1.059 30.6953 -3.75534 27.1443 -7.30542L15.3796 4.46244L3.61497 16.2303C0.92947 13.5455 -0.580661 9.90463 -0.583744 6.10726L16.0563 6.09376ZM15.3796 4.46244L27.1443 -7.30542C23.5933 -10.8555 18.7784 -12.851 13.7571 -12.8537L13.7481 3.78626L13.7391 20.4263C9.94177 20.4242 6.30047 18.9151 3.61497 16.2303L15.3796 4.46244ZM13.7481 3.78626L13.7594 -12.8537C11.201 -12.8555 8.6688 -12.3389 6.31553 -11.3351L12.844 3.97071L19.3724 19.2766C17.5908 20.0365 15.6737 20.4276 13.7368 20.4263L13.7481 3.78626ZM12.844 3.97071L6.31553 -11.3351C3.96225 -10.3314 1.83673 -8.86131 0.0671998 -7.01359L12.085 4.49563L24.1028 16.0048C22.7631 17.4037 21.154 18.5167 19.3724 19.2766L12.844 3.97071ZM12.085 4.49563L0.0964999 -7.0441C-0.833446 -6.07799 -1.6422 -5.03238 -2.32803 -3.93406L11.7863 4.87938L25.9005 13.6928C25.3872 14.5149 24.7784 15.303 24.0735 16.0354L12.085 4.49563ZM11.7863 4.87938L3.54012 19.3324C1.30425 18.0568 -0.505617 16.1499 -1.66288 13.8505L13.2008 6.36975L28.0644 -1.11098C26.2779 -4.66063 23.484 -7.60439 20.0324 -9.57368L11.7863 4.87938ZM13.2008 6.36975L-1.66288 13.8505C-2.82014 11.5511 -3.27336 8.9614 -2.96581 6.40564L13.555 8.39376L30.0758 10.3819C30.5506 6.43647 29.8509 2.43867 28.0644 -1.11098L13.2008 6.36975Z" fill="#C5C5C5" mask="url(#path-1-inside-1_7001_6379)"/>
</svg>
