<svg width="40" height="40" viewBox="0 0 40 40" fill="none" xmlns="http://www.w3.org/2000/svg">
<path d="M35 20C35 16.0218 33.4196 12.2064 30.6066 9.3934C27.7936 6.58035 23.9782 5 20 5C15.8066 5.01578 11.7816 6.65204 8.76667 9.56667L5 13.3333M5 13.3333V7M5 13.3333H11.3333M5 20C5 23.9782 6.58035 27.7936 9.3934 30.6066C12.2064 33.4196 16.0218 35 20 35C24.1934 34.9842 28.2184 33.348 31.2333 30.4333L35 26.6667M35 26.6667H28.6667M35 26.6667V33" stroke="#74B278" stroke-width="1.5" stroke-linecap="round" stroke-linejoin="round"/>
<path d="M21.4388 20.5767H15.9587V19.3951H21.4388C21.9447 19.3951 22.3627 19.3055 22.6929 19.1265C23.0231 18.9439 23.269 18.6968 23.4306 18.3853C23.5922 18.0702 23.673 17.7121 23.673 17.3111C23.673 16.91 23.5922 16.5537 23.4306 16.2422C23.269 15.9271 23.0231 15.68 22.6929 15.501C22.3627 15.3184 21.9447 15.2271 21.4388 15.2271H18.9728V25.0454H17.666V14.0454H21.4388C22.2398 14.0454 22.9002 14.194 23.4201 14.4912C23.94 14.7884 24.3264 15.1841 24.5793 15.6783C24.8323 16.1724 24.9587 16.7167 24.9587 17.3111C24.9587 17.9055 24.8323 18.4497 24.5793 18.9439C24.3264 19.438 23.94 19.8337 23.4201 20.1309C22.9002 20.4281 22.2398 20.5767 21.4388 20.5767ZM21.3545 21.6079V22.7896H15.9587V21.6079H21.3545Z" fill="#74B278"/>
</svg>
