<svg width="16" height="20" viewBox="0 0 16 20" fill="none" xmlns="http://www.w3.org/2000/svg">
<path d="M2.8125 19.3675C2.5 19.3675 2.1875 19.305 1.90625 19.1487C1.15625 18.805 0.71875 18.0862 0.71875 17.2425V2.71121C0.71875 1.55496 1.65625 0.617462 2.8125 0.617462H13.1875C14.3437 0.617462 15.2812 1.55496 15.2812 2.71121V17.2737C15.2812 18.0862 14.8125 18.805 14.0938 19.18C13.3438 19.5237 12.5 19.43 11.875 18.8987L8.53125 16.18C8.21875 15.93 7.78125 15.93 7.46875 16.18L4.125 18.8987C3.75 19.2112 3.28125 19.3675 2.8125 19.3675ZM8 14.7112C8.46875 14.7112 8.9375 14.8675 9.3125 15.18L12.6562 17.8987C12.9062 18.1175 13.25 18.1487 13.5625 18.0237C13.875 17.8675 14.0312 17.5862 14.0312 17.2737V2.71121C14.0312 2.24246 13.6562 1.86746 13.1875 1.86746H2.8125C2.34375 1.86746 1.96875 2.24246 1.96875 2.71121V17.2737C1.96875 17.6175 2.15625 17.8987 2.4375 18.0237C2.75 18.18 3.0625 18.1175 3.34375 17.8987L6.6875 15.18C7.0625 14.8987 7.53125 14.7112 8 14.7112Z" fill="#CD5045"/>
<path d="M8 14.7112C8.46875 14.7112 8.9375 14.8675 9.3125 15.18L12.6562 17.8987C12.9062 18.1175 13.25 18.1487 13.5625 18.0237C13.875 17.8675 14.0312 17.5862 14.0312 17.2737V2.71121C14.0312 2.24246 13.6562 1.86746 13.1875 1.86746H2.8125C2.34375 1.86746 1.96875 2.24246 1.96875 2.71121V17.2737C1.96875 17.6175 2.15625 17.8987 2.4375 18.0237C2.75 18.18 3.0625 18.1175 3.34375 17.8987L6.6875 15.18C7.0625 14.8987 7.53125 14.7112 8 14.7112Z" fill="#CD5045"/>
</svg>
