<svg xmlns="http://www.w3.org/2000/svg" width="18" height="21" fill="none" viewBox="0 0 18 21">
  <path stroke="currentColor" stroke-linecap="round" stroke-linejoin="round" stroke-width="1.5" d="M9.195 1.5h-.39c-.47 0-.922.19-1.255.527-.333.338-.52.796-.52 1.273v.162a1.812 1.812 0 0 1-.887 1.557l-.381.225a1.755 1.755 0 0 1-1.774 0l-.134-.072a1.752 1.752 0 0 0-1.344-.18 1.778 1.778 0 0 0-1.077.837l-.196.342a1.823 1.823 0 0 0-.177 1.364c.122.461.418.854.825 1.093l.133.09a1.795 1.795 0 0 1 .887 1.548v.459c.001.317-.08.63-.236.904-.155.275-.38.503-.65.662l-.134.081a1.797 1.797 0 0 0-.825 1.093c-.121.46-.057.951.177 1.364l.196.342c.235.413.622.713 1.077.837.454.123.937.058 1.345-.18l.133-.072a1.755 1.755 0 0 1 1.774 0l.381.225c.27.158.494.385.65.658.155.273.237.583.238.899v.162c0 .477.186.935.52 1.273a1.76 1.76 0 0 0 1.254.527h.39c.47 0 .922-.19 1.255-.527.333-.338.52-.796.52-1.273v-.162a1.812 1.812 0 0 1 .887-1.557l.381-.225a1.755 1.755 0 0 1 1.774 0l.133.072c.408.238.891.303 1.345.18a1.778 1.778 0 0 0 1.077-.837l.196-.351c.234-.413.298-.904.177-1.364a1.797 1.797 0 0 0-.825-1.093l-.133-.072a1.788 1.788 0 0 1-.651-.662 1.82 1.82 0 0 1-.236-.904v-.45a1.82 1.82 0 0 1 .236-.904c.155-.275.38-.503.65-.662l.134-.081c.407-.239.703-.632.825-1.093.121-.46.057-.951-.177-1.364l-.196-.342a1.778 1.778 0 0 0-1.077-.837 1.752 1.752 0 0 0-1.345.18l-.133.072a1.755 1.755 0 0 1-1.774 0l-.381-.225a1.787 1.787 0 0 1-.65-.658 1.819 1.819 0 0 1-.238-.899V3.3a1.81 1.81 0 0 0-.52-1.273A1.761 1.761 0 0 0 9.196 1.5Z"/>
  <path stroke="currentColor" stroke-linecap="round" stroke-linejoin="round" stroke-width="1.5" d="M9 13.2c1.47 0 2.662-1.209 2.662-2.7S10.47 7.8 9 7.8s-2.661 1.209-2.661 2.7S7.53 13.2 9 13.2Z"/>
</svg>
