<svg width="20" height="20" viewBox="0 0 20 20" fill="none" xmlns="http://www.w3.org/2000/svg">
<path d="M13.2 10.8333L17.3784 13.735C17.4386 13.7768 17.5086 13.8007 17.5809 13.8043C17.6532 13.8079 17.725 13.791 17.7888 13.7555C17.8526 13.7199 17.9059 13.6669 17.9431 13.6023C17.9803 13.5376 18 13.4637 18 13.3883V6.55833C18 6.48502 17.9815 6.413 17.9462 6.34954C17.911 6.28608 17.8603 6.23344 17.7992 6.19692C17.7382 6.1604 17.669 6.1413 17.5986 6.14155C17.5283 6.14179 17.4592 6.16138 17.3984 6.19833L13.2 8.75M3.6 5H11.6C12.4837 5 13.2 5.74619 13.2 6.66667V13.3333C13.2 14.2538 12.4837 15 11.6 15H3.6C2.71634 15 2 14.2538 2 13.3333V6.66667C2 5.74619 2.71634 5 3.6 5Z" stroke="#353535" stroke-linecap="round" stroke-linejoin="round"/>
</svg>
