<svg xmlns="http://www.w3.org/2000/svg" width="18" height="17" fill="currentColor" viewBox="0 0 18 17">
  <path d="M15.875.375H2.125A1.875 1.875 0 0 0 .25 2.25v1.875A1.875 1.875 0 0 0 1.5 5.888v8.862a1.875 1.875 0 0 0 1.875 1.875h11.25A1.875 1.875 0 0 0 16.5 14.75V5.887a1.875 1.875 0 0 0 1.25-1.762V2.25A1.875 1.875 0 0 0 15.875.375ZM15.25 14.75a.624.624 0 0 1-.625.625H3.375a.625.625 0 0 1-.625-.625V6h12.5v8.75ZM16.5 4.125a.625.625 0 0 1-.625.625H2.125a.625.625 0 0 1-.625-.625V2.25a.625.625 0 0 1 .625-.625h13.75a.625.625 0 0 1 .625.625v1.875Z"/>
  <path d="M7.125 9.125h3.75a.625.625 0 1 0 0-1.25h-3.75a.625.625 0 0 0 0 1.25Z"/>
</svg>
