<svg xmlns="http://www.w3.org/2000/svg" width="32" height="32" fill="currentColor" viewBox="0 0 32 32">
  <path d="M11.794.075h-8.79a2.933 2.933 0 0 0-2.929 2.93v8.789a2.933 2.933 0 0 0 2.93 2.93h8.789a2.933 2.933 0 0 0 2.93-2.93v-8.79a2.933 2.933 0 0 0-2.93-2.929Zm.976 11.719a.978.978 0 0 1-.976.976h-8.79a.978.978 0 0 1-.976-.976v-8.79c0-.537.438-.976.977-.976h8.789c.539 0 .976.439.976.977v8.789ZM28.395.075h-8.789a2.933 2.933 0 0 0-2.93 2.93v8.789a2.933 2.933 0 0 0 2.93 2.93h8.79a2.933 2.933 0 0 0 2.93-2.93v-8.79a2.933 2.933 0 0 0-2.93-2.929Zm.977 11.719a.978.978 0 0 1-.977.976h-8.789a.978.978 0 0 1-.976-.976v-8.79c0-.537.437-.976.976-.976h8.79c.539 0 .976.439.976.977v8.789Zm-.977 4.883h-8.789a2.933 2.933 0 0 0-2.93 2.93v8.788a2.933 2.933 0 0 0 2.93 2.93h8.79a2.933 2.933 0 0 0 2.93-2.93v-8.789a2.933 2.933 0 0 0-2.93-2.93Zm.977 11.718a.978.978 0 0 1-.977.977h-8.789a.978.978 0 0 1-.976-.977v-8.789c0-.538.437-.976.976-.976h8.79c.539 0 .976.438.976.976v8.79ZM11.794 16.677h-8.79a2.933 2.933 0 0 0-2.929 2.93v8.788a2.933 2.933 0 0 0 2.93 2.93h8.789a2.933 2.933 0 0 0 2.93-2.93v-8.789a2.933 2.933 0 0 0-2.93-2.93Zm.976 11.718a.978.978 0 0 1-.976.977h-8.79a.978.978 0 0 1-.976-.977v-8.789c0-.538.438-.976.977-.976h8.789c.539 0 .976.438.976.976v8.79Z"/>
</svg>
