<svg xmlns="http://www.w3.org/2000/svg" width="32" height="32" fill="currentColor" viewBox="0 0 32 32">
  <path d="M11.719 0h-8.79A2.933 2.933 0 0 0 0 2.93v8.789a2.933 2.933 0 0 0 2.93 2.93h8.789a2.933 2.933 0 0 0 2.93-2.93v-8.79A2.933 2.933 0 0 0 11.718 0ZM28.32 0h-8.789a2.933 2.933 0 0 0-2.93 2.93v8.789a2.933 2.933 0 0 0 2.93 2.93h8.79a2.933 2.933 0 0 0 2.929-2.93v-8.79A2.933 2.933 0 0 0 28.32 0Zm0 16.602h-8.789a2.933 2.933 0 0 0-2.93 2.93v8.788a2.933 2.933 0 0 0 2.93 2.93h8.79a2.933 2.933 0 0 0 2.929-2.93v-8.789a2.933 2.933 0 0 0-2.93-2.93Zm-16.601 0h-8.79A2.933 2.933 0 0 0 0 19.532v8.788a2.933 2.933 0 0 0 2.93 2.93h8.789a2.933 2.933 0 0 0 2.93-2.93v-8.789a2.933 2.933 0 0 0-2.93-2.93Z"/>
</svg>
