<svg xmlns="http://www.w3.org/2000/svg" width="16" height="19" fill="currentColor" viewBox="0 0 16 19">
  <path d="M2.813 18.875c-.313 0-.626-.063-.907-.219C1.156 18.313.72 17.594.72 16.75V2.219c0-1.156.937-2.094 2.094-2.094h10.374c1.157 0 2.094.938 2.094 2.094V16.78c0 .813-.469 1.532-1.187 1.907-.75.343-1.594.25-2.219-.282l-3.344-2.718a.846.846 0 0 0-1.062 0l-3.344 2.718a2.048 2.048 0 0 1-1.313.469ZM8 14.219c.469 0 .938.156 1.313.469l3.343 2.718c.25.219.594.25.906.125a.814.814 0 0 0 .47-.75V2.22a.84.84 0 0 0-.845-.844H2.813a.84.84 0 0 0-.844.844v14.56c0 .344.187.625.468.75.313.157.626.094.907-.125l3.344-2.718c.375-.282.843-.47 1.312-.47Z"/>
</svg>
