<svg xmlns="http://www.w3.org/2000/svg" width="16" height="20" fill="currentColor" viewBox="0 0 16 20">
  <path d="M2.813 19.367c-.313 0-.626-.062-.907-.218-.75-.344-1.187-1.063-1.187-1.907V2.713c0-1.157.937-2.095 2.094-2.095h10.374c1.157 0 2.094.938 2.094 2.094v14.563c0 .812-.469 1.531-1.187 1.906-.75.344-1.594.25-2.219-.281l-3.344-2.72a.846.846 0 0 0-1.062 0l-3.344 2.719a2.048 2.048 0 0 1-1.313.468ZM8 14.712c.469 0 .938.156 1.313.469l3.343 2.719c.25.218.594.25.906.125a.814.814 0 0 0 .47-.75V2.71a.84.84 0 0 0-.845-.844H2.813a.84.84 0 0 0-.844.844v14.563c0 .343.187.625.468.75.313.156.626.093.907-.125l3.344-2.719c.375-.281.843-.469 1.312-.469Z"/>
</svg>
