<svg xmlns="http://www.w3.org/2000/svg" width="20" height="19" fill="currentColor" viewBox="0 0 20 19">
  <path d="M.5 9.997V6.5A5.75 5.75 0 0 1 6.25.75h7.501l.296.008A5.75 5.75 0 0 1 19.5 6.5V10a5.75 5.75 0 0 1-5.75 5.75h-1.445L7.2 18.669l-.09.043a.75.75 0 0 1-1.032-.694v-2.276c-3-.088-5.42-2.47-5.571-5.45L.5 9.997Zm1.5 0a4.25 4.25 0 0 0 4.23 4.25l.602.003a.75.75 0 0 1 .747.75v1.725l4.155-2.376.088-.043a.748.748 0 0 1 .284-.056h1.644A4.25 4.25 0 0 0 18 10V6.501a4.25 4.25 0 0 0-4.03-4.245l-.219-.006H6.25A4.25 4.25 0 0 0 2 6.5v3.497Z"/>
</svg>
