<svg xmlns="http://www.w3.org/2000/svg" width="20" height="21" fill="currentColor" viewBox="0 0 20 21">
  <path d="M18.616 1.883a4.736 4.736 0 0 0-6.688 0L8.583 5.227a.728.728 0 1 0 1.03 1.03l3.344-3.345a3.251 3.251 0 0 1 2.315-.954c.878 0 1.7.34 2.315.954a3.25 3.25 0 0 1 .954 2.316 3.25 3.25 0 0 1-.954 2.315l-4.373 4.374a3.28 3.28 0 0 1-4.63 0 .727.727 0 1 0-1.03 1.029 4.715 4.715 0 0 0 3.345 1.383 4.715 4.715 0 0 0 3.344-1.383l4.373-4.374a4.695 4.695 0 0 0 1.381-3.344c0-1.267-.49-2.455-1.38-3.345Z"/>
  <path d="m9.87 15.26-2.83 2.83a3.252 3.252 0 0 1-2.315.955 3.251 3.251 0 0 1-2.315-.954 3.278 3.278 0 0 1 0-4.631l4.116-4.117a3.252 3.252 0 0 1 2.315-.954c.878 0 1.7.34 2.315.954a.728.728 0 1 0 1.03-1.028 4.736 4.736 0 0 0-6.69 0L1.38 12.43A4.697 4.697 0 0 0 0 15.776c0 1.266.49 2.454 1.38 3.343A4.696 4.696 0 0 0 4.726 20.5c1.266 0 2.454-.49 3.344-1.38l2.83-2.83a.727.727 0 0 0-1.029-1.03Z"/>
</svg>
