<svg xmlns="http://www.w3.org/2000/svg" width="18" height="20" fill="none" viewBox="0 0 18 20">
  <path fill="#C5C5C5" stroke="currentColor" stroke-width=".1" d="M6.234 7.196c.286 0 .517.233.517.519v8.852a.518.518 0 0 1-1.036 0V7.715c0-.287.232-.519.519-.519Zm5.526 0c.287 0 .519.232.519.519v8.852a.518.518 0 0 1-1.037 0V7.715c0-.286.232-.519.518-.519Z"/>
  <path fill="#C5C5C5" stroke="currentColor" stroke-width=".1" d="m11.076-.05.187.008A1.891 1.891 0 0 1 12.98 1.85v.535h2.348a1.838 1.838 0 0 1 .51 3.604v11.504c0 .607-.196 1.183-.543 1.632l-.158.184a2.356 2.356 0 0 1-1.71.74H4.565a2.357 2.357 0 0 1-1.71-.74 2.634 2.634 0 0 1-.7-1.816V5.99a1.837 1.837 0 0 1 .51-3.604h2.348V1.85A1.892 1.892 0 0 1 5.567.5a1.891 1.891 0 0 1 1.35-.55h4.16ZM3.192 17.494c0 .858.605 1.52 1.373 1.52h8.863c.768 0 1.374-.662 1.374-1.52V6.044H3.192v11.45ZM2.664 3.423a.793.793 0 0 0 0 1.586H15.33a.793.793 0 0 0 0-1.586H2.664ZM6.916.987a.852.852 0 0 0-.615.247H6.3a.853.853 0 0 0-.251.616v.536h5.895V1.85a.852.852 0 0 0-.867-.863H6.916Z"/>
  <path fill="#C5C5C5" stroke="currentColor" stroke-width=".1" d="M8.997 7.196c.286 0 .518.233.518.519v8.852a.518.518 0 0 1-1.036 0V7.715c0-.287.232-.519.518-.519Z"/>
</svg>
