<svg xmlns="http://www.w3.org/2000/svg" width="20" height="20" fill="currentColor" viewBox="0 0 20 20">
  <path d="m19.118 10.443.009-.008c.012-.016.024-.028.032-.045.004-.004.004-.008.008-.012.008-.016.02-.033.029-.049 0-.004.004-.008.004-.008a.615.615 0 0 0 .024-.053c0-.004 0-.004.005-.008.008-.017.012-.037.02-.057 0-.005 0-.009.004-.009.004-.02.012-.036.012-.057 0-.008 0-.012.004-.02.005-.017.005-.033.009-.05.004-.024.004-.044.004-.069 0-.024 0-.045-.004-.069 0-.016-.005-.033-.009-.049 0-.008 0-.012-.004-.02l-.012-.058c0-.004 0-.008-.004-.008-.004-.02-.012-.036-.02-.057 0-.004 0-.004-.005-.008l-.024-.053c0-.004-.004-.008-.004-.008a.303.303 0 0 0-.029-.05c-.004-.003-.004-.007-.008-.012-.012-.016-.02-.032-.032-.044l-.009-.009c-.016-.016-.028-.036-.049-.053l-4.037-4.033a.702.702 0 0 0-.992.992L16.88 9.3H5.585a.701.701 0 1 0 0 1.4h11.3l-2.82 2.822a.702.702 0 0 0 .493 1.196.7.7 0 0 0 .494-.204l4.013-4.013a.758.758 0 0 1 .053-.058Z"/>
  <path d="M4.52 1.4h5.225a.701.701 0 1 0 0-1.4H4.52A3.807 3.807 0 0 0 .719 3.8v12.4c0 2.094 1.706 3.8 3.8 3.8h5.14a.701.701 0 1 0 0-1.4H4.52a2.404 2.404 0 0 1-2.4-2.4V3.8a2.404 2.404 0 0 1 2.4-2.4Z"/>
</svg>
