<svg xmlns="http://www.w3.org/2000/svg" width="21" height="20" fill="currentColor" viewBox="0 0 21 20">
  <path d="M19.5 6.558c0-1.353-.704-3.894-3.476-4.461l-.274-.05c-3-.45-4.583 2.387-5 3.327-.417-.94-2-3.777-5-3.326l-.274.049C2.704 2.664 2 5.205 2 6.558l.008.412c.075 2.03.734 3.653 2.492 5.774 1.406 1.697 4.219 3.711 5.537 4.612l.713.477c.027-.017 4.113-2.66 6.067-4.875l.183-.214c1.758-2.12 2.417-3.744 2.492-5.774l.008-.412Zm1.5 0c0 1.267-.18 2.44-.652 3.633-.41 1.031-1.016 2.021-1.831 3.06l-.363.45c-1.061 1.28-2.75 2.644-4.086 3.639a53.877 53.877 0 0 1-2.297 1.618l-.15.099-.04.026-.012.007-.004.002-.815.527-.814-.526-.001-.001-.004-.002-.011-.007-.041-.026a33.656 33.656 0 0 1-.689-.462 53.889 53.889 0 0 1-1.758-1.255c-1.252-.933-2.815-2.19-3.88-3.398l-.207-.241c-1-1.206-1.725-2.332-2.193-3.51C.68 9 .5 7.825.5 6.558c0-.921.239-2.226.98-3.407C2.253 1.918 3.556.861 5.526.564L5.91.52c1.887-.16 3.343.648 4.334 1.576.182.17.35.346.506.524.156-.178.324-.354.506-.524 1.057-.99 2.643-1.842 4.717-1.53l.362.064c1.769.364 2.96 1.366 3.685 2.522A6.605 6.605 0 0 1 21 6.559Z"/>
</svg>
