<svg xmlns="http://www.w3.org/2000/svg" width="32" height="33" fill="currentColor" viewBox="0 0 32 33">
  <path d="M15.725 25.875a9.375 9.375 0 1 0 0-18.75 9.375 9.375 0 0 0 0 18.75Z"/>
  <path d="M9.475 8.167H4.267a1.042 1.042 0 0 1-1.02-1.25l1.04-5.208a1.042 1.042 0 0 1 2.042.416l-.791 3.958h3.937a1.042 1.042 0 0 1 0 2.084Zm9.375 12.5c-.276 0-.541-.11-.736-.306l-3.125-3.125a1.041 1.041 0 0 1-.306-.736v-5.208a1.041 1.041 0 1 1 2.084 0v4.777l2.82 2.82a1.042 1.042 0 0 1-.737 1.778Z"/>
  <path d="M16.767 11.292a1.04 1.04 0 0 0-.236-.66l-.07-.078a1.043 1.043 0 0 0-.633-.3l-.103-.004c-.276 0-.54.11-.736.304l-.07.078a1.042 1.042 0 0 0-.236.66V16.5l.006.102c.024.239.129.463.3.634l3.125 3.125c.171.171.395.276.634.3l.102.006c.155 0 .307-.035.446-.1l.133-.076c.128-.086.235-.199.314-.33l.07-.138a1.05 1.05 0 0 0 .077-.45l-.018-.151a1.042 1.042 0 0 0-.185-.417l-.1-.117-2.82-2.82v-4.776ZM4.624.88a1.243 1.243 0 0 1 1.901 1.282h.001l-.744 3.72h3.693v.2H5.538l.792-3.958a1.042 1.042 0 0 0-.1-.695l-.052-.088a1.043 1.043 0 0 0-.561-.42l-.1-.026a1.043 1.043 0 0 0-.783.152l-.083.06a1.044 1.044 0 0 0-.363.6L3.247 6.918a1.04 1.04 0 0 0 .905 1.243l.115.007h5.208l.104-.005c.204-.02.398-.102.556-.232l.077-.069c.17-.17.277-.394.3-.633l.005-.103a1.04 1.04 0 0 0-.236-.66l-.07-.077a1.041 1.041 0 0 0-.632-.3l-.104-.005v-.2a1.242 1.242 0 1 1 0 2.484H4.267a1.242 1.242 0 0 1-1.216-1.49l1.04-5.208h.002l.03-.12c.084-.272.26-.51.5-.668Zm12.343 15.104 2.761 2.762.12.139a1.241 1.241 0 0 1-.815 1.966l-.183.014c-.288 0-.566-.1-.787-.281l-.09-.082-3.126-3.125a1.241 1.241 0 0 1-.357-.755l-.006-.123v-5.208a1.241 1.241 0 1 1 2.482 0v4.693Z"/>
  <path d="M15.734 32.125c-1.619 0-3.228-.252-4.77-.745a1.042 1.042 0 0 1 .635-1.979 13.541 13.541 0 1 0-3.104-24.35A1.042 1.042 0 1 1 7.382 3.29a15.625 15.625 0 1 1 8.352 28.836Z"/>
  <path d="M16.131.681A15.825 15.825 0 0 1 31.28 19.408l-.119.574A15.826 15.826 0 0 1 16.406 32.31l-.672.014c-1.64 0-3.27-.255-4.83-.754l-.013-.004a1.243 1.243 0 0 1 .64-2.382l.116.022.013.003-.06.188.06-.187a13.342 13.342 0 1 0-2.7-24.209l-.358.22a1.243 1.243 0 0 1-1.327-2.102l.5-.303A15.824 15.824 0 0 1 16.132.68Zm-.005.2a15.62 15.62 0 0 0-8.745 2.408l-.084.06a1.042 1.042 0 0 0-.376.592l-.017.101a1.044 1.044 0 0 0 1.11 1.168l.102-.012c.1-.018.198-.05.29-.096l.09-.05a13.541 13.541 0 0 1 5.972-2.032l.426-.033a13.542 13.542 0 0 1 13.43 18.475l-.164.395a13.54 13.54 0 0 1-3.775 5.055l-.332.267a13.543 13.543 0 0 1-5.742 2.616l-.42.074a13.542 13.542 0 0 1-6.292-.467 1.042 1.042 0 0 0-.757.102l-.084.052c-.188.13-.329.32-.4.54l-.025.094a1.04 1.04 0 0 0 .632 1.19c1.349.432 2.749.679 4.162.734l.607.011a15.625 15.625 0 0 0 9.225-3.02l.527-.404a15.625 15.625 0 0 0 5.32-8.119l.16-.644a15.625 15.625 0 0 0-.46-8.502l-.198-.544A15.625 15.625 0 0 0 25.2 4.077l-.465-.341a15.627 15.627 0 0 0-8.032-2.83L16.126.88Z"/>
  <path d="M15.608 32.125h-.01a15.682 15.682 0 0 1-4.396-.67 1.041 1.041 0 1 1 .602-1.995c1.238.375 2.524.57 3.817.582a1.042 1.042 0 0 1-.01 2.083h-.003Zm4.114-.555a1.041 1.041 0 0 1-.286-2.044 13.558 13.558 0 0 0 3.52-1.577 1.041 1.041 0 1 1 1.113 1.76 15.625 15.625 0 0 1-4.063 1.82 1.04 1.04 0 0 1-.284.042v-.001Zm-11.98-1.822c-.201 0-.399-.06-.568-.17a15.528 15.528 0 0 1-3.333-2.943 1.042 1.042 0 1 1 1.586-1.354A13.43 13.43 0 0 0 8.32 27.83a1.041 1.041 0 0 1-.571 1.915l-.005.004ZM2.41 23.492a1.041 1.041 0 0 1-.951-.616 15.528 15.528 0 0 1-1.22-4.28 1.042 1.042 0 0 1 2.064-.277A13.487 13.487 0 0 0 3.36 22.02a1.042 1.042 0 0 1-.95 1.468v.003Zm-1.1-8.145a1.041 1.041 0 0 1-1.032-1.199 15.703 15.703 0 0 1 1.288-4.257 1.042 1.042 0 1 1 1.888.88 13.623 13.623 0 0 0-1.115 3.69 1.041 1.041 0 0 1-1.028.886Zm3.47-7.449A1.042 1.042 0 0 1 4 6.167 15.612 15.612 0 0 1 7.381 3.29a1.042 1.042 0 1 1 1.114 1.76 13.541 13.541 0 0 0-2.932 2.492 1.042 1.042 0 0 1-.783.356Z"/>
  <path d="M10.916 29.363a1.24 1.24 0 0 1 .827-.124l.12.03.458.13a13.4 13.4 0 0 0 3.302.442h-.001a1.242 1.242 0 0 1-.01 2.483h-.017a15.889 15.889 0 0 1-3.907-.524l-.544-.154a1.242 1.242 0 0 1-.228-2.283Zm.889.096c-.265-.08-.55-.05-.794.08l-.088.053a1.042 1.042 0 0 0-.417.564l-.026.1a1.042 1.042 0 0 0 .722 1.199c1.248.377 2.537.597 3.838.655l.558.015h.013c.242 0 .475-.083.661-.234l.077-.068c.172-.17.279-.395.303-.633l.006-.103a1.042 1.042 0 0 0-.233-.66l-.069-.078a1.043 1.043 0 0 0-.633-.302l-.102-.005a13.599 13.599 0 0 1-3.816-.583ZM23.3 27.6a1.242 1.242 0 0 1 .875 2.277v.002a15.83 15.83 0 0 1-4.114 1.843c-.11.031-.223.048-.337.05l-.203.001v-.02a1.24 1.24 0 0 1-.14-2.418l.457-.14a13.357 13.357 0 0 0 3.01-1.414c.137-.09.29-.152.452-.182Zm.447.202a1.044 1.044 0 0 0-.411-.005l-.1.023a1.04 1.04 0 0 0-.281.13 13.56 13.56 0 0 1-3.519 1.577l-.088.03c-.204.078-.38.218-.5.403l-.047.08a1.041 1.041 0 0 0 .92 1.53c.097 0 .192-.013.285-.04a15.63 15.63 0 0 0 4.062-1.82c.089-.054.169-.12.237-.198l.065-.08c.06-.085.11-.177.142-.275l.029-.1c.023-.1.032-.204.025-.307l-.012-.103a1.04 1.04 0 0 0-.096-.294l-.05-.09a1.042 1.042 0 0 0-.203-.233l-.082-.064a1.04 1.04 0 0 0-.277-.137l-.1-.027ZM4.73 24.72c.329.026.634.181.848.432l.315.358c.75.82 1.601 1.543 2.533 2.152a1.244 1.244 0 0 1 .064 2.037 1.24 1.24 0 0 1-.669.242l-.01.008h-.07c-.18 0-.358-.04-.52-.115l-.158-.088a15.728 15.728 0 0 1-3.376-2.98A1.244 1.244 0 0 1 4.73 24.72Zm-.015.2a1.042 1.042 0 0 0-.404.047l-.096.037a1.02 1.02 0 0 0-.26.162l-.073.07a1.042 1.042 0 0 0-.178.249l-.042.094c-.037.095-.06.195-.068.298l-.003.102a1.043 1.043 0 0 0 .249.657 15.527 15.527 0 0 0 3.333 2.943c.127.083.27.136.419.158l.15.012.005-.004c.169 0 .334-.04.482-.117l.142-.09c.135-.1.244-.231.316-.381l.06-.156c.049-.162.057-.332.025-.497l-.045-.16a1.042 1.042 0 0 0-.277-.412l-.132-.102a13.436 13.436 0 0 1-2.892-2.548 1.043 1.043 0 0 0-.609-.35l-.102-.012Zm-3.609-7.677a1.241 1.241 0 0 1 1.37.927l.023.12v.003a13.29 13.29 0 0 0 1.04 3.647l.056.145a1.243 1.243 0 0 1-.594 1.453c-.123.067-.257.11-.394.133v.021h-.2a1.242 1.242 0 0 1-1.049-.576l-.084-.157A15.731 15.731 0 0 1 .04 18.623v-.004a1.242 1.242 0 0 1 1.068-1.377Zm.027.198-.101.019a1.042 1.042 0 0 0-.584.375l-.059.084c-.126.2-.181.44-.153.677.2 1.478.61 2.92 1.22 4.28a1.043 1.043 0 0 0 .802.606l.149.01v-.003c.13 0 .26-.024.38-.071l.118-.055c.115-.062.216-.146.299-.245l.077-.105c.07-.11.12-.23.147-.357l.017-.129c.01-.13-.004-.26-.042-.384l-.046-.122a13.487 13.487 0 0 1-1.055-3.701 1.043 1.043 0 0 0-.327-.613l-.079-.066a1.041 1.041 0 0 0-.763-.2Zm1.43-8.363a1.243 1.243 0 0 1 1.07 1.776v.001a13.425 13.425 0 0 0-1.099 3.638 1.242 1.242 0 1 1-2.455-.374l.095-.558a15.902 15.902 0 0 1 1.209-3.754 1.242 1.242 0 0 1 1.18-.73Zm-.008.2a1.044 1.044 0 0 0-.405.064l-.095.041a1.044 1.044 0 0 0-.253.175l-.072.074a1.042 1.042 0 0 0-.167.26l-.226.51a15.704 15.704 0 0 0-1.06 3.747l-.012.111a1.042 1.042 0 0 0 1.648.893l.073-.058c.189-.162.313-.386.35-.633a13.64 13.64 0 0 1 1.116-3.69 1.07 1.07 0 0 0 .092-.296l.01-.102a1.04 1.04 0 0 0-.03-.307l-.03-.099a1.044 1.044 0 0 0-.145-.271l-.065-.08a1.043 1.043 0 0 0-.24-.195l-.091-.047a1.041 1.041 0 0 0-.295-.088l-.103-.01Zm5.17-6.337a1.245 1.245 0 0 1 1.276.557 1.243 1.243 0 0 1-.043 1.391 1.243 1.243 0 0 1-.359.33l.001.001a13.341 13.341 0 0 0-2.888 2.455h-.001a1.24 1.24 0 0 1-.93.424H4.78a1.243 1.243 0 0 1-1.038-1.922l.108-.142A15.809 15.809 0 0 1 7.274 3.12c.137-.09.29-.151.451-.181Zm.447.202a1.042 1.042 0 0 0-.41-.006l-.101.025a1.04 1.04 0 0 0-.28.129A15.615 15.615 0 0 0 4 6.167c-.133.15-.22.336-.25.534l-.01.148a1.042 1.042 0 0 0 .89 1.038l.15.011c.111 0 .221-.019.326-.054l.104-.04c.135-.061.255-.15.352-.262A13.542 13.542 0 0 1 8.495 5.05c.088-.054.168-.12.236-.198l.066-.08c.06-.085.108-.178.141-.275l.029-.099c.023-.101.032-.205.025-.309l-.012-.102a1.05 1.05 0 0 0-.096-.293l-.051-.09a1.042 1.042 0 0 0-.201-.234l-.082-.064a1.042 1.042 0 0 0-.277-.136l-.1-.028Z"/>
  <path d="M9.475 8.167H4.267a1.042 1.042 0 0 1-1.02-1.25l1.04-5.208a1.042 1.042 0 0 1 2.042.416l-.791 3.958h3.937a1.042 1.042 0 0 1 0 2.084Z"/>
  <path d="M4.623.882a1.243 1.243 0 0 1 1.902 1.282l-.744 3.72h3.694v.2H5.537l.792-3.958a1.042 1.042 0 0 0-.1-.695l-.051-.088a1.043 1.043 0 0 0-.562-.42l-.1-.026a1.043 1.043 0 0 0-.782.152l-.083.06a1.044 1.044 0 0 0-.364.6l-1.04 5.209a1.041 1.041 0 0 0 .905 1.243l.115.007h5.208l.103-.005a1.04 1.04 0 0 0 .557-.232l.076-.069c.171-.17.277-.394.301-.633l.005-.103c0-.242-.085-.475-.236-.66l-.07-.077a1.041 1.041 0 0 0-.633-.3l-.103-.005v-.2a1.242 1.242 0 1 1 0 2.484H4.267a1.242 1.242 0 0 1-1.217-1.49L4.091 1.67h.001l.03-.12c.085-.272.26-.51.501-.668Z"/>
</svg>
