<svg xmlns="http://www.w3.org/2000/svg" width="32" height="33" fill="currentColor" viewBox="0 0 32 33">
  <path d="M9.675 8.367H4.467a1.041 1.041 0 0 1-1.02-1.25l1.041-5.208a1.042 1.042 0 1 1 2.042.416l-.792 3.959h3.937a1.042 1.042 0 0 1 0 2.083Zm9.375 12.5c-.276 0-.54-.11-.736-.306l-3.125-3.124a1.042 1.042 0 0 1-.305-.737v-5.208a1.042 1.042 0 0 1 2.083 0v4.777l2.82 2.82a1.042 1.042 0 0 1-.737 1.778Z"/>
  <path d="M16.968 11.492a1.04 1.04 0 0 0-.237-.66l-.07-.077a1.043 1.043 0 0 0-.633-.3l-.102-.005c-.277 0-.542.11-.737.305l-.07.077a1.043 1.043 0 0 0-.236.66V16.7l.006.102c.024.239.13.463.3.634l3.125 3.125c.171.171.395.276.634.3l.102.006c.155 0 .307-.035.446-.1l.133-.076c.128-.086.235-.199.314-.33l.07-.138a1.04 1.04 0 0 0 .078-.449l-.019-.152a1.042 1.042 0 0 0-.185-.417l-.1-.116-2.82-2.82v-4.777ZM4.824 1.08a1.243 1.243 0 0 1 1.901 1.282l.001.001-.744 3.72h3.694v.199H5.738l.792-3.958a1.042 1.042 0 0 0-.1-.694l-.051-.088a1.043 1.043 0 0 0-.562-.421l-.1-.026a1.043 1.043 0 0 0-.783.152l-.083.06a1.044 1.044 0 0 0-.363.6L3.447 7.118a1.041 1.041 0 0 0 .905 1.243l.116.007h5.208l.103-.005c.204-.02.398-.101.557-.231l.076-.07c.17-.17.277-.394.3-.633l.005-.103a1.04 1.04 0 0 0-.236-.66l-.07-.076a1.041 1.041 0 0 0-.632-.3l-.103-.006v-.2a1.242 1.242 0 1 1 0 2.484H4.468a1.242 1.242 0 0 1-1.217-1.49l1.04-5.208h.002l.03-.12c.084-.272.26-.51.501-.668Zm12.343 15.104 2.761 2.762.12.139a1.241 1.241 0 0 1-.815 1.966l-.183.014c-.288 0-.566-.1-.787-.281l-.09-.082-3.125-3.125a1.241 1.241 0 0 1-.358-.755l-.006-.123v-5.208a1.241 1.241 0 1 1 2.483 0v4.693Z"/>
  <path d="M15.934 32.325c-1.619 0-3.227-.252-4.769-.745a1.041 1.041 0 0 1 .634-1.979 13.542 13.542 0 1 0-3.104-24.35A1.042 1.042 0 1 1 7.582 3.49a15.625 15.625 0 1 1 8.352 28.836Z"/>
  <path d="M16.331.881A15.825 15.825 0 0 1 31.48 19.61l-.118.573a15.826 15.826 0 0 1-14.756 12.33l-.672.014c-1.64 0-3.269-.256-4.83-.755l-.013-.004a1.243 1.243 0 0 1 .64-2.382l.116.023.014.002-.06.188.06-.186a13.342 13.342 0 1 0-2.7-24.21l-.359.22A1.242 1.242 0 0 1 7.475 3.32l.5-.304A15.825 15.825 0 0 1 16.332.88Zm-.005.2A15.61 15.61 0 0 0 7.582 3.49l-.084.06a1.042 1.042 0 0 0-.376.591l-.017.102a1.044 1.044 0 0 0 1.11 1.167l.102-.012c.1-.018.198-.05.29-.096l.09-.05a13.54 13.54 0 0 1 5.972-2.032l.426-.033a13.542 13.542 0 0 1 13.43 18.476l-.163.394a13.54 13.54 0 0 1-3.776 5.055l-.332.267a13.543 13.543 0 0 1-5.742 2.616l-.42.075a13.542 13.542 0 0 1-6.292-.468 1.042 1.042 0 0 0-.757.102l-.084.052c-.188.13-.329.32-.4.54l-.024.094a1.04 1.04 0 0 0 .631 1.19c1.35.432 2.75.679 4.162.734l.607.011a15.625 15.625 0 0 0 9.226-3.02l.526-.403a15.626 15.626 0 0 0 5.321-8.12l.16-.644a15.625 15.625 0 0 0-.46-8.502l-.199-.544a15.625 15.625 0 0 0-5.106-6.814l-.466-.342a15.627 15.627 0 0 0-8.031-2.83l-.579-.026Z"/>
  <path d="M15.809 32.325h-.01a15.682 15.682 0 0 1-4.397-.67 1.041 1.041 0 1 1 .602-1.994c1.239.374 2.524.57 3.817.58a1.042 1.042 0 0 1-.01 2.084h-.002Zm4.113-.555a1.04 1.04 0 0 1-.285-2.044 13.558 13.558 0 0 0 3.518-1.577 1.041 1.041 0 1 1 1.114 1.76 15.625 15.625 0 0 1-4.063 1.82 1.04 1.04 0 0 1-.284.042v-.001ZM7.943 29.948c-.202 0-.4-.06-.569-.17a15.528 15.528 0 0 1-3.333-2.942 1.042 1.042 0 1 1 1.586-1.354 13.43 13.43 0 0 0 2.892 2.547 1.041 1.041 0 0 1-.57 1.915l-.006.004Zm-5.334-6.256a1.041 1.041 0 0 1-.951-.616 15.528 15.528 0 0 1-1.22-4.28 1.042 1.042 0 0 1 2.064-.277 13.487 13.487 0 0 0 1.057 3.702 1.042 1.042 0 0 1-.95 1.468v.003Zm-1.1-8.145a1.043 1.043 0 0 1-1.031-1.199 15.703 15.703 0 0 1 1.287-4.257 1.042 1.042 0 1 1 1.889.88 13.623 13.623 0 0 0-1.116 3.69 1.042 1.042 0 0 1-1.028.886Zm3.472-7.449a1.042 1.042 0 0 1-.78-1.73A15.612 15.612 0 0 1 7.58 3.49a1.042 1.042 0 1 1 1.114 1.76 13.542 13.542 0 0 0-2.932 2.492 1.042 1.042 0 0 1-.782.356Z"/>
  <path d="M11.116 29.563a1.24 1.24 0 0 1 .827-.124l.12.03.458.13a13.4 13.4 0 0 0 3.302.443 1.241 1.241 0 1 1-.012 2.482v.001h-.015a15.889 15.889 0 0 1-3.907-.524l-.544-.155a1.242 1.242 0 0 1-.229-2.283Zm.889.097c-.265-.08-.55-.05-.794.08l-.088.053a1.042 1.042 0 0 0-.417.563l-.025.1a1.042 1.042 0 0 0 .721 1.199c1.248.377 2.537.597 3.838.655l.558.015h.013c.242 0 .475-.083.662-.234l.077-.068a1.04 1.04 0 0 0 .302-.633l.006-.102a1.042 1.042 0 0 0-.233-.662l-.069-.077a1.043 1.043 0 0 0-.632-.302l-.103-.005a13.598 13.598 0 0 1-3.816-.582ZM23.5 27.798a1.242 1.242 0 0 1 .875 2.279 15.83 15.83 0 0 1-4.113 1.845l-.001-.002c-.11.032-.223.05-.337.05l-.203.002v-.02a1.24 1.24 0 0 1-.14-2.418l.457-.14a13.36 13.36 0 0 0 3.01-1.414c.138-.09.291-.152.452-.182Zm.447.204a1.044 1.044 0 0 0-.411-.006l-.1.023c-.1.029-.194.073-.28.13a13.556 13.556 0 0 1-3.52 1.577l-.088.03c-.204.078-.38.218-.5.403l-.047.08a1.04 1.04 0 0 0 .92 1.53v.001c.097 0 .193-.014.285-.04a15.63 15.63 0 0 0 4.062-1.821c.089-.054.17-.12.238-.197l.064-.082c.061-.084.11-.176.143-.274l.028-.1c.024-.1.032-.204.025-.307l-.012-.103a1.04 1.04 0 0 0-.096-.294l-.05-.09a1.04 1.04 0 0 0-.203-.233l-.082-.063a1.04 1.04 0 0 0-.276-.138l-.1-.026ZM4.931 24.92c.329.025.634.18.848.431h.001l.315.358c.75.82 1.6 1.544 2.532 2.152a1.244 1.244 0 0 1 .064 2.037 1.24 1.24 0 0 1-.669.242l-.01.008h-.07c-.18 0-.358-.04-.52-.115l-.158-.088a15.728 15.728 0 0 1-3.376-2.98 1.244 1.244 0 0 1 1.043-2.046Zm-.015.199a1.042 1.042 0 0 0-.403.048l-.097.036a.997.997 0 0 0-.259.162l-.074.07a1.042 1.042 0 0 0-.178.25l-.042.093a1.05 1.05 0 0 0-.068.298l-.003.102a1.043 1.043 0 0 0 .249.657 15.527 15.527 0 0 0 3.333 2.943c.127.083.27.136.419.158l.15.012.005-.004c.169 0 .334-.04.482-.117l.142-.09c.135-.1.244-.23.317-.381l.06-.156c.048-.162.056-.332.024-.496l-.044-.161a1.042 1.042 0 0 0-.278-.412l-.132-.102a13.435 13.435 0 0 1-2.892-2.548 1.043 1.043 0 0 0-.609-.35l-.102-.012Zm-3.609-7.677a1.242 1.242 0 0 1 1.37.928l.023.119.001.003H2.7c.17 1.259.522 2.488 1.041 3.647l.055.145a1.242 1.242 0 0 1-.594 1.453c-.123.067-.256.11-.394.133v.021h-.2a1.242 1.242 0 0 1-1.049-.576l-.084-.157A15.731 15.731 0 0 1 .24 18.823v-.004a1.242 1.242 0 0 1 1.068-1.377Zm.027.198-.1.019a1.042 1.042 0 0 0-.585.376l-.058.083c-.127.2-.182.44-.154.678.2 1.477.61 2.92 1.22 4.28a1.043 1.043 0 0 0 .802.605l.15.011v-.004c.13 0 .259-.024.38-.071l.117-.055c.115-.062.216-.146.3-.245l.076-.105c.071-.109.12-.23.147-.357l.017-.129c.01-.13-.004-.26-.042-.384l-.046-.122a13.488 13.488 0 0 1-1.055-3.7 1.043 1.043 0 0 0-.326-.614l-.08-.066a1.041 1.041 0 0 0-.763-.2Zm1.43-8.363a1.243 1.243 0 0 1 1.07 1.776v.001a13.425 13.425 0 0 0-1.099 3.638 1.242 1.242 0 1 1-2.455-.374l.095-.558a15.903 15.903 0 0 1 1.209-3.754 1.242 1.242 0 0 1 1.18-.73Zm-.007.2a1.045 1.045 0 0 0-.406.065l-.094.04a1.044 1.044 0 0 0-.254.175l-.072.075a1.042 1.042 0 0 0-.167.258l-.226.511a15.706 15.706 0 0 0-1.06 3.747l-.011.111a1.042 1.042 0 0 0 1.647.893l.073-.058a1.03 1.03 0 0 0 .35-.632c.196-1.277.571-2.52 1.116-3.692.045-.093.076-.193.092-.295l.01-.102a1.04 1.04 0 0 0-.03-.307l-.029-.098a1.042 1.042 0 0 0-.145-.272l-.066-.08a1.044 1.044 0 0 0-.24-.194l-.09-.048a1.042 1.042 0 0 0-.296-.088l-.102-.009ZM7.926 3.14a1.245 1.245 0 0 1 1.276.557 1.243 1.243 0 0 1-.043 1.391 1.243 1.243 0 0 1-.358.33v.002a13.341 13.341 0 0 0-2.888 2.455l-.001-.001a1.24 1.24 0 0 1-.93.424H4.98a1.243 1.243 0 0 1-1.038-1.921l.109-.143c.996-1.13 2.15-2.11 3.423-2.913.137-.09.29-.15.452-.18Zm.447.202a1.042 1.042 0 0 0-.41-.006l-.1.025a1.04 1.04 0 0 0-.281.129A15.615 15.615 0 0 0 4.2 6.367a1.04 1.04 0 0 0-.249.534l-.012.148a1.042 1.042 0 0 0 .892 1.038l.15.011c.11 0 .22-.019.325-.053l.104-.04c.135-.062.255-.152.353-.263A13.542 13.542 0 0 1 8.695 5.25c.089-.054.168-.122.236-.199l.066-.08c.06-.085.108-.177.142-.275l.028-.099c.023-.1.032-.205.025-.308l-.012-.103a1.05 1.05 0 0 0-.096-.293l-.051-.09a1.042 1.042 0 0 0-.201-.234l-.082-.064a1.042 1.042 0 0 0-.277-.136l-.1-.028Z"/>
  <path d="M9.675 8.367H4.467a1.041 1.041 0 0 1-1.02-1.25l1.041-5.208a1.042 1.042 0 1 1 2.042.416l-.792 3.959h3.937a1.042 1.042 0 0 1 0 2.083Z"/>
  <path d="M4.823 1.082a1.243 1.243 0 0 1 1.902 1.282v.001l-.743 3.72h3.693v.199H5.738l.792-3.958a1.042 1.042 0 0 0-.1-.694l-.052-.088a1.043 1.043 0 0 0-.561-.421l-.1-.026a1.043 1.043 0 0 0-.783.152l-.083.06a1.044 1.044 0 0 0-.363.6l-1.041 5.21a1.041 1.041 0 0 0 .905 1.243l.115.007h5.208l.104-.005c.204-.02.397-.101.556-.231l.076-.07c.171-.17.277-.394.301-.633l.005-.103a1.04 1.04 0 0 0-.236-.66l-.07-.076a1.041 1.041 0 0 0-.632-.3l-.104-.006v-.2a1.242 1.242 0 1 1 0 2.484H4.467a1.243 1.243 0 0 1-1.217-1.49L4.291 1.87h.001l.03-.12c.085-.272.261-.51.501-.668Z"/>
</svg>
