<svg xmlns="http://www.w3.org/2000/svg" width="32" height="32" fill="currentColor" viewBox="0 0 32 32">
  <path d="m28.755 8.528-8.75-7a6.892 6.892 0 0 0-8.655 0l-8.75 7A6.895 6.895 0 0 0 0 13.937v10.322a6.936 6.936 0 0 0 6.927 6.927h17.5a6.935 6.935 0 0 0 6.927-6.927V13.937a6.895 6.895 0 0 0-2.599-5.409Z"/>
  <path d="M21.777 25.09h-11.2c-.371 0-.727-.077-.99-.213-.262-.137-.41-.322-.41-.515s.148-.378.41-.515c.263-.137.619-.213.99-.213h11.2c.371 0 .728.076.99.213.263.137.41.322.41.515s-.147.378-.41.515c-.262.136-.619.213-.99.213Z"/>
  <path d="M24.427 31.186h-17.5A6.936 6.936 0 0 1 0 24.26V13.94a6.892 6.892 0 0 1 2.599-5.41l8.75-7a6.895 6.895 0 0 1 8.656 0l8.75 7a6.898 6.898 0 0 1 2.6 5.411v10.32a6.936 6.936 0 0 1-6.928 6.926Zm-20.46-20.95a4.724 4.724 0 0 0-1.78 3.703v10.32A4.746 4.746 0 0 0 6.928 29h17.5a4.745 4.745 0 0 0 4.74-4.74V13.94a4.723 4.723 0 0 0-1.78-3.703l-8.75-7a4.71 4.71 0 0 0-5.92 0l-8.75 7Z"/>
</svg>
