<svg xmlns="http://www.w3.org/2000/svg" width="33" height="33" fill="currentColor" viewBox="0 0 33 33">
  <path d="M32.177 14.929a6.9 6.9 0 0 0-.521-2.648l-.16-.355A6.895 6.895 0 0 0 29.58 9.52l-8.75-7A6.894 6.894 0 0 0 16.795.997L16.5.991c-1.574 0-3.101.54-4.327 1.529l-8.75 7-.297.25a6.896 6.896 0 0 0-1.623 2.156l-.158.355a6.897 6.897 0 0 0-.522 2.648V25.25l.009.344a6.936 6.936 0 0 0 6.575 6.575l.343.009h17.5a6.937 6.937 0 0 0 4.647-1.795l.248-.238a6.936 6.936 0 0 0 2.024-4.551l.008-.344V14.929Zm.2 10.322a7.135 7.135 0 0 1-7.127 7.126H7.75a7.137 7.137 0 0 1-7.127-7.126V14.929a7.095 7.095 0 0 1 2.675-5.566l8.75-7 .24-.184a7.092 7.092 0 0 1 8.666.184l8.75 7h-.001a7.097 7.097 0 0 1 2.674 5.566V25.25Z"/>
  <path d="M22.6 26.081H11.4c-.371 0-.727-.076-.99-.213-.262-.137-.41-.322-.41-.515s.148-.378.41-.515c.263-.136.619-.213.99-.213h11.2c.371 0 .727.077.99.213.262.137.41.322.41.515s-.148.378-.41.515c-.263.137-.619.213-.99.213Z"/>
  <path d="M9.8 25.354c0-.303.228-.542.517-.693.298-.155.688-.236 1.083-.236v.2l-.274.014a2.03 2.03 0 0 0-.716.199l-.093.054c-.204.13-.317.293-.317.462l.007.07c.032.168.173.325.403.444.197.103.447.171.716.2l.274.013h11.2l.274-.014c.225-.023.435-.075.613-.151l.103-.048c.23-.12.371-.276.403-.443l.007-.072c0-.169-.113-.332-.317-.461l-.093-.054a2.03 2.03 0 0 0-.716-.2l-.274-.013v-.2c.395 0 .785.081 1.083.236.29.151.517.39.517.692 0 .303-.227.542-.517.693-.298.155-.688.235-1.083.235H11.4c-.395 0-.785-.08-1.083-.235-.29-.15-.517-.39-.517-.692Zm12.8-.93v.201H11.4v-.2h11.2Z"/>
  <path d="M25.25 32.178H7.75A6.936 6.936 0 0 1 .823 25.25V14.93a6.892 6.892 0 0 1 2.599-5.41l8.75-7a6.895 6.895 0 0 1 8.656 0l8.75 7a6.898 6.898 0 0 1 2.599 5.41v10.32a6.936 6.936 0 0 1-6.927 6.927ZM4.79 11.228a4.723 4.723 0 0 0-1.78 3.702v10.32a4.745 4.745 0 0 0 4.74 4.74h17.5a4.746 4.746 0 0 0 4.74-4.74V14.93a4.724 4.724 0 0 0-1.78-3.703l-8.75-7a4.71 4.71 0 0 0-5.92 0l-8.75 7Z"/>
  <path d="M.832 25.594a6.937 6.937 0 0 0 6.575 6.575l.343.009h17.5l.343-.01a6.936 6.936 0 0 0 4.304-1.785l.248-.236a6.938 6.938 0 0 0 2.024-4.553l.008-.343v-10.32a6.9 6.9 0 0 0-.521-2.647l-.16-.355A6.898 6.898 0 0 0 29.58 9.52l-8.75-7A6.896 6.896 0 0 0 16.794.999L16.5.993a6.895 6.895 0 0 0-4.329 1.528l-8.75 7a6.894 6.894 0 0 0-1.919 2.407l-.158.355a6.892 6.892 0 0 0-.521 2.647v10.32l.009.343ZM29.79 14.93a4.525 4.525 0 0 0-1.51-3.382l-.195-.164-8.75-7v-.001a4.511 4.511 0 0 0-5.67 0l-8.75 7a4.524 4.524 0 0 0-1.698 3.292l-.007.255v10.32l.006.226a4.546 4.546 0 0 0 4.535 4.314h17.498v.2H7.75l-.234-.006a4.746 4.746 0 0 1-2.944-1.221L4.4 28.6a4.746 4.746 0 0 1-1.384-3.116l-.006-.234V14.93a4.724 4.724 0 0 1 .358-1.812l.108-.243a4.723 4.723 0 0 1 1.11-1.476l.204-.171 8.75-7A4.71 4.71 0 0 1 16.5 3.18l.202.004a4.712 4.712 0 0 1 2.758 1.043l8.75 7a4.725 4.725 0 0 1 1.78 3.702V25.25l-.007.234a4.746 4.746 0 0 1-1.384 3.116l-.17.162a4.746 4.746 0 0 1-3.18 1.227v-.2a4.546 4.546 0 0 0 4.54-4.539V14.93Zm2.587 10.321a7.137 7.137 0 0 1-7.127 7.127H7.75a7.137 7.137 0 0 1-7.118-6.773l-.01-.354V14.93a7.094 7.094 0 0 1 2.675-5.566l8.75-6.999.239-.185a7.096 7.096 0 0 1 8.668.185l8.749 7 .306.258a7.099 7.099 0 0 1 2.367 5.309V25.25Z"/>
</svg>
