<svg xmlns="http://www.w3.org/2000/svg" width="20" height="20" fill="currentColor" viewBox="0 0 20 20">
  <path d="M16.667 4.167a.834.834 0 0 0-.834-.834H4.167a.834.834 0 0 0-.834.834v11.666c0 .46.374.834.834.834h11.666c.46 0 .834-.374.834-.834V4.167Zm1.666 11.666a2.5 2.5 0 0 1-2.5 2.5H4.167a2.5 2.5 0 0 1-2.5-2.5V4.167a2.5 2.5 0 0 1 2.5-2.5h11.666a2.5 2.5 0 0 1 2.5 2.5v11.666Z"/>
  <path d="M8.333 7.5a.834.834 0 1 0-1.668 0 .834.834 0 0 0 1.668 0ZM10 7.5a2.5 2.5 0 1 1-5.001-.001A2.5 2.5 0 0 1 10 7.5Zm3.75 1.107a2.5 2.5 0 0 1 1.768.732l2.57 2.572.058.063a.833.833 0 0 1-1.172 1.172l-.063-.057-2.572-2.571a.834.834 0 0 0-1.117-.055l-.06.055-7.573 7.57a.832.832 0 1 1-1.178-1.177l7.571-7.572.184-.166a2.5 2.5 0 0 1 1.584-.566Z"/>
</svg>
