<svg xmlns="http://www.w3.org/2000/svg" width="32" height="32" fill="currentColor" viewBox="0 0 32 32">
  <path d="M2 2h27v27H2V2Z"/>
  <path d="M25.862 0H5.452A5.451 5.451 0 0 0 0 5.451V25.8a5.451 5.451 0 0 0 5.451 5.451H25.8a5.45 5.45 0 0 0 5.451-5.451V5.388A5.383 5.383 0 0 0 25.862 0Zm2.853 25.799a2.908 2.908 0 0 1-2.916 2.916H5.45a2.908 2.908 0 0 1-2.915-2.916V5.388A2.908 2.908 0 0 1 5.45 2.472H25.8a2.908 2.908 0 0 1 2.916 2.916v20.41Z"/>
  <g clip-path="url(#a)">
    <path d="M9.774 11.553h12.562c1.433 0 1.433-2.553 0-2.553H9.774c-1.432 0-1.432 2.553 0 2.553Zm15.152 2.553H7.074c-1.432 0-1.432 2.554 0 2.554h17.797c1.487 0 1.487-2.554.055-2.554Zm0 5.107H7.129c-1.432 0-1.432 2.553 0 2.553h17.797c1.432 0 1.432-2.553 0-2.553Zm0 5.234H7.129c-1.432 0-1.432 2.553 0 2.553h17.797c1.432 0 1.432-2.553 0-2.553Z"/>
  </g>
  <defs>
    <clipPath id="a">
      <path d="M4 9h23v13H4z"/>
    </clipPath>
  </defs>
</svg>
