<svg xmlns="http://www.w3.org/2000/svg" width="20" height="21" fill="currentColor" viewBox="0 0 20 21">
  <path d="M16.552.5H3.489A3.489 3.489 0 0 0 0 3.989V17.01a3.489 3.489 0 0 0 3.489 3.49H16.51A3.489 3.489 0 0 0 20 17.011V3.948A3.445 3.445 0 0 0 16.552.5Zm1.825 16.511a1.861 1.861 0 0 1-1.866 1.866H3.49a1.861 1.861 0 0 1-1.866-1.866V3.948A1.86 1.86 0 0 1 3.49 2.082h13.02c1.014 0 1.866.812 1.866 1.866v13.063Z"/>
  <path d="M5.857 7.924h8.844c1.008 0 1.008-1.664 0-1.664H5.857c-1.008 0-1.008 1.664 0 1.664Zm10.667 1.664H3.957c-1.009 0-1.009 1.664 0 1.664h12.528c1.047 0 1.047-1.664.039-1.664Zm0 3.328H3.995c-1.008 0-1.008 1.664 0 1.664h12.529c1.008 0 1.008-1.664 0-1.664Z"/>
</svg>
