<svg xmlns="http://www.w3.org/2000/svg" width="20" height="21" fill="currentColor" viewBox="0 0 20 21">
  <path d="M16.552.125H3.489A3.489 3.489 0 0 0 0 3.614v13.022a3.489 3.489 0 0 0 3.489 3.489H16.51A3.489 3.489 0 0 0 20 16.636V3.573A3.445 3.445 0 0 0 16.552.125Zm1.825 16.511a1.861 1.861 0 0 1-1.866 1.866H3.49a1.861 1.861 0 0 1-1.866-1.866V3.573A1.86 1.86 0 0 1 3.49 1.707h13.02c1.014 0 1.866.812 1.866 1.866v13.063Z"/>
  <path d="M5.395 6.062h9.25c1.054 0 1.054-1.623 0-1.623h-9.25c-1.055 0-1.055 1.623 0 1.623Zm11.156 1.623H3.407c-1.054 0-1.054 1.623 0 1.623h13.104c1.095 0 1.095-1.623.04-1.623Zm0 3.245H3.448c-1.055 0-1.055 1.623 0 1.623H16.55c1.055 0 1.055-1.623 0-1.623Zm0 3.327H3.448c-1.055 0-1.055 1.623 0 1.623H16.55c1.055 0 1.055-1.623 0-1.623Z"/>
</svg>
