<svg xmlns="http://www.w3.org/2000/svg" width="16" height="16" fill="currentColor" viewBox="0 0 16 16">
  <path d="m14 3.333.135.014a.667.667 0 0 1 0 1.306L14 4.667H2a.667.667 0 0 1 0-1.334h12Z"/>
  <path d="M2.666 13.333V4A.667.667 0 0 1 4 4v9.333c0 .116.064.289.22.445.157.157.33.222.446.222h6.667c.117 0 .289-.065.445-.222.157-.156.222-.329.222-.445V4a.667.667 0 1 1 1.333 0v9.333c0 .55-.269 1.045-.612 1.389-.344.343-.838.611-1.388.611H4.666c-.55 0-1.044-.268-1.388-.611-.343-.344-.612-.839-.612-1.389Z"/>
  <path d="M10 4V2.666c0-.116-.065-.289-.222-.445C9.622 2.064 9.45 2 9.333 2H6.666c-.116 0-.289.064-.445.22-.157.157-.22.33-.221.446V4a.667.667 0 0 1-1.334 0V2.666c0-.55.269-1.044.612-1.388.344-.343.838-.612 1.388-.612h2.667c.55 0 1.044.269 1.388.612.343.344.612.838.612 1.388V4A.667.667 0 0 1 10 4Zm-4 7.333v-4a.667.667 0 0 1 1.334 0v4a.667.667 0 0 1-1.334 0Zm2.666 0v-4a.667.667 0 0 1 1.334 0v4a.667.667 0 0 1-1.334 0Z"/>
</svg>
