<svg xmlns="http://www.w3.org/2000/svg" width="20" height="18" fill="currentColor" viewBox="0 0 20 18">
  <path d="M2.067 9.657a.75.75 0 0 1 .649-.02l3.97 1.766a.75.75 0 1 1-.609 1.37L3.751 11.74c1.08 2.356 3.52 4.011 6.367 4.011 3.154 0 5.802-2.029 6.665-4.79a.751.751 0 0 1 1.433.448c-1.06 3.392-4.294 5.842-8.098 5.842-3.218 0-6.027-1.754-7.458-4.347l-.395 1.98a.75.75 0 0 1-1.471-.295l.882-4.411.735.146h.001l-.736-.146a.752.752 0 0 1 .391-.52Zm.867 2.11.01-.003-.06.024.05-.021Zm14.684-4.091.736.147a.751.751 0 0 1-1.04.54l-3.971-1.766a.75.75 0 1 1 .61-1.37l2.324 1.033c-1.08-2.355-3.518-4.01-6.365-4.01-3.153 0-5.803 2.029-6.666 4.79a.75.75 0 0 1-1.431-.448C2.875 3.2 6.108.75 9.912.75c3.218 0 6.026 1.752 7.457 4.345l.396-1.978a.75.75 0 0 1 1.47.295l-.881 4.411-.736-.147Zm-14.66 4.082-.074.027.05-.018.023-.01Z"/>
</svg>
