<svg xmlns="http://www.w3.org/2000/svg" width="19" height="18" fill="currentColor" viewBox="0 0 19 18">
  <path d="M.75 13.16V9.991a.75.75 0 0 1 1.5 0v3.167a2.603 2.603 0 0 0 2.602 2.603h9.128a2.602 2.602 0 0 0 2.602-2.603V9.992a.75.75 0 0 1 1.5 0v3.167a4.102 4.102 0 0 1-4.102 4.103H4.852A4.103 4.103 0 0 1 .75 13.159Zm7.717-1.185V2.923L6.575 4.567a.75.75 0 0 1-.984-1.133L8.725.714l.491.566h.001L8.725.713a.75.75 0 0 1 .985.001l3.116 2.72a.75.75 0 1 1-.987 1.13L9.967 2.93v9.045a.75.75 0 0 1-1.5 0Z"/>
</svg>
