<svg width="100" height="100" viewBox="0 0 100 100" fill="none" xmlns="http://www.w3.org/2000/svg">
<path d="M98.864 59.1361L87.5004 31.0604C87.1519 30.1967 86.5004 29.5301 85.6367 29.1664C84.7731 28.8179 83.8185 28.8331 82.97 29.2119L74.1216 33.1513C72.6216 33.7876 71.8185 35.424 72.1367 36.9846L69.7882 38.3028C69.0004 38.7573 68.0458 38.924 67.1216 38.8028L50.8034 36.3937C49.3925 36.1934 47.9546 36.3157 46.5978 36.7514C45.241 37.187 44.0006 37.9247 42.97 38.9089L41.7731 40.0604H32.7125C32.3034 40.0604 31.8943 39.9089 31.5913 39.6361L30.7882 38.9543C31.3488 37.5755 30.97 35.9695 29.7579 35.0149L22.9094 29.6058C22.1822 29.0301 21.2731 28.7725 20.3488 28.9089C19.4397 29.0301 18.6064 29.5301 18.061 30.2573L1.56096 52.621C0.470048 54.0907 0.727624 56.1513 2.18217 57.3179L9.0155 62.7119C9.37521 62.9965 9.78902 63.2051 10.2318 63.3249C10.6746 63.4447 11.1371 63.4733 11.5913 63.4089C12.0432 63.3491 12.4781 63.1972 12.869 62.9626C13.2599 62.7281 13.5985 62.4158 13.864 62.0452L13.9246 61.9695L14.9094 62.7119C15.4852 63.121 15.8185 63.8179 15.8185 64.5452V68.621L13.2731 71.8937C11.0004 74.8483 11.5155 79.1058 14.4549 81.3785C15.6519 82.3179 17.1064 82.8179 18.6064 82.8179C18.8791 82.8179 19.167 82.8028 19.4397 82.7725C19.7428 82.727 20.0307 82.6513 20.3185 82.5755C20.3185 82.6664 20.3034 82.7422 20.3034 82.8331C20.3034 84.7725 21.1822 86.5907 22.6973 87.8331C23.8791 88.7725 25.3034 89.2422 26.7125 89.2422C27.5913 89.2422 28.47 89.0452 29.2882 88.6967V88.7725C29.5003 90.3634 30.3337 91.7725 31.5458 92.6664L31.8185 92.8785C33.0791 93.8141 34.6592 94.2119 36.2125 93.9846C36.864 93.8937 37.4549 93.6664 38.0307 93.3786C38.3488 94.9998 39.2731 96.3937 40.6519 97.2725L40.8488 97.4089C41.5089 97.846 42.2499 98.1462 43.028 98.292C43.8062 98.4377 44.6056 98.4259 45.3791 98.2573C46.97 97.924 48.3185 96.9846 49.2125 95.621L49.4701 95.227C50.5458 96.0452 51.8337 96.4695 53.2125 96.4695C54.8337 96.4695 56.4246 95.8028 57.5761 94.6664C58.2398 94.0026 58.7443 93.1968 59.0513 92.3097C59.3584 91.4226 59.4601 90.4773 59.3488 89.5452C60.274 89.6799 61.2179 89.5911 62.1017 89.2863C62.9855 88.9814 63.7834 88.4693 64.4287 87.7929C65.074 87.1164 65.5479 86.2953 65.8108 85.3981C66.0737 84.5009 66.1179 83.5539 65.9397 82.6361C67.9549 82.7573 69.9397 81.9543 71.3034 80.3331C71.9253 79.5986 72.3758 78.7347 72.6222 77.8043C72.8685 76.8739 72.9046 75.9004 72.7276 74.9543C74.561 75.1513 76.4246 74.5149 77.7882 73.1816C79.2882 71.6816 79.8488 69.5604 79.4397 67.5604C79.5155 67.5452 79.5913 67.5604 79.667 67.5452L84.5458 66.8634C85.167 67.424 86.0004 67.7422 86.8337 67.7422C87.3034 67.7422 87.7731 67.6513 88.2125 67.4392L97.0913 63.5149C98.7579 62.7876 99.5458 60.8482 98.864 59.1361ZM11.2276 60.8331C11.1206 60.849 11.0114 60.8425 10.907 60.8138C10.8026 60.7851 10.7054 60.7349 10.6216 60.6664L3.81853 55.2876C3.65604 55.158 3.54966 54.9709 3.52145 54.7649C3.49324 54.559 3.54537 54.3501 3.66702 54.1816L20.1519 31.7725C20.3185 31.5452 20.5458 31.4846 20.6822 31.4695H20.7882C20.9246 31.4695 21.1064 31.4998 21.2731 31.6361L28.1367 37.0452C28.47 37.3028 28.5307 37.7876 28.2882 38.1058L28.0761 38.3937L28.0307 38.4392L18.5458 51.2876L18.5155 51.3179L16.7125 53.7725L12.5761 59.3785C12.561 59.3937 12.561 59.4089 12.561 59.4089L11.7428 60.5301C11.5913 60.7422 11.3791 60.8179 11.2276 60.8331ZM19.1367 80.1816C18.5958 80.2488 18.047 80.2084 17.5217 80.0628C16.9965 79.9172 16.5052 79.6692 16.0761 79.3331C14.2882 77.9392 13.9549 75.3179 15.364 73.4998L20.2428 67.2119C21.061 66.1513 22.2882 65.6058 23.5307 65.6058C24.4094 65.6058 25.3034 65.8937 26.061 66.4695C27.0761 67.2725 27.667 68.4695 27.667 69.7573C27.667 70.6816 27.364 71.5604 26.7882 72.3179L21.9094 78.6058C21.2125 79.4846 20.2276 80.0452 19.1367 80.1816ZM24.3488 85.8028C23.4397 85.0604 22.9246 83.9846 22.9246 82.8331C22.9246 81.9998 23.2125 81.1816 23.7731 80.4695L28.6367 74.1967C29.2579 73.3786 30.167 72.8786 31.1822 72.7573C31.3337 72.727 31.4852 72.727 31.6216 72.727C32.4852 72.727 33.3337 73.0301 34.1216 73.6664C35.7579 74.9846 36.0155 77.3937 34.6973 79.0301L29.7125 85.2422C29.0682 86.0168 28.1467 86.5089 27.1447 86.6137C26.1427 86.7184 25.1394 86.4274 24.3488 85.8028ZM35.8185 91.3937C34.9397 91.5149 34.0761 91.3028 33.4549 90.8482L33.1973 90.6361C32.841 90.3755 32.5416 90.0449 32.3175 89.6645C32.0935 89.2841 31.9494 88.862 31.8943 88.424C31.8353 87.9794 31.8666 87.5276 31.9864 87.0954C32.1061 86.6632 32.3119 86.2596 32.5913 85.9089L36.2882 81.3331C36.5978 80.9482 36.9901 80.638 37.436 80.4255C37.882 80.213 38.37 80.1038 38.864 80.1058C39.5458 80.1058 40.2428 80.3179 40.8185 80.7573C41.6519 81.3786 42.1367 82.3482 42.1367 83.3937C42.1367 84.0755 41.9397 84.7119 41.561 85.2573C41.5307 85.2876 41.5155 85.3331 41.4852 85.3785C41.47 85.3937 41.47 85.4089 41.4549 85.4089L41.3943 85.4998L37.9549 90.1058C37.47 90.8179 36.6973 91.2725 35.8185 91.3937ZM48.7428 91.4998L47.0004 94.2119C46.5004 94.9846 45.7276 95.5149 44.8185 95.7119C43.9246 95.8937 43.0155 95.727 42.2731 95.2422L42.0761 95.1058C41.2731 94.5907 40.7428 93.7876 40.5761 92.8634C40.4094 91.9392 40.6064 91.0149 41.167 90.2422C42.0761 89.0452 43.1064 87.7119 43.5155 87.2119C43.5913 87.1361 43.667 87.0452 43.7428 86.9846C43.7579 86.9846 43.7579 86.9695 43.7579 86.9695C43.7731 86.9543 43.8034 86.9392 43.8185 86.924C43.8943 86.8634 43.9549 86.8028 44.0761 86.727C45.2125 86.0452 46.6367 86.0452 47.7428 86.7573C48.7125 87.3785 49.3034 88.4695 49.3034 89.6513C49.2882 90.3179 49.1064 90.9543 48.7428 91.4998ZM75.9397 71.3331C74.6973 72.5604 72.6822 72.7119 71.2882 71.6967L62.5761 65.2573L59.1822 62.7422C58.9017 62.5387 58.5526 62.4534 58.2098 62.5043C57.8671 62.5553 57.558 62.7386 57.3488 63.0149C56.9246 63.5907 57.0458 64.4089 57.6216 64.8482L63.561 69.2422L68.5913 72.9695C69.47 73.621 70.0307 74.5755 70.167 75.6664C70.3034 76.7573 69.9852 77.8179 69.2731 78.6664C68.637 79.4122 67.7456 79.8938 66.7733 80.0171C65.8009 80.1404 64.8175 79.8965 64.0155 79.3331L53.5761 71.8634C53.4374 71.7623 53.28 71.6898 53.1129 71.6503C52.9459 71.6108 52.7727 71.605 52.6034 71.6332C52.4341 71.6614 52.2721 71.7231 52.1269 71.8146C51.9818 71.9062 51.8563 72.0258 51.7579 72.1664C51.3337 72.7573 51.47 73.5755 52.061 73.9846L62.0458 81.121C62.8185 81.6816 63.3034 82.5452 63.3943 83.4846C63.47 84.4392 63.1367 85.3634 62.4549 86.0452C61.3185 87.1967 59.4852 87.3028 58.1973 86.3331L48.3488 78.6664C48.2137 78.5606 48.059 78.4824 47.8936 78.4366C47.7281 78.3907 47.5553 78.3779 47.3849 78.399C47.2146 78.4201 47.0501 78.4747 46.9009 78.5596C46.7517 78.6445 46.6207 78.758 46.5155 78.8937C46.0761 79.4543 46.167 80.2876 46.7276 80.727L55.3337 87.4543C56.1519 88.0907 56.667 89.0452 56.7276 90.0755C56.8034 91.121 56.4246 92.1058 55.6822 92.8482C54.47 94.0604 52.4246 94.1967 51.061 93.2119C51.061 93.2119 50.9852 93.121 50.8791 93.0149L50.9094 92.9695C51.5458 91.9998 51.8791 90.8634 51.8791 89.6664C51.8791 87.5907 50.8488 85.6967 49.1216 84.5755C47.8034 83.727 46.2276 83.4695 44.7276 83.7422C44.7276 83.6361 44.7428 83.5301 44.7428 83.424C44.7428 81.5301 43.8791 79.8028 42.3791 78.6816C41.0761 77.7119 39.5155 77.3482 38.0307 77.5604C38.3337 75.3785 37.5307 73.0907 35.6367 71.5604C34.9736 71.0176 34.2077 70.6144 33.385 70.3749C32.5623 70.1354 31.6996 70.0645 30.8488 70.1664C30.6216 70.1967 30.4094 70.2573 30.1973 70.3028C30.2125 70.121 30.2428 69.9543 30.2428 69.7725C30.2428 67.6664 29.3034 65.727 27.6367 64.424C25.1367 62.4846 21.6973 62.5907 19.3034 64.4695C19.3034 64.4543 19.3034 64.4543 19.3185 64.4392C19.2882 64.4695 19.2579 64.4998 19.2276 64.5149C19.0761 64.6361 18.9246 64.7876 18.7882 64.924C18.667 65.0452 18.5307 65.1513 18.4094 65.2876V64.5604C18.4094 62.9846 17.667 61.5149 16.4397 60.621L15.4397 59.8786L17.3488 57.2876L19.7579 54.0149L20.5155 52.9998C20.561 52.9543 20.5913 52.9089 20.6367 52.8634L29.2882 41.121L29.8488 41.5907C30.6216 42.2725 31.6367 42.6513 32.6822 42.6513H39.0155L35.3791 46.1361C34.5307 46.9543 34.061 48.0604 34.061 49.2422C34.061 50.9392 35.0004 52.4392 36.5307 53.1513C38.3782 54.0315 40.4053 54.4692 42.4514 54.4297C44.4975 54.3903 46.5063 53.8747 48.3185 52.924L49.8943 52.1058C51.3791 51.3179 53.1973 51.4998 54.5155 52.5604L69.8943 64.8786C70.7882 65.5755 71.7276 66.1513 72.6973 66.5755C73.0155 66.7119 73.364 66.8482 73.667 66.9543C73.9397 67.0604 74.2276 67.1513 74.47 67.2119C74.8034 67.3179 75.1367 67.3937 75.4246 67.4392C75.8185 67.5149 76.1973 67.5755 76.5155 67.5907C76.667 67.6058 76.8034 67.6058 76.9549 67.621L76.7882 67.6664C77.2125 68.924 76.9094 70.3634 75.9397 71.3331ZM79.3034 64.9695C78.8034 65.0301 78.2579 65.0604 77.6367 65.0452C77.3791 65.0452 77.1367 65.0301 76.7882 64.9846C76.4852 64.9695 76.2125 64.9089 75.8791 64.8482C75.6421 64.8148 75.4087 64.7589 75.1822 64.6816C74.97 64.6361 74.7731 64.5604 74.5761 64.4846C74.3034 64.3937 74.0155 64.2725 73.7579 64.1664C73.0004 63.8331 72.2428 63.3786 71.5307 62.8179L56.9397 51.121L56.1519 50.4998C54.9094 49.4998 53.3943 48.9846 51.864 48.9846C50.7731 48.9846 49.6822 49.2422 48.6973 49.7725L47.1216 50.5907C45.6713 51.3549 44.0624 51.7693 42.4234 51.8009C40.7844 51.8325 39.1608 51.4803 37.6822 50.7725C36.97 50.4392 36.7125 49.7573 36.7125 49.227C36.7125 48.9089 36.8034 48.424 37.2276 48.0149L44.7882 40.7725C46.2731 39.3482 48.3791 38.6664 50.4246 38.9695L66.7579 41.3785C68.2579 41.5907 69.8034 41.3028 71.0761 40.5755L73.0761 39.4543L76.2882 47.3937L83.1973 64.424L79.3034 64.9695ZM96.0307 61.1513L87.1367 65.0755C86.7882 65.227 86.364 65.1058 86.1064 64.6664L76.6519 41.3179L75.4246 38.3179L74.7276 36.5907C74.561 36.1967 74.7428 35.7422 75.1519 35.5604L84.0307 31.621C84.2276 31.5301 84.4549 31.5301 84.6519 31.6058C84.8488 31.6816 85.0004 31.8331 85.0761 32.0452L96.4397 60.1361C96.5913 60.5149 96.4094 60.9695 96.0307 61.1513Z" fill="black"/>
<path d="M50.0011 32.7575C58.592 32.7575 65.5768 25.7726 65.5768 17.1817C65.5768 8.59082 58.592 1.59082 50.0011 1.59082C41.4102 1.59082 34.4102 8.57567 34.4102 17.1817C34.4253 25.7726 41.4102 32.7575 50.0011 32.7575ZM50.0011 4.21203C57.1526 4.21203 62.9556 10.0302 62.9556 17.1817C62.9556 24.3332 57.1374 30.1363 50.0011 30.1363C42.8496 30.1363 37.0314 24.3181 37.0314 17.1817C37.0314 10.0302 42.8496 4.21203 50.0011 4.21203Z" fill="black"/>
<path d="M46.8191 21.9244C47.0615 22.1668 47.3948 22.3032 47.7433 22.3032C48.0918 22.3032 48.4251 22.1668 48.6676 21.9244L56.2888 14.3032C56.8039 13.7881 56.8039 12.9699 56.2888 12.4547C55.7736 11.9396 54.9554 11.9396 54.4403 12.4547L47.7433 19.1517L45.5766 16.985C45.0615 16.4699 44.2433 16.4699 43.7282 16.985C43.213 17.5002 43.213 18.3184 43.7282 18.8335L46.8191 21.9244Z" fill="black"/>
</svg>
