<svg xmlns="http://www.w3.org/2000/svg" width="20" height="20" fill="currentColor" viewBox="0 0 20 20">
  <path d="M18.077 5.318c.108.014.214.043.315.084l.148.073.136.09c.087.067.165.144.232.23l.09.138.074.146c.063.152.095.315.094.48v6.83l-.01.169a1.25 1.25 0 0 1-1.785.955l-.147-.084-4.353-2.903-.068-.05a.833.833 0 0 1 .92-1.38l.072.044 3.705 2.47V7.282L13.753 9.47a.833.833 0 1 1-.84-1.44l4.373-2.551.148-.074a1.25 1.25 0 0 1 .479-.096l.164.01Z"/>
  <path d="M12.5 6.667a.834.834 0 0 0-.833-.834H3.334a.834.834 0 0 0-.834.834v6.666c0 .46.374.834.834.834h8.333c.46 0 .833-.374.833-.834V6.667Zm1.667 6.666a2.5 2.5 0 0 1-2.5 2.5H3.334a2.5 2.5 0 0 1-2.5-2.5V6.667a2.5 2.5 0 0 1 2.5-2.5h8.333a2.5 2.5 0 0 1 2.5 2.5v6.666Z"/>
</svg>
