<svg xmlns="http://www.w3.org/2000/svg" width="20" height="21" fill="currentColor" viewBox="0 0 20 21">
  <path d="M10 13.117c.72 0 1.303-.584 1.303-1.304V5.871a1.303 1.303 0 0 0-2.606 0v5.943c0 .72.583 1.303 1.303 1.303Zm0 .71c-.343 0-.68.138-.921.38a1.308 1.308 0 0 0-.382.922A1.307 1.307 0 0 0 10 16.432c.344 0 .68-.139.922-.382.242-.242.382-.578.382-.921 0-.343-.14-.68-.382-.921a1.312 1.312 0 0 0-.922-.382Z"/>
  <path d="M10 .5C4.486.5 0 4.986 0 10.5s4.486 10 10 10 10-4.486 10-10-4.486-10-10-10Zm0 18.436c-4.652 0-8.436-3.784-8.436-8.436S5.348 2.064 10 2.064s8.436 3.784 8.436 8.436-3.784 8.436-8.436 8.436Z"/>
</svg>
